<?xml version="1.0" standalone="no"?>
<!DOCTYPE svg PUBLIC "-//W3C//DTD SVG 1.1//EN" "http://www.w3.org/Graphics/SVG/1.1/DTD/svg11.dtd" >
<svg xmlns="http://www.w3.org/2000/svg">
<metadata></metadata>
<defs>
<font id="farnhamdisplay-regitalswashRg" horiz-adv-x="1409" >
<font-face units-per-em="2048" ascent="1638" descent="-410" />
<missing-glyph horiz-adv-x="460" />
<glyph horiz-adv-x="2048" />
<glyph horiz-adv-x="2048" />
<glyph unicode="&#xd;" horiz-adv-x="2048" />
<glyph unicode=" "  horiz-adv-x="460" />
<glyph unicode="&#x09;" horiz-adv-x="460" />
<glyph unicode="&#xa0;" horiz-adv-x="460" />
<glyph unicode="!" horiz-adv-x="591" d="M53 127q0 57 44.5 101t101.5 44t101 -44t44 -101t-44 -100t-101 -43t-101.5 43t-44.5 100zM215 414l59 278l29 518q6 112 48 163.5t102 51.5q50 0 83 -33.5t33 -99.5q0 -60 -28 -137l-183 -481l-55 -260h-88z" />
<glyph unicode="&#x22;" horiz-adv-x="888" d="M276 1239q-14 91 29 138.5t107 47.5q48 0 87.5 -37t39.5 -94q0 -51 -35 -106l-117 -182l-25 -115h-81l30 131zM686 1239q-14 91 29 138.5t106 47.5q48 0 87.5 -37t39.5 -94q0 -51 -35 -106l-116 -182l-25 -115h-82l31 131z" />
<glyph unicode="#" horiz-adv-x="1011" d="M35 350l47 162l194 -35l60 205l-195 35l47 162l195 -35l72 250h98l-78 -267l199 -36l86 303h98l-92 -320l197 -35l-48 -161l-196 34l-57 -204l194 -35l-47 -162l-195 35l-69 -246h-96l73 262l-198 35l-84 -297h-99l90 313zM371 459l198 -35l58 205l-197 35z" />
<glyph unicode="$" horiz-adv-x="1013" d="M6 272q0 65 38.5 109.5t96.5 44.5q55 0 89 -34.5t34 -88.5q0 -55 -40.5 -89t-104.5 -30v-4q78 -90 225 -108l96 456q-48 29 -79 50.5t-69.5 56.5t-61 70t-38.5 84.5t-16 105.5q0 149 108 235.5t265 86.5q19 0 37 -3l37 175h86l-39 -185q125 -25 195.5 -96t70.5 -156 q0 -64 -34.5 -106.5t-90.5 -42.5q-45 0 -78 32.5t-33 82.5q0 47 35.5 78t91.5 28l2 4q-52 73 -178 94l-88 -413q54 -35 85.5 -57t76.5 -60.5t69.5 -73t43 -82.5t18.5 -100q0 -160 -113.5 -256t-312.5 -96h-18l-41 -193h-86l41 201q-148 24 -234 104.5t-86 175.5zM342 946 q0 -53 37.5 -97t107.5 -91l80 372q-112 0 -168.5 -47.5t-56.5 -136.5zM430 70q248 8 248 204q0 64 -41.5 111.5t-120.5 97.5z" />
<glyph unicode="%" horiz-adv-x="1667" d="M139 846q0 154 104.5 260t241.5 106q121 0 195 -91t74 -216q0 -156 -99 -260t-239 -104q-122 0 -199.5 91.5t-77.5 213.5zM303 768q0 -156 115 -156q64 0 97 53t60 185q17 90 17 137q0 152 -109 152q-64 0 -100.5 -53t-65.5 -191q-14 -69 -14 -127zM324 0l909 1196h119 l-910 -1196h-118zM922 291q0 154 104.5 260t241.5 106q121 0 194.5 -91t73.5 -216q0 -156 -99 -260t-239 -104q-121 0 -198.5 91.5t-77.5 213.5zM1085 213q0 -156 115 -156q64 0 97.5 53.5t60.5 184.5q16 85 16 137q0 152 -108 152q-64 0 -100.5 -53t-65.5 -191 q-15 -74 -15 -127z" />
<glyph unicode="&#x26;" horiz-adv-x="1587" d="M49 457q0 93 30 172t81.5 134t115 91.5t136.5 54.5q-66 85 -66 191q0 69 21 125.5t54.5 93t78 61t89.5 35t91 10.5q141 0 223 -71.5t82 -169.5q0 -57 -38 -95t-89 -38q-48 0 -80.5 32t-32.5 74q0 52 40.5 88.5t107.5 26.5v4q-21 28 -67 49t-115 21q-123 0 -189 -67 t-71 -194q-6 -95 38 -163q68 6 138 -4q39 -6 60.5 -30.5t12.5 -56.5q-6 -25 -34.5 -34.5t-61.5 -3.5q-77 12 -141 63q-88 -42 -133 -132.5t-47 -193.5q-2 -186 113 -297.5t362 -111.5q96 0 173.5 25.5t129 67.5t86.5 99t50 117.5t15 124.5q0 108 -36 197q-46 -9 -69.5 -13.5 t-62.5 -13.5t-59 -16t-49.5 -18.5t-45 -23t-34.5 -28t-27.5 -35t-15 -42.5t-6.5 -52q0 -44 16 -72h4q0 51 25.5 76t65.5 25q32 0 55.5 -24.5t23.5 -59.5q0 -38 -27.5 -67.5t-76.5 -29.5q-64 0 -109 51.5t-45 129.5q0 42 11.5 79t27.5 64t47.5 53.5t56.5 43t70 37t73 31.5 t80.5 30.5t78.5 29.5q63 25 105 44.5t91.5 52t78.5 67.5t49 86t20 113q0 58 -23 96.5t-55.5 53t-66 19.5t-57 2t-26.5 -7v-4q109 -13 109 -117q0 -39 -29.5 -66.5t-74.5 -27.5q-48 0 -82.5 37t-34.5 90q0 41 17.5 73t45 49t55.5 25t54 8q129 0 215 -78t86 -223 q0 -99 -29.5 -174t-86 -125t-126 -81t-162.5 -52q58 -104 58 -233q0 -79 -22 -155t-71 -148.5t-121 -127t-180.5 -87.5t-240.5 -33q-180 0 -322.5 56.5t-225.5 165t-83 251.5z" />
<glyph unicode="'" horiz-adv-x="479" d="M276 1239q-14 91 29 138.5t107 47.5q48 0 87.5 -37t39.5 -94q0 -51 -35 -106l-117 -182l-25 -115h-81l30 131z" />
<glyph unicode="(" horiz-adv-x="690" d="M88 487q-2 631 668 1057l45 -55q-128 -108 -205 -202t-141.5 -241.5t-112.5 -365.5q-49 -226 -49 -399q0 -147 33 -274.5t100 -262.5l-61 -39q-120 160 -198.5 362.5t-78.5 419.5z" />
<glyph unicode=")" horiz-adv-x="686" d="M-90 -240q128 108 205 202t141.5 241.5t112.5 365.5q49 226 49 400q0 147 -33 274t-100 262l61 39q120 -160 198.5 -362.5t78.5 -419.5q2 -631 -668 -1057z" />
<glyph unicode="*" horiz-adv-x="862" d="M203 1239q13 24 38.5 38.5t53.5 14.5q67 0 108 -75l39 -72l35 -19l-37 -67l-34 18h-82q-82 0 -116.5 56t-4.5 106zM221 852q0 38 28.5 70t82.5 43l78 16l28 27l51 -58l-26 -26l-25 -78q-14 -48 -45.5 -72t-68.5 -24q-47 0 -76 32q-27 34 -27 70zM506 1260 q-25 79 16 126.5t101 34.5q35 -8 57 -34.5t22 -63.5q0 -50 -40 -96l-56 -62l-8 -39l-76 17l8 39zM549 938l69 31l17 -37l65 -45q64 -44 64 -105q0 -31 -17 -57.5t-45 -38.5q-54 -25 -104.5 13.5t-42.5 121.5l8 80zM633 1094l39 2l65 49q44 33 88 33q41 0 70.5 -27t34.5 -66 q6 -44 -25 -78t-84 -34q-32 0 -67 14l-76 33l-39 -2z" />
<glyph unicode="+" horiz-adv-x="999" d="M106 547l19 90h338l78 360h98l-78 -360h338l-18 -90h-338l-78 -365h-98l77 365h-338z" />
<glyph unicode="," horiz-adv-x="550" d="M8 -209q152 95 164 211l-4 4q-18 -1 -38.5 5t-43 19.5t-37 42t-14.5 66.5q0 56 41.5 94.5t97.5 38.5q63 0 108.5 -45.5t45.5 -130.5q0 -100 -79.5 -197.5t-223.5 -142.5z" />
<glyph unicode="-" horiz-adv-x="675" d="M104 489l35 156h428l-35 -156h-428z" />
<glyph unicode="." horiz-adv-x="550" d="M33 127q0 57 44 101t101 44t102.5 -44t45.5 -101t-45.5 -100t-102.5 -43t-101 43t-44 100z" />
<glyph unicode="/" horiz-adv-x="776" d="M-106 -270l888 1771h117l-889 -1771h-116z" />
<glyph unicode="0" horiz-adv-x="1146" d="M63 465q0 135 49.5 256.5t131 206t189 134.5t220.5 50q99 0 179 -38.5t131.5 -105t78.5 -153t27 -184.5q0 -136 -48 -257t-129 -206t-189 -134.5t-226 -49.5q-96 0 -175.5 40t-131 107t-79.5 153t-28 181zM270 346q0 -146 58 -212t155 -66q41 0 76.5 9.5t77 38.5t75.5 76 t66.5 128.5t55.5 189.5q28 129 28 231q0 152 -59.5 217.5t-157.5 65.5q-45 0 -79 -7.5t-74.5 -34.5t-72.5 -74t-64 -130.5t-56 -199.5q-29 -145 -29 -232z" />
<glyph unicode="1" horiz-adv-x="798" d="M-29 0l17 76h211l166 786l-232 74l17 59q23 -2 63 -2q198 0 348 119h66l-219 -1036h219l-17 -76h-639z" />
<glyph unicode="2" horiz-adv-x="1105" d="M31 0v86q375 162 534.5 306.5t159.5 326.5q0 111 -55.5 176.5t-143.5 65.5q-112 0 -173.5 -70t-61.5 -174q0 -53 18 -101l-43 -26q-73 70 -73 188q0 152 105.5 243t266.5 91q164 0 272.5 -91.5t108.5 -254.5q0 -94 -41 -180.5t-108 -154t-162 -127.5t-194.5 -104 t-213.5 -81l721 82l-49 -201h-868z" />
<glyph unicode="3" horiz-adv-x="1003" d="M-23 -29q0 63 41.5 105.5t96.5 42.5q52 0 86.5 -36t34.5 -83q0 -55 -33.5 -88.5t-100.5 -40.5v-4q62 -43 129 -56q35 -6 72 -6q153 0 241.5 75t88.5 214q0 76 -24.5 133.5t-66 90.5t-91.5 49t-107 16q-34 0 -108 -16l-15 63q101 34 173 67t135 77t95.5 101t32.5 126 q0 82 -43.5 131t-132.5 49q-92 0 -146 -53t-54 -150q0 -40 8 -76l-43 -16q-24 27 -41 68.5t-17 83.5q0 85 48.5 149.5t123 95.5t160.5 31q158 0 245 -80t87 -203q0 -61 -26.5 -115.5t-70.5 -93.5t-96.5 -67t-109.5 -43v-4q51 -11 100 -39t91.5 -70.5t69 -105t26.5 -135.5 q0 -132 -65 -233t-176 -153.5t-249 -52.5q-172 0 -270.5 73t-98.5 179z" />
<glyph unicode="4" horiz-adv-x="1099" d="M-8 102l4 117l797 875h174l-185 -865h181l-27 -127h-180l-78 -364h-201l78 364h-563zM96 229h486l137 645z" />
<glyph unicode="5" horiz-adv-x="929" d="M-59 -51q0 67 39 107t94 40q47 0 81.5 -33.5t34.5 -80.5q0 -106 -133 -119v-4q67 -54 197 -54q152 0 231.5 75.5t79.5 217.5q0 73 -23.5 135t-74 115t-139.5 87.5t-211 43.5l-27 35l180 580h498l123 159l35 -14l-95 -334l-534 31l-57 -270q238 -27 381 -164.5t143 -321.5 q0 -214 -133.5 -337.5t-345.5 -123.5q-161 0 -252.5 69.5t-91.5 160.5z" />
<glyph unicode="6" horiz-adv-x="1077" d="M61 451q0 188 89 357t244 296.5t365 217t451 126.5l15 -57q-197 -51 -366.5 -136.5t-299.5 -207t-190 -261.5q90 68 215 68q105 0 186 -57.5t122.5 -148t41.5 -195.5q0 -206 -139.5 -337.5t-343.5 -131.5q-185 0 -287.5 129.5t-102.5 337.5zM250 317q0 -125 52 -187 t140 -62q111 0 173.5 79t99.5 248q16 82 16 142q0 112 -48.5 172.5t-137.5 60.5q-214 0 -275 -278q-20 -94 -20 -175z" />
<glyph unicode="7" horiz-adv-x="985" d="M104 686l84 408h811v-101q-184 -199 -294 -334t-185 -262t-103 -235t-28 -236q0 -198 -127 -198q-56 0 -89.5 40.5t-33.5 110.5q0 179 188 451.5t523 597.5l-576 -29l-124 -223z" />
<glyph unicode="8" horiz-adv-x="1075" d="M41 369q0 166 115.5 275.5t294.5 133.5q-87 33 -134 100.5t-47 153.5q0 100 57.5 178t147 118t191.5 40q157 0 246 -87t89 -220q0 -121 -81.5 -199.5t-206.5 -103.5q121 -37 184.5 -123.5t63.5 -196.5q0 -202 -144.5 -328t-361.5 -126q-103 0 -183.5 32t-130 86.5 t-75 122.5t-25.5 144zM254 287q0 -114 50.5 -171t139.5 -57q53 0 92 12t75.5 44t64 94t47.5 156q18 86 18 149q0 217 -200 217q-37 0 -66 -6t-61 -25t-57 -51t-48 -87.5t-39 -131.5q-16 -73 -16 -143zM463 961q0 -83 38.5 -122.5t102.5 -39.5q30 0 54 7t51.5 27.5t49.5 66 t36 114.5q12 58 12 104q0 88 -38 131t-97 43q-72 0 -120 -48t-77 -179q-12 -59 -12 -104z" />
<glyph unicode="9" horiz-adv-x="1052" d="M-147 -244q347 92 557 225.5t278 329.5q-87 -69 -209 -69q-115 0 -202 57.5t-129 145t-42 188.5q0 141 66 251.5t175.5 169t240.5 58.5q125 0 216 -60t135 -158t44 -220q0 -785 -1114 -981zM307 551q0 -113 51 -169t144 -56q208 0 268 278q23 112 23 178q0 124 -52.5 185 t-144.5 61q-105 0 -169.5 -80.5t-100.5 -247.5q-19 -90 -19 -149z" />
<glyph unicode=":" horiz-adv-x="563" d="M41 127q0 57 44 101t101 44t101.5 -44t44.5 -101t-44.5 -100t-101.5 -43t-101 43t-44 100zM154 666q0 57 44 100t101 43t101 -43t44 -100t-44 -100.5t-101 -43.5t-101 43.5t-44 100.5z" />
<glyph unicode=";" horiz-adv-x="563" d="M14 -209q152 95 164 211l-4 4q-18 -1 -38.5 5t-43 19.5t-37 42t-14.5 66.5q0 56 41.5 94.5t97.5 38.5q63 0 108.5 -45.5t45.5 -130.5q0 -100 -79.5 -197.5t-223.5 -142.5zM154 666q0 57 44 100t101 43t101 -43t44 -100t-44 -100.5t-101 -43.5t-101 43.5t-44 100.5z" />
<glyph unicode="&#x3c;" horiz-adv-x="792" d="M66 614l18 88q184 10 350.5 91t290.5 196l57 -59q-98 -104 -232.5 -183.5t-287.5 -113.5q97 -55 199.5 -166.5t173.5 -237.5l-70 -47q-56 82 -104 141t-109 118t-132 102t-154 71z" />
<glyph unicode="=" horiz-adv-x="1005" d="M74 393l18 88h780l-18 -88h-780zM137 700l19 88h780l-18 -88h-781z" />
<glyph unicode="&#x3e;" horiz-adv-x="792" d="M14 242q97 104 232.5 183.5t288.5 113.5q-97 55 -199.5 166t-173.5 237l69 47q76 -111 140 -185t157.5 -142t202.5 -105l-18 -88q-184 -10 -350.5 -91t-290.5 -196z" />
<glyph unicode="?" horiz-adv-x="874" d="M168 127q0 57 44 101t101 44t101.5 -44t44.5 -101t-44.5 -100t-101.5 -43t-101 43t-44 100zM184 1169q0 46 22 90.5t63 82t106 60.5t143 23q170 0 274.5 -92t104.5 -225q0 -73 -21 -128t-69 -99.5t-109.5 -79t-158.5 -74.5q-101 -42 -143 -74.5t-42 -74.5 q0 -49 36.5 -78.5t133.5 -40.5v-56q-36 -8 -71 -8q-86 0 -146.5 48.5t-60.5 123.5q0 47 18 88t54.5 76t72 60.5t89.5 60.5q6 4 9.5 6t9 5.5t9.5 6.5q54 36 83.5 58t61 55t45 70t13.5 84q0 92 -60 141t-162 49q-94 0 -160 -42t-79 -122h4q33 51 86 51q45 0 75.5 -30.5 t30.5 -77.5q0 -44 -30.5 -76.5t-75.5 -32.5q-72 0 -114 49.5t-42 122.5z" />
<glyph unicode="@" horiz-adv-x="1810" d="M63 322q0 121 36 246t100.5 238.5t158.5 213.5t204.5 173.5t244 116t272.5 42.5q185 0 334 -74t235.5 -211t86.5 -311q0 -205 -76 -391.5t-198 -298t-253 -111.5q-102 0 -161.5 64.5t-59.5 175.5v28l139 346l-4 2q-155 -290 -278.5 -438.5t-243.5 -148.5q-72 0 -113 49 t-41 141q0 100 33 216.5t91 223t129.5 194.5t154.5 140.5t160 52.5q94 0 151 -83l21 71h196l-227 -839q-26 -101 62 -101q101 0 182.5 94t126.5 252t45 346q0 256 -128.5 389.5t-369.5 133.5q-138 0 -265 -49t-226.5 -136.5t-173 -203t-113 -254t-39.5 -283.5 q0 -309 135.5 -454.5t413.5 -145.5q227 0 520 92l23 -51q-109 -58 -260 -96.5t-304 -38.5t-287.5 52.5t-229.5 143t-149.5 216t-54.5 266.5zM657 201q0 -68 41 -68q124 0 371 426l72 268q-22 47 -51.5 70t-79.5 23q-201 0 -326 -545q-27 -123 -27 -174z" />
<glyph unicode="A" horiz-adv-x="2174" d="M-111 287q0 173 115 287t293 114q130 0 212.5 -68.5t82.5 -191.5q0 -65 -27 -109t-64 -61.5t-79 -17.5q-50 0 -84.5 35.5t-34.5 82.5q0 33 20 61q19 28 49 41q17 8 39 8q13 0 29 -4q38 -9 72 -44h4q-6 81 -74.5 141t-171.5 60q-108 0 -180 -82t-72 -193 q0 -142 104.5 -232.5t295.5 -90.5q164 0 345 104.5t406 345.5l889 957h78l-287 -1328l146 -41l-15 -61h-555l15 61l190 41l101 428h-375l-125 -143q-121 -138 -213 -227t-196 -161.5t-210.5 -105t-228.5 -32.5q-223 0 -358.5 120t-135.5 306zM1423 608h326l121 510z" />
<glyph unicode="B" horiz-adv-x="1417" d="M-43 1087q0 152 117 237t338 85h557q194 0 301.5 -86.5t107.5 -239.5q0 -65 -18.5 -116.5t-49 -86.5t-78.5 -63t-98.5 -45.5t-117.5 -32.5v-6q149 -22 236 -103t87 -210q0 -104 -45.5 -186t-124.5 -132t-180.5 -76t-218.5 -26h-631l15 61l194 41l258 1221h-188 q-179 0 -281.5 -73.5t-109.5 -172.5h4q33 33 68.5 40.5t61 -5.5t42 -38.5t16.5 -55.5q0 -44 -32 -76.5t-78 -32.5q-60 0 -106 44.5t-46 133.5zM563 88h199q157 0 232 59.5t108 217.5q16 68 16 124v15q-2 62 -28 104.5t-83 65t-147 22.5h-170zM709 774h110q113 0 175.5 22 t99 77t59.5 163q14 64 14 113q0 69 -28 107q-47 64 -181 65h-137z" />
<glyph unicode="C" horiz-adv-x="1212" d="M27 244q0 126 28 263.5t77.5 268.5t123.5 249t160.5 206.5t194 141t218.5 52.5q149 0 248 -122l53 106h50l10 -504l-47 -12q-50 143 -88.5 228.5t-77.5 132.5t-74 62t-86 15q-139 0 -264.5 -172.5t-228.5 -527.5q-85 -296 -85 -479q0 -74 14 -130q48 -192 261 -192 q80 0 157 37.5t141.5 104t117.5 145.5t98 172l55 -25q-47 -122 -110 -221t-141.5 -173.5t-175 -115.5t-203.5 -41q-108 0 -191.5 42t-133.5 115.5t-75.5 168t-25.5 205.5z" />
<glyph unicode="D" horiz-adv-x="1634" d="M-43 1087q0 152 117 237t338 85h620q149 0 260.5 -49.5t176.5 -136.5t96.5 -194.5t31.5 -235.5q0 -227 -105 -407t-300.5 -283t-448.5 -103h-604l15 61l194 41l258 1221h-188q-179 0 -281.5 -73.5t-109.5 -172.5h4q33 33 68.5 40.5t61 -5.5t42 -38.5t16.5 -55.5 q0 -44 -32 -76.5t-78 -32.5q-60 0 -106 44.5t-46 133.5zM565 88h185q115 0 200 21.5t148 64t109.5 115.5t79 165t61.5 224q36 177 38 299v8q0 117 -43 190q-44 76 -125 110t-210 34h-185z" />
<glyph unicode="E" horiz-adv-x="1159" d="M18 283q0 114 57 210.5t143 158.5t196 100q-46 56 -72.5 127t-26.5 141q0 115 76 209.5t195 145t252 50.5q159 0 248.5 -58t89.5 -165q0 -58 -38 -98.5t-87 -40.5q-50 0 -84.5 34t-34.5 83q0 77 104 114v4q-78 33 -172 33q-172 0 -270 -119.5t-98 -347.5q0 -42 6 -86 q90 19 166 19q49 0 78.5 -19t29.5 -53q0 -32 -23.5 -53.5t-51 -29t-56.5 -7.5q-97 0 -180 67q-137 -79 -184 -296q-20 -91 -20 -164q0 -68 17 -114t42.5 -79t63 -50t74 -24.5t79.5 -7.5q149 0 265 94.5t216 272.5l49 -25q-188 -452 -573 -452q-127 0 -234.5 50.5t-174.5 149 t-67 226.5z" />
<glyph unicode="F" horiz-adv-x="1347" d="M-112 -2q34 36 87 37q50 0 81.5 -33.5t31.5 -83.5q0 -70 -74 -100v-4q35 -7 49 -7q101 0 166 80.5t101 253.5l252 1174q-117 24 -193 24q-72 0 -122.5 -20t-74.5 -53q-26 -34 -34 -72q-5 -22 -4 -45q0 -17 2 -35h4q13 36 39 56t59 20q45 0 74.5 -28t29.5 -79t-33.5 -79.5 t-80.5 -28.5q-82 0 -126 57t-44 139q0 133 95 202t269 69q106 0 422 -46t447 -46q83 0 125 34q39 32 39 82v7h-5q-22 -50 -79 -50q-33 0 -57.5 23.5t-24.5 54.5q0 36 26.5 63t65.5 27q49 0 93 -40t44 -119q0 -116 -86.5 -191.5t-234.5 -75.5q-29 0 -65.5 4.5t-62.5 9t-77 18 t-69 18t-82 23.5t-75 22l-116 -553l258 18l129 197h43l-105 -492h-43l-34 201l-261 18l-79 -370q-27 -127 -70 -224.5t-91.5 -157t-108 -96.5t-114.5 -51t-116 -14q-106 0 -166 48q-59 47 -59 114q0 62 35 100z" />
<glyph unicode="G" horiz-adv-x="1351" d="M86 598q0 105 30 211t81 196t122 168.5t151 133.5t169.5 86.5t175.5 31.5q60 0 109.5 -11t86.5 -32t59 -39t48 -45l58 111h49l18 -465l-41 -10q-106 228 -187 312.5t-196 84.5q-86 0 -152.5 -27.5t-127.5 -94.5t-110 -188.5t-87 -301.5q-34 -172 -34 -293v-7 q1 -123 42.5 -199t109 -110t167.5 -34q140 0 258 88l78 371l-170 40l14 62h534l-14 -62l-149 -40l-113 -525q-25 -119 -56 -200t-78.5 -141.5t-116 -89t-161.5 -28.5q-95 0 -159 48t-64 122q0 56 32.5 89.5t82.5 33.5q48 0 78 -31.5t30 -78.5q0 -36 -22 -64t-56 -37v-4 q21 -6 58 -6q74 0 117.5 53.5t68.5 169.5l47 226q-131 -88 -272 -88q-156 0 -273.5 86t-176 224t-58.5 304z" />
<glyph unicode="H" horiz-adv-x="1732" d="M-128 -64q34 36 87 37q50 0 81.5 -33t31.5 -83q0 -71 -74 -101v-4q30 -6 57 -6q39 0 76.5 16.5t76 53t70.5 104.5t52 160l262 1243h-123q-148 0 -240.5 -78.5t-89.5 -157.5h4q49 36 87 36q2 -1 6 -1q40 -4 65 -33.5t25 -70.5q0 -44 -32.5 -76.5t-78.5 -32.5 q-60 0 -106 44.5t-46 133.5q0 151 109.5 236.5t327.5 85.5h499l-14 -61l-178 -41l-117 -551h621l86 409q24 112 69 194.5t102.5 128t117.5 66.5t124 21q108 -1 172 -49q63 -47 62 -113v-4q-1 -60 -35.5 -96.5t-87.5 -36.5q-50 0 -81.5 33.5t-31.5 83.5q0 70 74 100v4 q-30 6 -55 6q-73 0 -117.5 -50t-73.5 -189l-245 -1162l161 -41l-14 -61h-575l14 61l194 41l121 568h-620l-105 -502q-24 -116 -66.5 -205.5t-91 -143t-109 -87.5t-115.5 -46t-115 -12q-108 0 -172 48q-63 47 -62 114q0 62 36 100z" />
<glyph unicode="I" horiz-adv-x="854" d="M-39 1108q0 148 111 224.5t323 76.5h563l-14 -61l-201 -41l-254 -1205l185 -41l-15 -61h-604l15 61l200 41l258 1221h-127q-174 0 -269 -64t-101 -161h4q33 33 68.5 40.5t61 -5.5t42 -39t16.5 -56q0 -44 -32 -76t-78 -32q-60 0 -106 44.5t-46 133.5z" />
<glyph unicode="J" horiz-adv-x="1075" d="M78 -124q35 36 88 36q50 0 81.5 -33.5t31.5 -83.5q0 -70 -74 -100v-4q30 -6 57 -6q73 0 113.5 50.5t73.5 188.5l149 608q2 10 23 86h-314l21 87h317q84 278 197 450q-78 6 -141 30t-101.5 53t-70.5 57.5t-67 47.5t-73 19q-77 0 -119 -57l2 -7q27 8 51 8q38 0 67 -20 q48 -34 48 -94q0 -45 -32 -75t-82 -30q-53 0 -91 40t-38 98q0 101 70 166t184 65q73 0 132.5 -21t99.5 -53.5t72 -66t65 -64t63 -41.5q116 154 229 154q36 0 54 -19t18 -51q0 -33 -25.5 -59.5t-65.5 -43t-82 -26t-83 -12.5l-95 -448h261l-21 -87h-256l-117 -557 q-23 -107 -60 -188t-78.5 -129.5t-92 -78.5t-96 -41t-95.5 -11q-107 0 -171 49q-62 47 -62 113q0 63 35 101z" />
<glyph unicode="K" horiz-adv-x="1583" d="M-43 1087q0 152 117 237t338 85h581l-14 -61l-158 -41l-123 -580h160l488 580l-138 41l15 61h444l-14 -61l-152 -37l-510 -533l449 -911q62 -126 118 -177.5t140 -51.5q46 0 82 22t47 53l-4 4q-21 -6 -40 -6q-34 0 -60 20q-40 31 -40 85q0 40 30 67t75 27q48 0 82.5 -36 t34.5 -89q0 -105 -70.5 -170.5t-181.5 -65.5q-71 0 -132.5 23t-108.5 59.5t-95.5 101t-85.5 128t-86 159.5l-324 633h-139l-115 -551l142 -41l-15 -61h-555l15 61l194 41l258 1221h-188q-179 0 -281.5 -73.5t-109.5 -172.5h4q33 33 68.5 40.5t61 -5.5t42 -38.5t16.5 -55.5 q0 -44 -32 -76.5t-78 -32.5q-60 0 -106 44.5t-46 133.5z" />
<glyph unicode="L" horiz-adv-x="1161" d="M-129 27q0 45 34 75.5t79 42t98 11.5q59 0 129 -17l256 881q65 222 184.5 329t309.5 107q119 0 193.5 -54.5t74.5 -146.5q0 -60 -35 -97.5t-84 -37.5q-45 0 -79 32t-34 77q0 42 28.5 78.5t86.5 44.5v4q-54 26 -115 26q-69 0 -115 -23t-88 -87.5t-85 -184.5l-226 -634 q-74 -204 -194 -338q72 -27 146.5 -76t132 -97t112 -93t105.5 -73t94 -28q83 0 116 68l-2 4q-25 -7 -47 -7q-34 0 -60 18q-42 30 -42 85q0 40 28.5 66t73.5 26q55 0 88 -38t33 -93q0 -102 -70 -162.5t-198 -60.5q-83 0 -158 29t-134 79t-104 99t-95 108.5t-81 87.5 q-126 -106 -247 -106q-46 0 -77.5 20.5t-31.5 55.5z" />
<glyph unicode="M" horiz-adv-x="2666" d="M-119 231q0 161 105 262t262 101q120 0 189 -55t69 -154q0 -63 -35.5 -100t-89.5 -37q-49 0 -82 34.5t-33 82.5q0 42 32.5 78.5t102.5 39.5v6q-67 33 -145 33q-107 0 -173.5 -64.5t-66.5 -164.5q0 -129 82.5 -205t227.5 -76q202 0 364 152t363 530l336 629h-170 q-179 0 -282 -73.5t-110 -172.5h4q44 43 89.5 43t72.5 -30.5t27 -71.5q0 -44 -32.5 -76.5t-78.5 -32.5q-60 0 -105.5 44.5t-45.5 133.5q0 152 116.5 237t337.5 85h445l22 -1020l623 1020h461l-15 -61l-178 -41l-254 -1205l162 -41l-14 -61h-555l14 61l174 41l256 1231 l-784 -1292h-68l-47 1292l-324 -712q-191 -420 -378.5 -595.5t-448.5 -175.5q-187 0 -304.5 107t-117.5 274z" />
<glyph unicode="N" horiz-adv-x="2152" d="M-119 231q0 152 98 247t244 95q113 0 185.5 -59.5t72.5 -151.5q0 -64 -33.5 -97.5t-85.5 -33.5q-46 0 -79 32t-33 79q0 40 30 78t95 47v4q-57 35 -142 35q-97 0 -157 -66.5t-60 -163.5q0 -126 86 -198t217 -72q196 0 335.5 151t226.5 464l194 702h-186 q-148 0 -240.5 -78.5t-89.5 -157.5h4q49 36 87 36q2 -1 6 -1q40 -4 64.5 -33.5t24.5 -70.5q0 -44 -32 -76.5t-78 -32.5q-60 0 -106 44.5t-46 133.5q0 151 109.5 236.5t327.5 85.5h376l336 -752q61 -137 152 -319l106 647q22 133 49.5 227.5t61 157.5t78.5 99t95.5 50.5 t119.5 14.5q105 0 168 -54t63 -126q0 -53 -31.5 -87t-78.5 -34q-46 0 -75.5 30t-29.5 74q0 36 22 63.5t62 39.5v4q-35 18 -82 18q-66 0 -112.5 -34t-93 -134.5t-89.5 -281.5l-184 -768q64 -117 123.5 -209t110 -154.5t102 -107t92 -69.5t88 -39t82.5 -17.5t82 -3.5 q40 0 74.5 18.5t48.5 52.5l-4 4q-21 -6 -40 -6q-35 0 -63 20q-43 31 -43 85q0 40 30 67t75 27q48 0 82 -36t34 -89q0 -47 -16.5 -89.5t-50 -77.5t-92 -56t-135.5 -21q-89 0 -168.5 23t-174.5 87t-186.5 171t-198.5 283t-217 415l-348 754l-141 -676q-80 -382 -245 -566 t-431 -184q-177 0 -299.5 106t-122.5 275z" />
<glyph unicode="O" d="M86 598q0 158 63.5 310.5t167 265.5t242.5 182t283 69q123 0 225.5 -52.5t168.5 -141t102 -202t36 -236.5q0 -160 -64.5 -310t-170 -258.5t-245.5 -174.5t-286 -66q-121 0 -221.5 52t-165 138.5t-100 196t-35.5 227.5zM307 432q0 -356 303 -356q89 0 162.5 29.5t140.5 97 t119.5 187t89.5 288.5q35 153 35 280q0 195 -84.5 284t-232.5 89q-95 0 -167 -28.5t-134.5 -97.5t-110.5 -188.5t-86 -297.5q-35 -158 -35 -287z" />
<glyph unicode="P" horiz-adv-x="1394" d="M-43 1087q0 152 117 237t338 85h620q175 0 291.5 -106.5t116.5 -272.5q0 -85 -28.5 -160.5t-77 -131t-114 -97t-138 -62t-150.5 -20.5t-150 23l-106 34l-109 -514l183 -41l-15 -61h-596l15 61l194 41l260 1221h-190q-179 0 -281.5 -73.5t-109.5 -172.5h4q33 33 68.5 40.5 t61 -5.5t42 -38.5t16.5 -55.5q0 -44 -32 -76.5t-78 -32.5q-60 0 -106 44.5t-46 133.5zM688 676l148 -21q51 -7 93 -7q102 0 155 42q74 60 118 262q19 89 19 155q0 79 -27 127q-50 88 -193 89h-178z" />
<glyph unicode="Q" horiz-adv-x="1349" d="M-20 -205q0 31 6.5 54t29 45t46 36.5t78.5 36.5t103.5 38t143.5 46q149 48 254.5 103.5t187 134t133 183t82.5 245.5q29 130 30 235q1 6 1 13q0 96 -21 161q-21 70 -61.5 117t-92 67.5t-114.5 20.5q-175 0 -299.5 -130t-169.5 -349q-24 -123 -24 -207q0 -125 43.5 -181 t114.5 -56q76 0 136 48t89 118t29 145q0 123 -31 162h-4q-6 -121 -109 -121q-42 0 -68 28t-26 70q0 47 38 80t113 33q94 0 164 -70.5t70 -208.5q0 -56 -29 -120.5t-79.5 -123t-130.5 -97t-171 -38.5q-39 0 -81.5 14t-87 46t-80 78t-58 117.5t-22.5 156.5q0 146 59.5 278 t155 223t217 145t243.5 54q152 0 267 -80.5t175 -218.5t60 -311q0 -269 -165 -469.5t-453 -290.5q-79 -25 -149.5 -43t-155 -37.5t-111.5 -25.5q54 4 106 4q69 0 132 -7q110 -14 187.5 -42.5t144.5 -65.5t123 -75.5t109.5 -71t117.5 -53.5t133 -21q52 0 89 20t52 56l-4 4 q-21 -6 -41 -6q-35 0 -63 21q-44 31 -44 85q0 42 30 69.5t77 27.5q48 0 83.5 -36.5t35.5 -90.5q0 -48 -20.5 -90.5t-61.5 -77.5t-109.5 -55.5t-156.5 -20.5q-126 0 -241 37.5t-204.5 90.5t-177.5 106t-197 90.5t-227 37.5q-46 0 -78 -24v-2q49 -1 75 -25.5t26 -64.5 q0 -31 -23.5 -53.5t-56.5 -22.5q-36 0 -64 27t-28 75z" />
<glyph unicode="R" horiz-adv-x="1560" d="M-43 1087q0 152 117 237t338 85h592q169 0 288 -97.5t119 -248.5q0 -356 -457 -393v-6q179 -25 254 -179q33 -66 59.5 -185.5t50 -257t36.5 -189.5q28 -114 64.5 -164.5t115.5 -50.5q39 0 72.5 17t50.5 46l-4 4q-21 -6 -41 -6q-35 -1 -62 19q-43 30 -43 85q0 40 30 67.5 t75 27.5q50 0 87.5 -38t37.5 -98q0 -103 -70 -161t-178 -58q-116 0 -193 49t-125 148q-35 72 -62.5 189t-51.5 254t-39 196q-22 89 -40 136t-47 76t-63.5 36.5t-97.5 7.5h-90l-113 -533l183 -41l-15 -61h-596l15 61l194 41l258 1221h-188q-179 0 -281.5 -73.5t-109.5 -172.5 h4q33 33 68.5 40.5t61 -5.5t42 -38.5t16.5 -55.5q0 -44 -32 -76.5t-78 -32.5q-60 0 -106 44.5t-46 133.5zM698 721h138q160 0 233.5 53t106.5 207q16 72 16 130q0 71 -24 121q-43 90 -177 91h-166z" />
<glyph unicode="S" horiz-adv-x="1241" d="M-139 139q0 175 119 294.5t309 119.5q120 0 208.5 -74t88.5 -192q0 -89 -56.5 -144t-132.5 -55q-56 0 -93.5 33t-37.5 78q0 41 29 70.5t72 29.5q41 0 70.5 -24t35.5 -76h4q12 37 12 90q0 85 -56.5 142.5t-143.5 57.5q-115 0 -184.5 -86t-69.5 -215q0 -87 29 -161t85 -131 t146.5 -89t206.5 -32q179 0 294 109.5t115 265.5q0 56 -11 103.5t-28 84.5t-53.5 82t-70 80t-95.5 94q-6 6 -41 39t-43.5 41.5t-39 39.5t-40 43.5t-33.5 42.5t-32.5 48t-24 48t-21.5 54.5t-11 55.5t-5 63q0 154 107 255t272 101q96 0 157.5 -28t123.5 -82l61 94h50l28 -424 l-47 -8q-103 205 -186 282.5t-193 77.5q-97 0 -147.5 -54t-50.5 -138q0 -44 10.5 -83t25.5 -69.5t47.5 -68t62 -65.5t83.5 -77q44 -40 54 -49t52 -48.5t55.5 -55.5t47.5 -55t47.5 -62.5t36.5 -63t32 -71.5t17 -72.5t8 -81.5q0 -80 -25.5 -157.5t-79 -148t-128.5 -124.5 t-181.5 -85.5t-230.5 -31.5q-118 0 -219 26.5t-171.5 71t-121 104t-74.5 126t-24 135.5z" />
<glyph unicode="T" horiz-adv-x="1263" d="M121 1157q0 131 101 208t267 77q118 0 388 -53.5t389 -53.5q84 -1 126 35q39 33 38 85v7h-5q-21 -49 -79 -49q-33 0 -57.5 23.5t-24.5 54.5q0 36 27.5 63t66.5 27q51 0 93 -40t42 -120q0 -119 -79.5 -194.5t-229.5 -75.5q-101 0 -264 49l-232 -1098l203 -41l-12 -61h-641 l12 61l219 41l244 1170q-192 67 -295 67q-120 0 -176 -70q-46 -57 -45 -133q0 -18 2 -36h4q13 36 39 56t59 20q45 0 75 -28.5t30 -78.5q0 -51 -35 -79.5t-86 -28.5q-79 0 -121.5 57t-42.5 139z" />
<glyph unicode="U" horiz-adv-x="1562" d="M-43 1087q0 152 117 237t338 85h516l-15 -61l-157 -41l-170 -805q-18 -88 -19 -159q1 -96 35 -159q58 -110 242 -110q178 0 273 86.5t124 275.5l96 613q43 274 129 389.5t250 115.5q98 0 156.5 -54t58.5 -126q0 -53 -31.5 -87t-78.5 -34q-46 0 -75.5 30.5t-29.5 74.5 q0 36 21.5 63t62.5 39v4q-37 19 -82 19q-89 0 -151.5 -105.5t-116.5 -365.5l-123 -592q-48 -228 -177 -332t-345 -104q-255 0 -371 146q-81 101 -81 248q0 65 16 138l172 807h-123q-179 0 -281.5 -73.5t-109.5 -172.5h4q33 33 68.5 40.5t61 -5.5t42 -38.5t16.5 -55.5 q0 -44 -32 -76.5t-78 -32.5q-60 0 -106 44.5t-46 133.5z" />
<glyph unicode="V" d="M-43 1087q0 152 117 237t338 85h422l26 -41q-180 -286 -264 -520q-84 -231 -84 -444v-5q0 -157 43.5 -235t136.5 -78q86 0 174.5 51.5t165.5 147t137.5 221t95.5 285t35 327.5q0 135 -41 187t-126 57v-4q29 -13 45 -38.5t16 -53.5q0 -42 -29 -70.5t-73 -28.5t-75.5 31 t-31.5 80q0 62 51.5 105.5t139.5 43.5q58 0 107.5 -22t91 -67t65.5 -124t24 -184q0 -97 -31 -212.5t-85.5 -231.5t-135.5 -224.5t-175.5 -192.5t-212 -134.5t-238.5 -50.5q-162 0 -246 117t-84 309q0 422 455 831h-293q-196 0 -290.5 -37.5t-100.5 -126.5h4q33 33 68.5 40.5 t61 -5.5t42 -38.5t16.5 -55.5q0 -44 -32 -76.5t-78 -32.5q-60 0 -106 44.5t-46 133.5z" />
<glyph unicode="W" horiz-adv-x="1779" d="M-43 1087q0 152 117 237t338 85h422l26 -41q-180 -286 -264 -520q-84 -231 -84 -444v-5q0 -160 37 -226.5t137 -66.5q96 0 188 60q-47 109 -47 240q0 136 22.5 254t58 198.5t80 139t89 85.5t84.5 27q61 0 96 -61.5t35 -165.5q0 -142 -68 -320t-182 -319q40 -138 156 -138 q136 0 236 122t152 341.5t52 511.5q0 138 -43 207t-116 74v-4q29 -13 45 -38.5t16 -53.5q0 -42 -29 -70.5t-73 -28.5t-75.5 31t-31.5 80q0 62 51.5 105.5t139.5 43.5q53 0 100 -22t87 -67t63.5 -125.5t23.5 -186.5q0 -168 -52 -351t-139 -337t-215 -254t-266 -100 q-136 0 -217 122q-151 -122 -323 -122q-163 0 -245.5 116.5t-82.5 309.5q0 422 455 831h-293q-196 0 -290.5 -37.5t-100.5 -126.5h4q33 33 68.5 40.5t61 -5.5t42 -38.5t16.5 -55.5q0 -44 -32 -76.5t-78 -32.5q-60 0 -106 44.5t-46 133.5zM1022 436q0 -60 6 -110 q70 109 110 247t40 265q0 98 -9 128.5t-34 30.5q-52 1 -83 -147q-30 -143 -30 -397v-17z" />
<glyph unicode="X" horiz-adv-x="1871" d="M-119 233q0 178 108 283t273 105q46 0 91 -10.5t84.5 -32t64 -59.5t24.5 -87q0 -56 -30.5 -89.5t-73.5 -33.5q-46 0 -75.5 26.5t-29.5 67.5q-1 49 33 80q28 26 71 26q8 0 17 -1v4q-40 21 -69.5 27t-85.5 6q-119 0 -187.5 -74.5t-68.5 -202.5q0 -116 76.5 -192t215.5 -76 q72 0 131 18t111 56.5t92 81.5t92 110l357 461l-250 596h-57q-162 0 -255 -75.5t-98 -170.5h4q44 43 89.5 43t72.5 -30.5t27 -71.5q0 -44 -32.5 -76.5t-78.5 -32.5q-60 0 -105.5 44.5t-45.5 133.5q0 149 108.5 235.5t306.5 86.5h504l-14 -61l-180 -41l198 -506l224 336 q156 235 262.5 326t242.5 91q105 0 168.5 -54t63.5 -126q0 -53 -32 -87t-79 -34q-46 0 -75 30.5t-29 74.5q0 36 21.5 63t62.5 39v4q-37 19 -82 19q-78 0 -158 -66t-221 -246l-342 -434l264 -635l131 -41l-14 -61h-545l15 61l174 41l-218 553l-278 -448q-114 -185 -244 -275 t-305 -90q-180 0 -301 113.5t-121 277.5z" />
<glyph unicode="Y" horiz-adv-x="1337" d="M115 1098q0 59 20 116t57.5 105t99 77t136.5 29q164 0 258 -137t94 -409q0 -37 -4 -119q48 133 105.5 248t125.5 211t145.5 151t154.5 55q73 0 115 -44.5t42 -118.5q0 -61 -37.5 -102.5t-89.5 -41.5q-46 0 -77 25.5t-31 68.5q0 39 23.5 66t70.5 33v4q-17 10 -51.5 4.5 t-67.5 -27.5q-130 -86 -268 -341.5t-195 -532.5l-65 -316l182 -41l-14 -61h-600l14 61l199 41l51 236q76 350 76 575q0 207 -56.5 305.5t-144.5 98.5q-94 0 -141 -63.5t-47 -166.5q0 -80 20 -122h4q19 114 121 114q45 0 74.5 -32.5t29.5 -79.5q0 -52 -35.5 -88.5 t-95.5 -36.5q-87 0 -142.5 70.5t-55.5 185.5z" />
<glyph unicode="Z" horiz-adv-x="1208" d="M-106 45q0 113 194 113q60 0 107 -8l356 440h-232l21 86h281l264 325q95 115 123 148q-82 4 -158 23.5t-131 44t-104 48.5t-94 40t-83 16q-77 0 -119 -57l3 -7q27 8 51 8q38 -1 67 -21q47 -34 47 -93q0 -45 -32 -74.5t-82 -29.5q-59 0 -98 39.5t-39 97.5q0 118 88.5 183 t222.5 65q87 0 171 -26t137 -58t117 -71t101 -54q73 76 126 108.5t104 32.5q69 0 69 -68q0 -49 -71.5 -91t-167.5 -54l-388 -475h256l-20 -86h-305l-131 -160q-162 -200 -260 -301q88 -25 178 -73.5t160 -98.5t134.5 -97.5t122 -77.5t101.5 -30q78 0 121 62v6q-25 -7 -47 -7 q-35 0 -61 18q-42 30 -42 85q0 40 29 66t74 26q49 0 85 -35t36 -90q0 -102 -78.5 -165.5t-227.5 -63.5q-83 0 -155.5 23.5t-124 60t-102.5 84.5t-88.5 92.5t-85 89.5t-89.5 70q-123 -109 -223 -109q-46 0 -77 21.5t-31 58.5z" />
<glyph unicode="[" horiz-adv-x="768" d="M6 -270l377 1771h477l-14 -61l-279 -33l-336 -1583l265 -33l-13 -61h-477z" />
<glyph unicode="\" horiz-adv-x="749" d="M227 1501h111l201 -1771h-111z" />
<glyph unicode="]" horiz-adv-x="768" d="M-76 -270l15 61l278 33l336 1583l-264 33l12 61h477l-377 -1771h-477z" />
<glyph unicode="^" horiz-adv-x="901" d="M135 879q122 102 209 199t123 157t61 107t45 66t54 17q29 -2 42.5 -22t15.5 -53.5t11 -88.5t23.5 -116.5t58.5 -148t111 -173.5l-49 -43l-275 330l-395 -285z" />
<glyph unicode="_" horiz-adv-x="716" d="M-190 -274l20 102h737l-20 -102h-737z" />
<glyph unicode="`" horiz-adv-x="1024" d="M350 1356q0 29 19 59q23 41 80 41q59 0 110 -59l156 -185l90 -59l-37 -59l-92 59l-225 86q-101 41 -101 117z" />
<glyph unicode="a" horiz-adv-x="1038" d="M27 174q0 125 52 273t132 269.5t184 203t199 81.5q94 0 151 -83l21 71h197l-228 -844l213 230l25 -25q-241 -366 -348 -366q-45 0 -65 42q-12 25 -12 62q0 25 5 55l14 80l140 346l-5 2q-155 -290 -278.5 -438.5t-243.5 -148.5q-72 0 -112.5 49t-40.5 141zM238 201 q0 -68 41 -68q123 0 370 426l72 268q-22 47 -51.5 70t-79.5 23q-201 0 -326 -545q-26 -118 -26 -174z" />
<glyph unicode="b" horiz-adv-x="976" d="M41 244q0 31 10 73l260 969l-147 62l8 26l348 127h41l-196 -739l-142 -346l4 -2q310 587 533 587q65 0 108 -56.5t43 -156.5q0 -157 -52.5 -306.5t-136.5 -257.5t-193.5 -174t-219.5 -66q-114 0 -191 76t-77 184zM221 213q11 -69 51.5 -107t106.5 -38q35 0 66.5 12.5 t66 47t64.5 90t59.5 147.5t52.5 213q27 144 27 200q0 43 -11.5 58.5t-33.5 15.5q-25 0 -58.5 -18t-81.5 -61t-113 -132t-138 -215z" />
<glyph unicode="c" horiz-adv-x="823" d="M27 254q0 70 20 152.5t55 165.5t88 160.5t114.5 137t138.5 95.5t157 36q99 0 163 -45.5t64 -134.5q0 -60 -34.5 -100.5t-85.5 -40.5q-47 0 -79 31t-32 77q0 43 26.5 72.5t73.5 38.5v4q-35 17 -90 17q-43 0 -84.5 -18t-86.5 -60.5t-86.5 -126t-72.5 -201.5 q-43 -171 -43 -260q0 -81 30.5 -115.5t94.5 -34.5q70 0 144 60.5t170 191.5l33 -16q-186 -356 -429 -356q-119 0 -184 74t-65 196z" />
<glyph unicode="d" horiz-adv-x="1058" d="M27 184q0 133 56.5 281t142 265t195 194t208.5 77q44 0 84 -21t61 -58l98 364l-147 62l8 26l348 127h41l-360 -1356l213 230l24 -25q-241 -366 -348 -366q-46 0 -65 42q-11 25 -11 61q0 25 5 56l14 80l139 346l-4 2q-74 -138 -138.5 -240t-133 -183t-135.5 -122.5 t-132 -41.5q-80 0 -121.5 55t-41.5 145zM233 221q0 -88 56 -88q64 0 155 91.5t232 334.5l74 275q-26 86 -125 86q-114 0 -207 -123t-156 -391q-29 -132 -29 -185z" />
<glyph unicode="e" horiz-adv-x="823" d="M29 252q0 107 44 236.5t116 244t177.5 191.5t215.5 77q100 0 166.5 -49t66.5 -135q0 -109 -150.5 -201t-396.5 -137q-32 -131 -32 -223q0 -82 32 -117t97 -35q70 0 136 54.5t173 197.5l33 -16q-45 -82 -88 -143t-95.5 -111t-114 -76t-130.5 -26q-119 0 -184.5 74 t-65.5 194zM281 528q105 30 178 67t112 80t55.5 86t16.5 95q0 70 -61 70q-81 0 -161.5 -91t-139.5 -307z" />
<glyph unicode="f" horiz-adv-x="587" d="M-311 -236q0 52 31.5 82.5t70.5 30.5q36 0 62 -25t26 -59q0 -41 -28.5 -67t-73.5 -29v-4q23 -10 71 -10q120 0 148 127l246 1060h-164l8 37l176 51l45 199q22 95 60 168t81 116.5t94.5 71t95.5 37t89 9.5q110 0 167.5 -54.5t57.5 -128.5q0 -56 -30.5 -96.5t-81.5 -40.5 q-54 0 -83.5 32t-29.5 75q0 41 30.5 73t80.5 33v4q-18 21 -84 21q-89 0 -141 -49t-81 -164l-75 -295h202l-22 -99h-205l-244 -966q-72 -291 -303 -291q-93 0 -144.5 41.5t-51.5 109.5z" />
<glyph unicode="g" horiz-adv-x="946" d="M-123 -166q0 35 18 66t47.5 55.5t73 47.5t87.5 39.5t98 33.5q-110 43 -146.5 85t-36.5 97q0 58 61 98.5t154 63.5q-90 81 -90 207q0 148 120 261t278 113q62 0 118 -21.5t88.5 -46.5t68.5 -45q35 -20 62 -20h3v4q-29 23 -29 64q0 32 24 57t66 25t68 -29.5t26 -70.5 q0 -57 -35.5 -89t-89.5 -32q-78 0 -141 63l-2 -2q49 -69 49 -137q0 -94 -54 -179t-146 -137.5t-195 -52.5q-92 0 -156 43q-57 -26 -76.5 -45t-19.5 -47q0 -17 5.5 -27t29 -24.5t79 -28.5t146.5 -30q210 -37 292.5 -108.5t82.5 -180.5q0 -76 -37.5 -133.5t-102.5 -91 t-144.5 -50t-172.5 -16.5q-215 0 -343 56t-128 165zM57 -170q0 -135 275 -135q158 0 233.5 40t75.5 107q0 58 -48.5 96t-178.5 72q-106 27 -160 47q-116 -55 -156.5 -107t-40.5 -120zM326 524q0 -56 24 -80t72 -24q29 0 47 3.5t37.5 16.5t34.5 39t31 69t34 109 q31 118 31 174t-24 79.5t-72 23.5q-36 0 -57.5 -6.5t-44.5 -30t-42 -71t-41 -128.5q-30 -114 -30 -174z" />
<glyph unicode="h" horiz-adv-x="1015" d="M4 0l344 1286l-147 62l8 26l348 127h41l-197 -739l-141 -346l4 -2q310 587 533 587q67 0 108 -58.5t41 -170.5q0 -98 -33 -219q-74 -273 -192 -421t-242 -148q-53 0 -86 28.5t-33 73.5q0 43 27 70.5t66 27.5q52 0 79.5 -27.5t28.5 -90.5l4 -3q20 13 29.5 24.5t29.5 58.5 t44 152.5t57 279.5q27 144 27 200q0 43 -11.5 58.5t-33.5 15.5q-25 0 -58.5 -18t-81.5 -61t-113.5 -132t-138.5 -215l-114 -426h-197z" />
<glyph unicode="i" horiz-adv-x="587" d="M39 635q241 366 362 366q36 0 61 -23.5t25 -72.5q0 -21 -10 -63l-201 -690l201 192l25 -25q-108 -148 -169.5 -220.5t-94 -93.5t-68.5 -21q-46 0 -68 17.5t-22 59.5q0 32 12 82l184 697l-210 -230zM340 1313q0 54 39 94.5t90 40.5t90 -40.5t39 -94.5t-40 -94.5t-91 -40.5 t-89 40.5t-38 94.5z" />
<glyph unicode="j" horiz-adv-x="550" d="M-274 -219q0 55 32.5 87t73.5 32q38 0 65 -27t27 -63q0 -44 -26.5 -70t-71.5 -29v-4q24 -24 59 -24q55 0 86 27.5t49 99.5l256 1030l-210 -230l-27 25q241 366 362 366q36 0 63.5 -25.5t27.5 -74.5q0 -17 -11 -59l-266 -938q-44 -154 -120 -222.5t-181 -68.5 q-90 0 -139 47.5t-49 120.5zM340 1313q0 54 39 94.5t90 40.5t90 -40.5t39 -94.5t-40 -94.5t-91 -40.5t-89 40.5t-38 94.5z" />
<glyph unicode="k" horiz-adv-x="976" d="M4 0l344 1286l-147 62l8 26l348 127h41l-252 -952q62 6 110 34.5t78 69t54.5 87.5t47.5 93t49 83.5t66 61t93 23.5q58 0 92.5 -35.5t34.5 -82.5q0 -49 -31.5 -80t-71.5 -31q-53 0 -80 35q-23 30 -23 78q0 9 1 18l-4 2q-29 -22 -57 -76t-49.5 -105.5t-67 -106.5 t-107.5 -82q44 -4 76 -16t60 -39t45.5 -70.5t27.5 -111.5t10 -161q0 -118 8 -199.5t22 -130.5t38.5 -76t51.5 -35.5t67 -8.5q28 0 54.5 17t37.5 40l-4 4q-18 -4 -35 -4q-36 0 -62 19q-40 28 -40 77q0 37 27.5 62.5t68.5 25.5q45 0 76.5 -33t31.5 -83q0 -88 -55 -142.5 t-153 -54.5q-75 0 -140 37.5t-102 103.5q-39 70 -57 172.5t-18.5 188.5t-2 176t-10.5 129q-8 39 -36 57q-25 16 -56 16h-7q-35 -2 -75 -8l-129 -487h-197z" />
<glyph unicode="l" horiz-adv-x="542" d="M55 61q0 28 13 82l297 1143l-148 62l8 26l355 127h41l-365 -1349l201 192l24 -25q-107 -147 -170 -220t-96.5 -94t-69.5 -21q-46 0 -68 17.5t-22 59.5z" />
<glyph unicode="m" horiz-adv-x="1546" d="M29 635q241 366 350 366q47 0 67 -42q11 -24 11 -59q0 -26 -6 -58l-17 -80l-137 -346l4 -2q62 116 107 196t98 159.5t97.5 126.5t93.5 76t96 29q137 0 137 -157q0 -41 -8 -82l-121 -313l4 -3q47 84 73.5 130t68 114.5t68.5 106t64 82.5t67 67.5t65 38.5t69 16 q67 0 104 -40.5t37 -124.5q0 -62 -28 -168l-156 -539l219 215l25 -25q-107 -147 -170 -220t-96.5 -94t-69.5 -21q-46 0 -68 17t-22 60q0 32 12 82l143 580q17 62 17 92q-1 5 -1 9q-4 28 -36.5 28t-71 -31t-109.5 -128.5t-169 -266.5l-115 -426h-186l184 723q17 61 17 90 q0 6 -1 11q-4 28 -37 28t-71.5 -31t-109.5 -128.5t-169 -266.5l-114 -426h-197l225 840l-211 -230z" />
<glyph unicode="n" horiz-adv-x="1079" d="M29 635q241 366 350 366q47 0 67 -42q11 -24 11 -59q0 -26 -6 -58l-17 -80l-137 -346l4 -2q152 287 275 437t237 150q67 0 104 -40.5t37 -124.5q0 -62 -28 -168l-156 -539l219 215l25 -25q-107 -147 -170 -220t-96.5 -94t-69.5 -21q-46 0 -68 17t-22 60q0 32 12 82 l143 580q17 62 17 92v9q-4 28 -37 28q-124 0 -371 -426l-114 -426h-197l225 840l-211 -230z" />
<glyph unicode="o" horiz-adv-x="952" d="M29 322q0 100 31.5 201.5t85.5 186t122.5 150.5t147.5 103.5t155 37.5q145 0 230.5 -94.5t85.5 -242.5q0 -125 -49 -250t-125.5 -218.5t-175 -152.5t-193.5 -59q-145 0 -230 95t-85 243zM215 195q0 -75 31 -105.5t96 -30.5q71 0 118 34t92.5 131t96.5 284q51 185 51 283 q0 75 -31 105t-96 30q-71 0 -118 -34t-92.5 -131t-96.5 -284q-51 -185 -51 -282z" />
<glyph unicode="p" horiz-adv-x="1017" d="M-211 -369l18 72h152l291 1081q-83 -66 -197 -174l-26 25q140 170 249 250l82 301h181l-52 -199q68 14 121 14q166 0 258 -103q85 -94 85 -241q0 -13 -1 -26q-9 -189 -108.5 -338.5t-261.5 -227.5q-144 -70 -310 -70q-20 0 -39 1l-73 -293h176l-19 -72h-526zM248 59 q78 8 131 20t107 38.5t91.5 69.5t71.5 112t60 166q41 158 41 254q0 99 -44 145.5t-137 46.5q-55 0 -104 -12z" />
<glyph unicode="q" horiz-adv-x="987" d="M27 184q0 133 56.5 281t142 265t195 194t208.5 77q44 0 83 -20.5t60 -56.5l19 65h180l-318 -1286h156l-18 -72h-527l19 72h172l139 520l139 346l-4 2q-74 -138 -138.5 -240t-133 -183t-135.5 -122.5t-132 -41.5q-80 0 -121.5 55t-41.5 145zM233 221q0 -88 56 -88 q64 0 155 91.5t232 334.5l74 275q-26 86 -125 86q-114 0 -207 -123t-156 -391q-29 -132 -29 -185z" />
<glyph unicode="r" horiz-adv-x="829" d="M29 635q241 366 350 366q47 0 67 -42q11 -24 11 -59q0 -26 -6 -58l-17 -80l-164 -416l4 -2q62 130 106 217.5t88 166.5t77.5 125.5t69.5 81t69.5 48.5t71.5 14q65 0 104 -39t39 -100q0 -59 -36.5 -99t-88.5 -40t-81 32t-29 74q0 35 18 56l-2 4q-56 -24 -152.5 -170.5 t-189.5 -341.5l-100 -373h-197l225 840l-211 -230z" />
<glyph unicode="s" horiz-adv-x="737" d="M-41 221q0 61 33 100t86 39q46 0 77 -30t31 -76q0 -45 -29 -75.5t-85 -37.5v-4q59 -67 184 -67q176 0 176 153q0 45 -31.5 90.5t-76 87t-89.5 87t-76.5 108t-31.5 131.5q0 123 86 198.5t223 75.5q112 0 191.5 -60t79.5 -159q0 -51 -33.5 -85.5t-81.5 -34.5 q-43 0 -73 30.5t-30 73.5q0 41 25.5 70t73.5 38v5q-14 14 -54 27.5t-90 13.5q-79 0 -118 -34t-39 -95q0 -49 33.5 -99t81 -93.5t95.5 -90t81.5 -106t33.5 -123.5q0 -139 -91 -217t-242 -78q-143 0 -231.5 71.5t-88.5 165.5z" />
<glyph unicode="t" horiz-adv-x="614" d="M59 74q0 32 17 102l174 694h-164l8 37l178 54l74 284h197l-76 -276h221l-26 -99h-222l-209 -774l263 250l24 -24q-170 -220 -235 -279t-140 -59q-84 0 -84 90z" />
<glyph unicode="u" horiz-adv-x="1069" d="M29 635q241 366 350 366q80 0 80 -92q0 -49 -19 -116l-143 -531q-14 -61 -14 -80q0 -27 11.5 -38t35.5 -11q52 0 135.5 91.5t224.5 334.5l107 410h196l-233 -840l219 215l25 -25q-107 -147 -170 -220t-96.5 -94t-69.5 -21q-46 0 -68 18t-22 61q0 30 12 80l18 80l140 346 l-5 2q-77 -144 -135.5 -240.5t-122.5 -181t-124 -125t-119 -40.5q-67 0 -104.5 41.5t-37.5 126.5q0 66 27 165l139 523l-211 -230z" />
<glyph unicode="v" horiz-adv-x="1015" d="M39 733q0 88 79 162t193 74h281l14 -25q-163 -245 -219.5 -382.5t-56.5 -291.5q0 -66 26.5 -106.5t81.5 -40.5q118 0 225 111.5t165 271.5q50 140 50 269q0 18 -1 36h-5q-21 -7 -40 -7q-31 0 -56 20q-39 32 -39 77q0 44 31.5 72t71.5 28q61 0 97 -48t36 -134 q0 -210 -93 -405t-240 -312.5t-300 -117.5q-60 0 -103 18.5t-67 52.5t-34.5 74t-10.5 90q0 244 362 606h-233q-79 0 -121.5 -31t-56.5 -96l4 -2q34 54 80 54q31 0 50 -21t19 -53q0 -29 -25.5 -53.5t-60.5 -24.5q-48 0 -76 35.5t-28 99.5z" />
<glyph unicode="w" horiz-adv-x="1359" d="M39 733q0 88 79 162t193 74h281l14 -25q-163 -245 -219.5 -382.5t-56.5 -291.5q0 -66 24 -106.5t72 -40.5q63 0 119.5 42t98 113t71 155t47.5 177q-41 61 -41 133q0 50 29.5 84.5t68.5 34.5t62.5 -31t23.5 -83q0 -41 -23.5 -87t-54.5 -77q-27 -125 -73 -222v-12 q0 -207 106 -207q69 0 137 63t116.5 159.5t76.5 216.5q23 99 23 190q0 20 -1 39h-4q-21 -7 -40 -7q-31 0 -56 20q-39 32 -39 77q0 44 31.5 72t71.5 28q61 0 97 -48.5t36 -137.5q0 -147 -47.5 -298.5t-122.5 -268t-173 -190.5t-192 -74q-154 0 -190 133q-140 -133 -267 -133 q-101 0 -146.5 65.5t-45.5 169.5q0 244 362 606h-233q-79 0 -121.5 -31t-56.5 -96l4 -2q34 54 80 54q31 0 50 -21t19 -53q0 -29 -25.5 -53.5t-60.5 -24.5q-48 0 -76 35.5t-28 99.5z" />
<glyph unicode="x" horiz-adv-x="968" d="M-72 104q0 50 32 83.5t77 33.5q44 0 69 -28.5t25 -69.5q0 -23 -10 -43l2 -2q52 29 117.5 148t132.5 302q-20 181 -32.5 241t-29.5 60q-13 0 -68 -54.5t-104 -109.5l-49 -55l-27 25q141 206 221 286t132 80q47 0 71 -48t37 -173l8 -71l-8 -174h4q85 239 169 352.5 t184 113.5q56 0 90.5 -36t34.5 -88q0 -49 -33 -82t-78 -33q-49 0 -73.5 25.5t-24.5 62.5q0 28 12 43l-4 6q-36 -17 -110 -135t-126 -270q27 -357 58 -357q16 0 69 49.5t98 98.5l44 49l26 -23q-135 -200 -196 -263.5t-123 -63.5q-56 0 -85 57t-44 211l-6 61l6 176h-4 q-36 -114 -73 -201.5t-81 -158t-96 -108t-109 -37.5q-59 0 -92 33t-33 87z" />
<glyph unicode="y" horiz-adv-x="970" d="M-348 -219q0 64 38.5 99.5t86.5 35.5q44 0 76 -32t32 -74q0 -51 -32 -78.5t-82 -32.5v-4q21 -12 79 -12q123 0 231 35.5t220 117.5q23 152 23 379q0 208 -14.5 378t-35.5 249l-217 -232l-26 25q141 218 209 292t129 74q49 0 76 -45.5t43 -191.5t16 -422q0 -205 -25 -346 q162 174 257 394q91 210 91 390v19h-4q-28 -10 -51 -10q-32 0 -55 19q-39 33 -39 89q0 47 30.5 75.5t77.5 28.5q64 0 102 -48.5t38 -145.5q0 -146 -61.5 -322t-182.5 -354.5t-276 -302.5q-134 -109 -264 -162t-273 -53q-103 0 -160 44t-57 124z" />
<glyph unicode="z" horiz-adv-x="784" d="M-80 27q0 25 14 46t41 50l512 551l121 94l-2 2q-50 -37 -112 -37q-44 0 -78.5 17.5t-57 42t-43 49t-45.5 42t-55 17.5q-50 0 -78 -35l2 -4h4q53 0 83 -27q32 -28 32 -69t-26 -67.5t-66 -26.5q-42 0 -71 31.5t-29 76.5q0 84 69.5 146.5t157.5 62.5q47 0 89.5 -15.5 t69.5 -34.5t66.5 -34.5t81.5 -15.5q53 0 94 18v10q0 28 14 54q16 30 50 30q21 0 32 -14.5t11 -34.5q0 -33 -49 -86l-553 -594v-4q64 -8 115.5 -32.5t86.5 -60t63 -79.5t48.5 -90.5t40 -92.5t40 -87t45.5 -72.5t61 -50t81 -18.5q40 0 66.5 18.5t34.5 44.5l-4 2q-23 -7 -43 -7 q-31 0 -54 17q-37 28 -37 80q0 37 27.5 61.5t69.5 24.5q44 0 76 -32.5t32 -81.5q0 -82 -50 -136.5t-150 -54.5q-66 0 -124.5 27.5t-102.5 71.5t-85 97.5t-79 107t-77 97.5t-87 71.5t-101 27.5q-44 0 -74 -21q21 -30 21 -62q-1 -12 -3 -24q-10 -45 -61 -45q-23 0 -39 18.5 t-16 39.5z" />
<glyph unicode="{" horiz-adv-x="774" d="M63 578l13 61l131 8q99 6 131.5 45t32.5 121q0 49 -14.5 194.5t-14.5 194.5q0 67 11 114t39 81t64.5 54t100.5 31.5t133.5 15t175.5 3.5l-14 -61q-127 -14 -187 -31.5t-80 -43t-22 -77.5l-18 -469q-3 -93 -50 -143t-161 -76v-6q131 -36 131 -148q0 -47 -29 -116 l-151 -350q-17 -39 -17 -62q0 -43 53 -74t181 -53l-13 -61q-217 11 -318 64.5t-101 164.5q0 55 36 131t79.5 139.5t79.5 134.5t36 117q0 41 -27.5 62.5t-93.5 25.5z" />
<glyph unicode="|" horiz-adv-x="473" d="M190 -270v1771h109v-1771h-109z" />
<glyph unicode="}" horiz-adv-x="778" d="M-76 -270l15 61q129 14 189 31.5t78.5 43t20.5 77.5l19 454q3 94 50 143.5t159 75.5v7q-127 36 -127 147q0 55 26 117l152 364q14 32 14 62q0 44 -51 74.5t-180 52.5l12 61q217 -11 318.5 -64.5t101.5 -164.5q0 -55 -36.5 -133.5t-79.5 -144.5t-79.5 -139.5t-36.5 -119.5 q0 -42 27.5 -63t93.5 -25l117 -8l-12 -61l-131 -9q-98 -6 -131 -45t-33 -121q0 -49 14.5 -187t14.5 -187q0 -57 -9 -99.5t-26 -75t-49 -54t-69.5 -36t-97 -21.5t-122 -10t-152.5 -3z" />
<glyph unicode="~" horiz-adv-x="970" d="M55 528q92 147 168.5 214t161.5 67q78 0 170 -51l117 -64q25 -14 41 -17.5t36.5 7t36.5 25t52 51.5l61 63l49 -32q-93 -148 -167.5 -214.5t-159.5 -66.5q-75 0 -172 51l-103 53q-44 21 -63 21q-44 0 -117 -76l-62 -63z" />
<glyph unicode="&#xa1;" horiz-adv-x="591" d="M-12 -307q0 60 28 137l183 481l55 260h88l-59 -278l-29 -518q-6 -112 -48 -163.5t-102 -51.5q-50 0 -83 33.5t-33 99.5zM213 858q0 57 44 100t101 43t101.5 -43t44.5 -100t-44.5 -101t-101.5 -44t-101 44t-44 101z" />
<glyph unicode="&#xa2;" horiz-adv-x="870" d="M-23 -223l160 254q-55 39 -84.5 106t-29.5 148q0 117 45 238.5t122 220.5t190 162t238 63q43 0 101 -15l151 244h93l-179 -283q54 -50 54 -124q0 -58 -33 -97t-84 -39q-48 0 -82 31l-363 -575q33 -17 84 -17q154 0 336 211l31 -22q-97 -148 -200.5 -222.5t-239.5 -74.5 q-30 0 -80 12l-139 -221h-91zM217 254q0 -45 10 -78l394 627q33 54 75 67v4q-35 13 -80 13q-51 0 -97.5 -16.5t-96.5 -56.5t-92.5 -119t-71.5 -191q-41 -154 -41 -250z" />
<glyph unicode="&#xa3;" horiz-adv-x="1171" d="M-2 147q0 74 52.5 124.5t144.5 50.5q53 0 165 -33q0 5 1 14t1 14q0 59 -22 222h-184l18 92h152q-9 92 -9 125q0 149 59.5 253.5t157 153.5t222.5 49q141 0 232 -73.5t91 -184.5q0 -66 -37.5 -104.5t-95.5 -38.5q-52 0 -84.5 31t-32.5 78q0 57 46.5 89t107.5 17l2 2 q-56 88 -186 88q-103 0 -166 -61.5t-94 -188.5q-25 -101 -37 -235h358l-18 -92h-350q-4 -39 -10 -111t-10.5 -111.5t-8.5 -60.5q189 -65 258 -78q42 -8 74 -8q48 0 78.5 16.5t52.5 48.5t61 107h51q-41 -192 -104 -274t-180 -82q-24 0 -49 4.5t-43 9t-44.5 17.5t-38.5 18.5 t-41.5 25.5t-36.5 24.5t-39.5 29t-35.5 26.5q-38 -76 -97.5 -116.5t-133.5 -40.5q-85 0 -141 44.5t-56 118.5zM86 145q0 -40 29 -66t75 -26q54 0 95 35t61 105q-76 47 -151 47q-51 0 -80 -26t-29 -69z" />
<glyph unicode="&#xa4;" horiz-adv-x="1165" d="M35 412l20 90h135q3 68 19 145h-123l20 90h127q72 221 245.5 350.5t377.5 129.5q134 0 214.5 -66t80.5 -162q0 -70 -38.5 -112.5t-96.5 -42.5q-53 0 -87 31t-34 81q0 58 44.5 91t109.5 22l2 2q-19 32 -67 53t-116 21q-133 0 -240 -94.5t-169 -303.5h370l-20 -90h-373 q0 -2 -1 -6t-1 -6q-17 -85 -22 -133h366l-20 -90h-352q-3 -168 59 -252t170 -84q174 0 328 151l45 -47q-170 -196 -412 -196q-185 0 -289 119.5t-117 308.5h-155z" />
<glyph unicode="&#xa5;" horiz-adv-x="1220" d="M121 332l20 90h342l19 84l-23 61h-307l21 90h253l-155 435l-121 45l12 61h500l-12 -61l-162 -45l164 -498l338 508l-148 35l12 61h426l-12 -61l-145 -35l-330 -445h270l-20 -90h-318l-30 -41l-23 -104h340l-20 -90h-338l-49 -236l163 -35l-12 -61h-549l13 61l176 35 l49 236h-344z" />
<glyph unicode="&#xa6;" horiz-adv-x="473" d="M190 -270v833h109v-833h-109zM190 700v801h109v-801h-109z" />
<glyph unicode="&#xa7;" horiz-adv-x="1171" d="M115 758q0 228 270 303q-8 46 -8 65q0 74 29.5 133t78.5 94t108 53.5t122 18.5q137 0 218 -68.5t81 -170.5q0 -73 -39.5 -118.5t-95.5 -45.5q-53 0 -89 33t-36 82q0 62 41 94.5t110 23.5l2 5q-47 75 -184 75q-84 0 -126 -39.5t-42 -105.5q0 -55 51 -138.5t124 -171.5 t146 -177.5t124 -180.5t51 -157q0 -228 -273 -304q10 -38 10 -65q0 -73 -29.5 -132.5t-77.5 -94.5t-103 -53.5t-111 -18.5q-148 0 -242 70t-94 172q0 71 38.5 118t98.5 47q56 0 93.5 -33.5t37.5 -82.5q0 -64 -44.5 -98t-112.5 -25l-2 -4q23 -31 78 -51.5t131 -20.5 q77 0 119 39t42 104q0 55 -51 138.5t-124 171.5t-145.5 178t-123.5 181t-51 157zM291 836q0 -54 35.5 -121.5t92.5 -137.5t117 -139.5t120.5 -149.5t91.5 -145q63 24 94.5 56.5t31.5 87.5q0 53 -35.5 120t-92 137t-117 139.5t-121 149.5t-92.5 144q-61 -22 -93 -54.5 t-32 -86.5z" />
<glyph unicode="&#xa8;" horiz-adv-x="1024" d="M319 1272q0 51 40.5 91t91.5 40t91 -40t40 -91t-40 -91t-91 -40t-91.5 40t-40.5 91zM741 1272q0 51 40 91t91 40t91.5 -40t40.5 -91t-40.5 -91t-91.5 -40t-91 40t-40 91z" />
<glyph unicode="&#xa9;" horiz-adv-x="1570" d="M106 698q0 137 51.5 268t141 233t221 164t281.5 62q120 0 231 -40t197 -110.5t151 -162t99 -198.5t34 -216q0 -136 -53 -265.5t-145.5 -228.5t-227 -159.5t-286.5 -60.5q-153 0 -285 60t-220.5 160t-139 228.5t-50.5 265.5zM197 698q0 -127 43 -242.5t119.5 -203.5 t191.5 -139.5t250 -51.5q179 0 323 88.5t221.5 233.5t77.5 315t-79.5 319t-223.5 240t-319 91q-132 0 -246.5 -53.5t-192 -143t-121.5 -207.5t-44 -246zM369 702q0 116 58 220t162.5 168.5t229.5 64.5q129 0 221 -74l35 66h51l27 -332l-47 -14q-85 158 -146 211t-139 53 q-74 0 -119.5 -32.5t-70.5 -116.5t-25 -228q0 -191 59 -270.5t181 -79.5q163 0 268 149l60 -38q-57 -97 -147.5 -151t-207.5 -54q-129 0 -233 62.5t-160.5 167t-56.5 228.5z" />
<glyph unicode="&#xaa;" horiz-adv-x="897" d="M96 705q0 159 75 328.5t191 280.5t226 111q78 0 129 -73l16 57h178l-192 -719l172 197l29 -25q-110 -167 -187.5 -243t-118.5 -76q-87 0 -61 137l10 55l123 314l-4 2q-65 -121 -118 -206t-110 -157.5t-112.5 -108.5t-108.5 -36q-63 0 -100 42.5t-37 119.5zM285 743 q0 -59 37 -59q44 0 121.5 84t193.5 283l59 219q-19 40 -44 59t-68 19q-81 0 -152.5 -115t-126.5 -354q-20 -90 -20 -136z" />
<glyph unicode="&#xab;" horiz-adv-x="983" d="M31 494l6 59l418 264l41 -45l-273 -309l156 -289l-60 -47zM459 479l6 60l469 325l41 -45l-316 -364l160 -324l-61 -47z" />
<glyph unicode="&#xac;" horiz-adv-x="747" d="M-264 -221q1 60 35.5 96.5t87.5 36.5q50 0 81 -33.5t31 -83.5q0 -71 -73 -100v-4q30 -6 63 -6q73 0 111.5 49t68.5 190l293 1383l-184 41l14 61h590l-14 -61l-185 -41l-264 -1246q-22 -104 -59 -185t-78.5 -129.5t-90.5 -79.5t-92.5 -42.5t-88.5 -11.5 q-115 0 -181.5 48.5t-64.5 117.5z" />
<glyph unicode="&#xad;" horiz-adv-x="675" d="M104 489l35 156h428l-35 -156h-428z" />
<glyph unicode="&#xae;" horiz-adv-x="1083" d="M143 997q0 99 39 189t105 155.5t156.5 104.5t189.5 39q132 0 244 -65.5t177.5 -178t65.5 -244.5t-65.5 -244t-177.5 -177.5t-244 -65.5t-245 65.5t-179 177.5t-66 244zM219 997q0 -183 119.5 -302.5t294.5 -119.5t294.5 119.5t119.5 302.5q0 182 -119.5 302t-294.5 120 t-294.5 -120t-119.5 -302zM373 743v39l73 19v409l-73 19v39h274q92 0 151.5 -38.5t59.5 -107.5q0 -105 -153 -131v-2q83 -9 124 -90l52 -102l41 -15v-39h-144q-29 0 -41 31q-26 73 -39 105.5t-29.5 55t-30 26.5t-40.5 4h-18v-164l61 -19v-39h-268zM580 1024h30q69 0 91 17.5 t22 76.5t-19 73.5t-83 14.5h-41v-182z" />
<glyph unicode="&#xaf;" horiz-adv-x="1024" d="M369 1198l28 137h551l-28 -137h-551z" />
<glyph unicode="&#xb0;" horiz-adv-x="647" d="M186 1174q0 103 81 177t186 74q103 0 180.5 -76t77.5 -180q0 -105 -80 -180.5t-185 -75.5q-107 0 -183.5 77t-76.5 184zM293 1157q0 -75 46 -119.5t112 -44.5q75 0 114 57t39 136q0 72 -45.5 116t-109.5 44q-74 0 -115 -55.5t-41 -133.5z" />
<glyph unicode="&#xb1;" horiz-adv-x="1548" d="M-305 -236q0 52 31.5 82.5t70.5 30.5q36 0 62 -25t26 -59q0 -41 -28.5 -67t-73.5 -29v-4q22 -10 72 -10q119 0 147 127l240 1060h-164l8 37l176 51l25 113q28 133 74.5 227t106 145t123 73t138.5 22q74 0 130 -29.5t83 -78.5q110 129 289 129q82 0 139.5 -31t81.5 -84 l113 57h41l-365 -1349l201 192l24 -25q-107 -147 -170 -220t-96.5 -94t-69.5 -21q-64 0 -82 33.5t5 125.5l284 1094q-39 4 -64.5 32.5t-25.5 67.5q0 52 28 82t83 33v4q-9 7 -38 14t-65 7q-93 0 -143 -50.5t-82 -175.5l-72 -282h203l-22 -99h-205l-242 -954 q-20 -83 -54 -142.5t-75 -90.5t-82 -44.5t-86 -13.5q-79 0 -122.5 40.5t-43.5 105.5q0 50 30.5 79t68.5 29q35 0 59.5 -24.5t24.5 -59.5q0 -37 -27 -63t-68 -29v-4q12 -4 41 -4q117 0 144 127l239 1048h-307l-239 -966q-72 -291 -304 -291q-93 0 -144.5 41.5t-51.5 109.5z M459 969h305l33 143q12 56 30 107q-39 4 -63.5 32.5t-24.5 65.5q0 52 28 82t83 33v4q-8 7 -37.5 13.5t-58.5 6.5q-95 0 -147.5 -50t-82.5 -173z" />
<glyph unicode="&#xb2;" horiz-adv-x="786" d="M59 535v92q279 125 401 235.5t122 253.5q0 85 -40.5 131.5t-109.5 46.5q-80 0 -126 -54t-46 -132q0 -41 16 -80l-38 -22q-60 60 -60 151q0 120 88.5 194t210.5 74q125 0 202 -73.5t77 -200.5q0 -312 -541 -508l508 55l-39 -163h-625z" />
<glyph unicode="&#xb3;" horiz-adv-x="698" d="M70 711q0 43 27 72.5t63 29.5q35 0 59.5 -24t24.5 -58q0 -37 -21 -63t-67 -29v-4q12 -14 55 -29.5t96 -15.5q207 0 207 196q0 85 -57 125.5t-144 40.5q-24 0 -57 -8l-12 41q258 92 258 227q0 115 -111 115q-56 0 -87.5 -31t-31.5 -86q0 -21 11 -67l-35 -15 q-14 16 -25.5 43.5t-11.5 51.5q0 91 58 146.5t165 55.5q111 0 169.5 -55t58.5 -137q0 -63 -57.5 -109.5t-143.5 -70.5v-2q86 -8 156.5 -74t70.5 -170q0 -126 -96.5 -207.5t-239.5 -81.5q-131 0 -206.5 57t-75.5 136z" />
<glyph unicode="&#xb4;" horiz-adv-x="1024" d="M449 1153l90 59l155 185q51 59 111 59q57 0 80 -41q18 -29 18 -59q0 -77 -100 -117l-225 -86l-93 -59z" />
<glyph unicode="&#xb5;" horiz-adv-x="1431" d="M-43 1087q0 149 109 235.5t307 86.5h504l-15 -61l-180 -41l203 -500l332 500l-156 41l14 61h453l-15 -61l-155 -41l-447 -564l330 -733q69 -154 124 -233t112 -109t141 -30q42 0 88.5 21t60.5 54l-4 4q-60 -17 -99.5 13.5t-39.5 85.5q0 40 30 67t75 27q48 0 82 -36 t34 -89q0 -101 -80.5 -171.5t-205.5 -70.5q-99 0 -177.5 31.5t-148.5 104.5t-131 179.5t-131 268.5l-240 557l-403 -582l153 -41l-14 -61h-463l14 61l168 41l514 646l-264 575h-57q-162 0 -254.5 -75.5t-97.5 -170.5h4q33 33 68.5 40.5t61 -5.5t42 -38.5t16.5 -55.5 q0 -44 -32 -76.5t-78 -32.5q-60 0 -106 44.5t-46 133.5z" />
<glyph unicode="&#xb6;" horiz-adv-x="1216" d="M139 989q0 111 43 194.5t119 131.5t169.5 71t205.5 23h647l-14 -61l-179 -41l-225 -1057q-19 -88 -58 -157t-86 -111t-105 -69t-110 -37.5t-106 -10.5q-135 0 -216 61.5t-81 157.5q0 66 37 106.5t96 40.5q53 0 90 -34t37 -78q0 -61 -41 -92.5t-114 -24.5v-4 q18 -20 59 -34.5t88 -14.5q73 0 125.5 52t73.5 153l104 495l-63 -12q-67 -12 -125 -12q-118 0 -203.5 50.5t-126.5 131.5t-41 182zM412 885q0 -99 53 -139t178 -31l70 4l129 604h-123q-50 0 -81.5 -4.5t-66 -19.5t-57 -44t-43.5 -79.5t-37 -124.5q-22 -104 -22 -166z M586 -31l4 -6q84 36 138 101t81 190l229 1069h-100l-246 -1167q-27 -131 -106 -187z" />
<glyph unicode="&#xb7;" horiz-adv-x="548" d="M129 578q0 57 44 101t101 44t101.5 -44t44.5 -101t-44.5 -100.5t-101.5 -43.5t-101 43.5t-44 100.5z" />
<glyph unicode="&#xb8;" horiz-adv-x="1024" d="M6 -371l17 33q97 -29 157 -29q52 0 82.5 15.5t30.5 44.5q0 76 -160 94l-8 20l162 193h102l-141 -123q182 -43 182 -166q0 -59 -59.5 -99t-153.5 -40q-63 0 -120.5 17t-90.5 40z" />
<glyph unicode="&#xb9;" horiz-adv-x="600" d="M37 535l12 57l176 33l131 618l-161 53l14 47q81 -10 164.5 16t126.5 66h75l-172 -800l156 -33l-12 -57h-510z" />
<glyph unicode="&#xba;" horiz-adv-x="833" d="M127 846q0 142 72.5 278t183 218.5t219.5 82.5q123 0 201 -88.5t78 -214.5q0 -142 -72.5 -278t-182.5 -218.5t-218 -82.5q-124 0 -202.5 88.5t-78.5 214.5zM299 741q0 -127 107 -127q60 0 101.5 31t79.5 112t79 232q43 157 43 242q0 65 -26 93t-79 28q-61 0 -102 -30 t-79.5 -110.5t-80.5 -232.5q-43 -154 -43 -238z" />
<glyph unicode="&#xbb;" horiz-adv-x="983" d="M-37 129l316 365l-160 323l61 47l299 -395l-6 -59l-469 -326zM442 176l273 309l-156 289l59 47l289 -366l-6 -60l-418 -264z" />
<glyph unicode="&#xbc;" horiz-adv-x="1759" d="M37 535l12 57l176 33l131 618l-161 53l14 47q81 -10 164.5 16t126.5 66h75l-172 -800l156 -33l-12 -57h-510zM322 0l1071 1407h118l-1071 -1407h-118zM956 223l5 94l528 560h149l-118 -551h137l-23 -103h-135l-47 -223h-166l47 223h-377zM1040 326h314l82 385z" />
<glyph unicode="&#xbd;" horiz-adv-x="1845" d="M37 535l12 57l176 33l131 618l-161 53l14 47q81 -10 164.5 16t126.5 66h75l-172 -800l156 -33l-12 -57h-510zM322 0l1071 1407h118l-1071 -1407h-118zM1051 0v92q279 125 400.5 236t121.5 254q0 85 -40.5 131.5t-109.5 46.5q-80 0 -126 -54.5t-46 -132.5q0 -38 17 -79 l-39 -23q-60 60 -60 152q0 120 88.5 194t210.5 74q125 0 202 -74t77 -201q0 -311 -541 -507l508 55l-39 -164h-624z" />
<glyph unicode="&#xbe;" horiz-adv-x="1763" d="M70 711q0 43 27 72.5t63 29.5q35 0 59.5 -24t24.5 -58q0 -37 -21 -63t-67 -29v-4q12 -14 55 -29.5t96 -15.5q207 0 207 196q0 85 -57 125.5t-144 40.5q-24 0 -57 -8l-12 41q258 92 258 227q0 115 -111 115q-56 0 -87.5 -31t-31.5 -86q0 -21 11 -67l-35 -15 q-14 16 -25.5 43.5t-11.5 51.5q0 91 58 146.5t165 55.5q111 0 169.5 -55t58.5 -137q0 -63 -57.5 -109.5t-143.5 -70.5v-2q86 -8 156.5 -74t70.5 -170q0 -126 -96.5 -207.5t-239.5 -81.5q-131 0 -206.5 57t-75.5 136zM326 0l1071 1407h119l-1072 -1407h-118zM961 223l4 94 l528 560h149l-118 -551h137l-23 -103h-135l-47 -223h-166l47 223h-376zM1044 326h314l82 385z" />
<glyph unicode="&#xbf;" horiz-adv-x="874" d="M-59 -123q0 73 21 128t69 99.5t109.5 79t158.5 74.5q100 42 142 74.5t42 75.5q0 49 -36 78t-134 40v56q36 8 72 8q86 0 146.5 -48.5t60.5 -123.5q0 -47 -18 -88t-54.5 -76t-72 -60.5t-89.5 -60.5q-19 -12 -28 -18q-54 -36 -83.5 -58t-61 -55t-45 -70t-13.5 -84 q0 -92 59.5 -141t161.5 -49q94 0 160.5 42t79.5 122h-4q-33 -51 -86 -51q-45 0 -76 30.5t-31 77.5q0 44 31 76.5t76 32.5q72 0 113.5 -49t41.5 -123q0 -46 -22 -90.5t-63 -82t-106 -60.5t-143 -23q-170 0 -274 92t-104 225zM379 858q0 57 44 100t101 43t101.5 -43t44.5 -100 t-44.5 -101t-101.5 -44t-101 44t-44 101z" />
<glyph unicode="&#xc0;" horiz-adv-x="2174" d="M-111 287q0 173 115 287t293 114q130 0 212.5 -68.5t82.5 -191.5q0 -65 -27 -109t-64 -61.5t-79 -17.5q-50 0 -84.5 35.5t-34.5 82.5q0 33 20 61t49.5 41t68 4t71.5 -44h4q-6 81 -74.5 141t-171.5 60q-108 0 -180 -82t-72 -193q0 -142 104.5 -232.5t295.5 -90.5 q164 0 345 104.5t406 345.5l889 957h78l-287 -1328l146 -41l-15 -61h-555l15 61l190 41l101 428h-375l-125 -143q-121 -138 -213 -227t-196 -161.5t-210.5 -105t-228.5 -32.5q-223 0 -358.5 120t-135.5 306zM1423 608h326l121 510zM1802 1749q0 29 19 59q23 41 80 41 q59 0 110 -59l156 -184l90 -60l-37 -59l-92 59l-225 86q-101 41 -101 117z" />
<glyph unicode="&#xc1;" horiz-adv-x="2174" d="M-111 287q0 173 115 287t293 114q130 0 212.5 -68.5t82.5 -191.5q0 -65 -27 -109t-64 -61.5t-79 -17.5q-50 0 -84.5 35.5t-34.5 82.5q0 33 20 61t49.5 41t68 4t71.5 -44h4q-6 81 -74.5 141t-171.5 60q-108 0 -180 -82t-72 -193q0 -142 104.5 -232.5t295.5 -90.5 q164 0 345 104.5t406 345.5l889 957h78l-287 -1328l146 -41l-15 -61h-555l15 61l190 41l101 428h-375l-125 -143q-121 -138 -213 -227t-196 -161.5t-210.5 -105t-228.5 -32.5q-223 0 -358.5 120t-135.5 306zM1423 608h326l121 510zM1903 1546l90 60l155 184q51 59 111 59 q57 0 80 -41q18 -29 18 -59q0 -77 -100 -117l-225 -86l-93 -59z" />
<glyph unicode="&#xc2;" horiz-adv-x="2174" d="M-111 287q0 173 115 287t293 114q130 0 212.5 -68.5t82.5 -191.5q0 -65 -27 -109t-64 -61.5t-79 -17.5q-50 0 -84.5 35.5t-34.5 82.5q0 33 20 61t49.5 41t68 4t71.5 -44h4q-6 81 -74.5 141t-171.5 60q-108 0 -180 -82t-72 -193q0 -142 104.5 -232.5t295.5 -90.5 q164 0 345 104.5t406 345.5l889 957h78l-287 -1328l146 -41l-15 -61h-555l15 61l190 41l101 428h-375l-125 -143q-121 -138 -213 -227t-196 -161.5t-210.5 -105t-228.5 -32.5q-223 0 -358.5 120t-135.5 306zM1423 608h326l121 510zM1796 1540q94 79 161.5 154t91.5 114.5 t46 63.5t45 24q28 0 41 -12t23 -42t21.5 -69t47 -106.5t88.5 -140.5l-37 -33l-210 178l-285 -178z" />
<glyph unicode="&#xc3;" horiz-adv-x="2174" d="M-111 287q0 173 115 287t293 114q130 0 212.5 -68.5t82.5 -191.5q0 -65 -27 -109t-64 -61.5t-79 -17.5q-50 0 -84.5 35.5t-34.5 82.5q0 33 20 61t49.5 41t68 4t71.5 -44h4q-6 81 -74.5 141t-171.5 60q-108 0 -180 -82t-72 -193q0 -142 104.5 -232.5t295.5 -90.5 q164 0 345 104.5t406 345.5l889 957h78l-287 -1328l146 -41l-15 -61h-555l15 61l190 41l101 428h-375l-125 -143q-121 -138 -213 -227t-196 -161.5t-210.5 -105t-228.5 -32.5q-223 0 -358.5 120t-135.5 306zM1423 608h326l121 510zM1712 1581q85 115 148.5 168t134.5 53 q62 0 141 -43l109 -59q21 -12 37.5 -15t35 4t36 20t46.5 38l51 45l39 -31q-85 -115 -148 -168t-134 -53q-63 0 -142 43l-108 59q-21 12 -38 14.5t-36 -5t-37 -20.5t-47 -38l-51 -45z" />
<glyph unicode="&#xc4;" horiz-adv-x="2174" d="M-111 287q0 173 115 287t293 114q130 0 212.5 -68.5t82.5 -191.5q0 -65 -27 -109t-64 -61.5t-79 -17.5q-50 0 -84.5 35.5t-34.5 82.5q0 33 20 61t49.5 41t68 4t71.5 -44h4q-6 81 -74.5 141t-171.5 60q-108 0 -180 -82t-72 -193q0 -142 104.5 -232.5t295.5 -90.5 q164 0 345 104.5t406 345.5l889 957h78l-287 -1328l146 -41l-15 -61h-555l15 61l190 41l101 428h-375l-125 -143q-121 -138 -213 -227t-196 -161.5t-210.5 -105t-228.5 -32.5q-223 0 -358.5 120t-135.5 306zM1423 608h326l121 510zM1765 1665q0 51 40 91t91 40t91.5 -40 t40.5 -91t-40.5 -91t-91.5 -40t-91 40t-40 91zM2187 1665q0 51 40 91t91 40t91 -40t40 -91t-40 -91t-91 -40t-91 40t-40 91z" />
<glyph unicode="&#xc5;" horiz-adv-x="2174" d="M-176 287q0 173 114.5 287t292.5 114q130 0 212.5 -68.5t82.5 -191.5q0 -65 -27 -109t-64 -61.5t-79 -17.5q-50 0 -84 35.5t-34 82.5q0 33 20 61t49.5 41t67.5 4t71 -44h5q-6 81 -74.5 141t-171.5 60q-108 0 -180 -82t-72 -193q0 -142 104 -232.5t295 -90.5 q164 0 345.5 104.5t406.5 345.5l842 905q-60 25 -98 80t-38 121q0 85 68.5 147t157.5 62q87 0 152 -65t65 -150q0 -77 -58.5 -138.5t-138.5 -70.5l-272 -1262l145 -41l-14 -61h-555l14 61l191 41l100 428h-375l-125 -143q-121 -138 -213 -227t-196 -161.5t-210.5 -105 t-228.5 -32.5q-222 0 -357.5 120t-135.5 306zM1358 608h325l121 510zM1907 1571q0 -67 33.5 -103t89.5 -36t91.5 41.5t35.5 111.5q0 63 -34.5 98t-88.5 35q-56 0 -91.5 -39.5t-35.5 -107.5z" />
<glyph unicode="&#xc6;" horiz-adv-x="2822" d="M-111 287q0 173 115 287t293 114q130 0 212.5 -68.5t82.5 -191.5q0 -65 -27 -109t-64 -61.5t-79 -17.5q-50 0 -84.5 35.5t-34.5 82.5q0 33 20 61t49.5 41t68 4t71.5 -44h4q-6 81 -74.5 141t-171.5 60q-108 0 -180 -82t-72 -193q0 -142 104.5 -232.5t295.5 -90.5 q165 0 346 104t405 346l775 836l-168 39l14 61h938l39 -393l-37 -12l-211 313l-338 35l-127 -600l242 16l129 197h43l-105 -476h-43l-34 185l-244 16l-131 -627l526 39l309 349l37 -15l-149 -436h-1143l14 61l195 41l86 428h-430l-125 -143q-121 -138 -213 -227t-196 -161.5 t-210.5 -105t-228.5 -32.5q-223 0 -358.5 120t-135.5 306zM1423 608h379l113 563z" />
<glyph unicode="&#xc7;" horiz-adv-x="1212" d="M86 598q0 157 64.5 310.5t167.5 266t236 181.5t265 69q97 0 161.5 -29.5t121.5 -92.5l53 106h49l31 -504l-47 -12q-56 144 -97.5 228t-85 132t-85 63t-103.5 15q-81 0 -146 -26.5t-127 -92.5t-112.5 -189t-89.5 -304q-35 -161 -35 -279q0 -190 88 -277t264 -87 q134 0 250 64.5t199 181.5l49 -33q-103 -154 -231 -228t-291 -77l-123 -107q182 -43 182 -166q0 -59 -59.5 -99t-153.5 -40q-63 0 -120.5 17t-90.5 40l17 33q97 -29 157 -29q52 0 82.5 15.5t30.5 44.5q0 76 -160 94l-8 20l152 181q-146 18 -250.5 105.5t-154.5 217 t-50 287.5z" />
<glyph unicode="&#xc8;" horiz-adv-x="1159" d="M18 283q0 114 57 210.5t143 158.5t196 100q-46 56 -72.5 127t-26.5 141q0 115 76 209.5t195 145t252 50.5q159 0 248.5 -58t89.5 -165q0 -58 -38 -98.5t-87 -40.5q-50 0 -84.5 34t-34.5 83q0 77 104 114v4q-78 33 -172 33q-172 0 -270 -119.5t-98 -347.5q0 -42 6 -86 q90 19 166 19q49 0 78.5 -19t29.5 -53q0 -32 -23.5 -53.5t-51 -29t-56.5 -7.5q-97 0 -180 67q-137 -79 -184 -296q-19 -89 -19.5 -160t16.5 -117.5t42.5 -79.5t63 -50t74 -24.5t79.5 -7.5q149 0 265 94.5t216 272.5l49 -25q-188 -452 -573 -452q-127 0 -234.5 50.5 t-174.5 149t-67 226.5zM639 1749q0 30 18 59q23 41 80 41q60 0 111 -59l156 -184l90 -60l-37 -59l-92 59l-226 86q-100 40 -100 117z" />
<glyph unicode="&#xc9;" horiz-adv-x="1159" d="M18 283q0 114 57 210.5t143 158.5t196 100q-46 56 -72.5 127t-26.5 141q0 115 76 209.5t195 145t252 50.5q159 0 248.5 -58t89.5 -165q0 -58 -38 -98.5t-87 -40.5q-50 0 -84.5 34t-34.5 83q0 77 104 114v4q-78 33 -172 33q-172 0 -270 -119.5t-98 -347.5q0 -42 6 -86 q90 19 166 19q49 0 78.5 -19t29.5 -53q0 -32 -23.5 -53.5t-51 -29t-56.5 -7.5q-97 0 -180 67q-137 -79 -184 -296q-19 -89 -19.5 -160t16.5 -117.5t42.5 -79.5t63 -50t74 -24.5t79.5 -7.5q149 0 265 94.5t216 272.5l49 -25q-188 -452 -573 -452q-127 0 -234.5 50.5 t-174.5 149t-67 226.5zM668 1546l90 60l155 184q51 59 111 59q57 0 80 -41q18 -29 18 -59q0 -77 -100 -117l-225 -86l-92 -59z" />
<glyph unicode="&#xca;" horiz-adv-x="1159" d="M18 283q0 114 57 210.5t143 158.5t196 100q-46 56 -72.5 127t-26.5 141q0 115 76 209.5t195 145t252 50.5q159 0 248.5 -58t89.5 -165q0 -58 -38 -98.5t-87 -40.5q-50 0 -84.5 34t-34.5 83q0 77 104 114v4q-78 33 -172 33q-172 0 -270 -119.5t-98 -347.5q0 -42 6 -86 q90 19 166 19q49 0 78.5 -19t29.5 -53q0 -32 -23.5 -53.5t-51 -29t-56.5 -7.5q-97 0 -180 67q-137 -79 -184 -296q-19 -89 -19.5 -160t16.5 -117.5t42.5 -79.5t63 -50t74 -24.5t79.5 -7.5q149 0 265 94.5t216 272.5l49 -25q-188 -452 -573 -452q-127 0 -234.5 50.5 t-174.5 149t-67 226.5zM590 1540q94 79 161.5 154t91.5 114.5t46 63.5t45 24q28 0 41 -12t23 -42t21.5 -69t47 -106.5t88.5 -140.5l-37 -33l-211 178l-284 -178z" />
<glyph unicode="&#xcb;" horiz-adv-x="1159" d="M18 283q0 114 57 210.5t143 158.5t196 100q-46 56 -72.5 127t-26.5 141q0 115 76 209.5t195 145t252 50.5q159 0 248.5 -58t89.5 -165q0 -58 -38 -98.5t-87 -40.5q-50 0 -84.5 34t-34.5 83q0 77 104 114v4q-78 33 -172 33q-172 0 -270 -119.5t-98 -347.5q0 -42 6 -86 q90 19 166 19q49 0 78.5 -19t29.5 -53q0 -32 -23.5 -53.5t-51 -29t-56.5 -7.5q-97 0 -180 67q-137 -79 -184 -296q-19 -89 -19.5 -160t16.5 -117.5t42.5 -79.5t63 -50t74 -24.5t79.5 -7.5q149 0 265 94.5t216 272.5l49 -25q-188 -452 -573 -452q-127 0 -234.5 50.5 t-174.5 149t-67 226.5zM561 1665q0 51 40 91t91 40t91 -40t40 -91t-40 -91t-91 -40t-91 40t-40 91zM983 1665q0 51 40 91t91 40t91 -40t40 -91t-40 -91t-91 -40t-91 40t-40 91z" />
<glyph unicode="&#xcc;" horiz-adv-x="854" d="M-39 1108q0 148 111 224.5t323 76.5h563l-14 -61l-201 -41l-254 -1205l185 -41l-15 -61h-604l15 61l200 41l258 1221h-127q-174 0 -269 -64t-101 -161h4q33 33 68.5 40.5t61 -5.5t42 -39t16.5 -56q0 -44 -32 -76t-78 -32q-60 0 -106 44.5t-46 133.5zM334 1749q0 30 18 59 q23 41 80 41q60 0 111 -59l155 -184l90 -60l-36 -59l-93 59l-225 86q-100 40 -100 117z" />
<glyph unicode="&#xcd;" horiz-adv-x="854" d="M-39 1108q0 148 111 224.5t323 76.5h563l-14 -61l-201 -41l-254 -1205l185 -41l-15 -61h-604l15 61l200 41l258 1221h-127q-174 0 -269 -64t-101 -161h4q33 33 68.5 40.5t61 -5.5t42 -39t16.5 -56q0 -44 -32 -76t-78 -32q-60 0 -106 44.5t-46 133.5zM502 1546l90 60 l156 184q51 59 110 59q57 0 80 -41q18 -29 18 -59q0 -77 -100 -117l-225 -86l-92 -59z" />
<glyph unicode="&#xce;" horiz-adv-x="854" d="M-39 1108q0 148 111 224.5t323 76.5h563l-14 -61l-201 -41l-254 -1205l185 -41l-15 -61h-604l15 61l200 41l258 1221h-127q-174 0 -269 -64t-101 -161h4q33 33 68.5 40.5t61 -5.5t42 -39t16.5 -56q0 -44 -32 -76t-78 -32q-60 0 -106 44.5t-46 133.5zM360 1528 q77 65 136.5 127.5t88 101.5t49.5 69.5t36 44t35 13.5q34 0 49.5 -22.5t23 -60.5t45.5 -119t103 -169l-37 -32l-211 178l-285 -178z" />
<glyph unicode="&#xcf;" horiz-adv-x="854" d="M-39 1108q0 148 111 224.5t323 76.5h563l-14 -61l-201 -41l-254 -1205l185 -41l-15 -61h-604l15 61l200 41l258 1221h-127q-174 0 -269 -64t-101 -161h4q33 33 68.5 40.5t61 -5.5t42 -39t16.5 -56q0 -44 -32 -76t-78 -32q-60 0 -106 44.5t-46 133.5zM336 1665q0 51 40 91 t91 40t91 -40t40 -91t-40 -91t-91 -40t-91 40t-40 91zM758 1665q0 51 40 91t91 40t91 -40t40 -91t-40 -91t-91 -40t-91 40t-40 91z" />
<glyph unicode="&#xd0;" horiz-adv-x="1488" d="M-188 1087q0 152 116.5 237t337.5 85h621q149 0 260.5 -49.5t176.5 -136.5t96.5 -194.5t31.5 -235.5q0 -227 -105 -407t-300.5 -283t-448.5 -103h-604l14 61l195 41l108 519h-205l23 98h203l129 604h-189q-179 0 -281.5 -73.5t-109.5 -172.5h4q44 43 89.5 43t72.5 -30.5 t27 -71.5q0 -44 -32.5 -76.5t-78.5 -32.5q-60 0 -105.5 44.5t-45.5 133.5zM420 88h184q115 0 200 21.5t148 64t109.5 115.5t79 165t61.5 224q36 177 37.5 299t-42.5 198t-125 110t-210 34h-184l-125 -600h295l-23 -98h-295z" />
<glyph unicode="&#xd1;" horiz-adv-x="2152" d="M-119 231q0 152 98 247t244 95q113 0 185.5 -59.5t72.5 -151.5q0 -64 -33.5 -97.5t-85.5 -33.5q-46 0 -79 32t-33 79q0 40 30 78t95 47v4q-57 35 -142 35q-97 0 -157 -66.5t-60 -163.5q0 -126 86 -198t217 -72q196 0 335.5 151t226.5 464l194 702h-186 q-148 0 -240.5 -78.5t-89.5 -157.5h4q53 39 93.5 35.5t64.5 -33.5t24 -71q0 -44 -32 -76.5t-78 -32.5q-60 0 -106 44.5t-46 133.5q0 151 109.5 236.5t327.5 85.5h376l336 -752q61 -137 152 -319l106 647q22 133 49.5 227.5t61 157.5t78.5 99t95.5 50.5t119.5 14.5 q105 0 168 -54t63 -126q0 -53 -31.5 -87t-78.5 -34q-46 0 -75.5 30t-29.5 74q0 36 22 63.5t62 39.5v4q-35 18 -82 18q-66 0 -112.5 -34t-93 -134.5t-89.5 -281.5l-184 -768q64 -117 123.5 -209t110 -154.5t102 -107t92 -69.5t88 -39t82.5 -17.5t82 -3.5q40 0 74.5 18.5 t48.5 52.5l-4 4q-60 -17 -103 14t-43 85q0 40 30 67t75 27q48 0 82 -36t34 -89q0 -47 -16.5 -89.5t-50 -77.5t-92 -56t-135.5 -21q-89 0 -168.5 23t-174.5 87t-186.5 171t-198.5 283t-217 415l-348 754l-141 -676q-80 -382 -245 -566t-431 -184q-177 0 -299.5 106 t-122.5 275zM1229 1581q85 115 148 168t134 53q63 0 142 -43l108 -59q21 -12 37.5 -15t35.5 4t36.5 20t46.5 38l51 45l39 -31q-85 -115 -148.5 -168t-134.5 -53q-62 0 -141 43l-108 59q-21 12 -38 14.5t-36 -5t-37 -20.5t-47 -38l-51 -45z" />
<glyph unicode="&#xd2;" d="M86 598q0 158 63.5 310.5t167 265.5t242.5 182t283 69q123 0 225.5 -52.5t168.5 -141t102 -202t36 -236.5q0 -160 -64.5 -310t-170 -258.5t-245.5 -174.5t-286 -66q-121 0 -221.5 52t-165 138.5t-100 196t-35.5 227.5zM307 432q0 -356 303 -356q89 0 162.5 29.5t140.5 97 t119.5 187t89.5 288.5q35 153 35 280q0 195 -84.5 284t-232.5 89q-95 0 -167 -28.5t-134.5 -97.5t-110.5 -188.5t-86 -297.5q-35 -158 -35 -287zM649 1749q0 29 19 59q23 41 80 41q59 0 110 -59l156 -184l90 -60l-37 -59l-92 59l-225 86q-101 41 -101 117z" />
<glyph unicode="&#xd3;" d="M86 598q0 158 63.5 310.5t167 265.5t242.5 182t283 69q123 0 225.5 -52.5t168.5 -141t102 -202t36 -236.5q0 -160 -64.5 -310t-170 -258.5t-245.5 -174.5t-286 -66q-121 0 -221.5 52t-165 138.5t-100 196t-35.5 227.5zM307 432q0 -356 303 -356q89 0 162.5 29.5t140.5 97 t119.5 187t89.5 288.5q35 153 35 280q0 195 -84.5 284t-232.5 89q-95 0 -167 -28.5t-134.5 -97.5t-110.5 -188.5t-86 -297.5q-35 -158 -35 -287zM700 1546l91 60l155 184q51 59 111 59q57 0 80 -41q18 -29 18 -59q0 -77 -100 -117l-226 -86l-92 -59z" />
<glyph unicode="&#xd4;" d="M86 598q0 158 63.5 310.5t167 265.5t242.5 182t283 69q123 0 225.5 -52.5t168.5 -141t102 -202t36 -236.5q0 -160 -64.5 -310t-170 -258.5t-245.5 -174.5t-286 -66q-121 0 -221.5 52t-165 138.5t-100 196t-35.5 227.5zM307 432q0 -356 303 -356q89 0 162.5 29.5t140.5 97 t119.5 187t89.5 288.5q35 153 35 280q0 195 -84.5 284t-232.5 89q-95 0 -167 -28.5t-134.5 -97.5t-110.5 -188.5t-86 -297.5q-35 -158 -35 -287zM602 1540q94 79 161.5 154t91.5 114.5t46 63.5t45 24q28 0 41 -12t23 -42t21.5 -69t47 -106.5t88.5 -140.5l-37 -33l-210 178 l-285 -178z" />
<glyph unicode="&#xd5;" d="M86 598q0 158 63.5 310.5t167 265.5t242.5 182t283 69q123 0 225.5 -52.5t168.5 -141t102 -202t36 -236.5q0 -160 -64.5 -310t-170 -258.5t-245.5 -174.5t-286 -66q-121 0 -221.5 52t-165 138.5t-100 196t-35.5 227.5zM307 432q0 -356 303 -356q89 0 162.5 29.5t140.5 97 t119.5 187t89.5 288.5q35 153 35 280q0 195 -84.5 284t-232.5 89q-95 0 -167 -28.5t-134.5 -97.5t-110.5 -188.5t-86 -297.5q-35 -158 -35 -287zM543 1581q85 115 148 168t134 53q63 0 142 -43l108 -59q21 -12 37.5 -15t35.5 4t36.5 20t46.5 38l51 45l39 -31 q-85 -115 -148.5 -168t-134.5 -53q-62 0 -141 43l-109 59q-21 12 -37.5 14.5t-35.5 -5t-37 -20.5t-47 -38l-51 -45z" />
<glyph unicode="&#xd6;" d="M86 598q0 158 63.5 310.5t167 265.5t242.5 182t283 69q123 0 225.5 -52.5t168.5 -141t102 -202t36 -236.5q0 -160 -64.5 -310t-170 -258.5t-245.5 -174.5t-286 -66q-121 0 -221.5 52t-165 138.5t-100 196t-35.5 227.5zM307 432q0 -356 303 -356q89 0 162.5 29.5t140.5 97 t119.5 187t89.5 288.5q35 153 35 280q0 195 -84.5 284t-232.5 89q-95 0 -167 -28.5t-134.5 -97.5t-110.5 -188.5t-86 -297.5q-35 -158 -35 -287zM569 1665q0 51 40 91t91 40t91 -40t40 -91t-40 -91t-91 -40t-91 40t-40 91zM991 1665q0 51 40 91t91 40t91 -40t40 -91t-40 -91 t-91 -40t-91 40t-40 91z" />
<glyph unicode="&#xd7;" horiz-adv-x="1005" d="M84 303l362 318l-243 319l78 59l241 -315l359 315l59 -67l-365 -318l246 -319l-78 -59l-241 313l-359 -313z" />
<glyph unicode="&#xd8;" d="M-2 -80l221 256q-133 178 -133 422q0 158 63.5 310.5t167 265.5t242.5 182t283 69q200 0 338 -135l166 193h114l-221 -258q135 -179 135 -432q0 -160 -64.5 -310t-170 -258.5t-245.5 -174.5t-286 -66q-194 0 -329 129l-166 -193h-115zM307 434q0 -80 15 -139l780 905 q-78 131 -262 131q-95 0 -167 -28.5t-134.5 -97.5t-110.5 -188.5t-86 -297.5q-35 -155 -35 -285zM356 203q72 -127 254 -127q89 0 162.5 29.5t140.5 97t119.5 187t89.5 288.5q35 166 35 278q0 90 -18 154z" />
<glyph unicode="&#xd9;" horiz-adv-x="1562" d="M-43 1087q0 152 117 237t338 85h516l-15 -61l-157 -41l-170 -805q-43 -208 15.5 -318t242.5 -110q178 0 273 86.5t124 275.5l96 613q43 274 129 389.5t250 115.5q98 0 156.5 -54t58.5 -126q0 -53 -31.5 -87t-78.5 -34q-46 0 -75.5 30.5t-29.5 74.5q0 36 21.5 63t62.5 39 v4q-37 19 -82 19q-89 0 -151.5 -105.5t-116.5 -365.5l-123 -592q-48 -228 -177 -332t-345 -104q-254 0 -370.5 145.5t-65.5 386.5l172 807h-123q-179 0 -281.5 -73.5t-109.5 -172.5h4q33 33 68.5 40.5t61 -5.5t42 -38.5t16.5 -55.5q0 -44 -32 -76.5t-78 -32.5 q-60 0 -106 44.5t-46 133.5zM782 1749q0 29 19 59q23 41 80 41q59 0 110 -59l156 -184l90 -60l-37 -59l-92 59l-225 86q-101 41 -101 117z" />
<glyph unicode="&#xda;" horiz-adv-x="1562" d="M-43 1087q0 152 117 237t338 85h516l-15 -61l-157 -41l-170 -805q-43 -208 15.5 -318t242.5 -110q178 0 273 86.5t124 275.5l96 613q43 274 129 389.5t250 115.5q98 0 156.5 -54t58.5 -126q0 -53 -31.5 -87t-78.5 -34q-46 0 -75.5 30.5t-29.5 74.5q0 36 21.5 63t62.5 39 v4q-37 19 -82 19q-89 0 -151.5 -105.5t-116.5 -365.5l-123 -592q-48 -228 -177 -332t-345 -104q-254 0 -370.5 145.5t-65.5 386.5l172 807h-123q-179 0 -281.5 -73.5t-109.5 -172.5h4q33 33 68.5 40.5t61 -5.5t42 -38.5t16.5 -55.5q0 -44 -32 -76.5t-78 -32.5 q-60 0 -106 44.5t-46 133.5zM985 1546l90 60l156 184q51 59 110 59q57 0 80 -41q19 -30 19 -59q0 -76 -101 -117l-225 -86l-92 -59z" />
<glyph unicode="&#xdb;" horiz-adv-x="1562" d="M-43 1087q0 152 117 237t338 85h516l-15 -61l-157 -41l-170 -805q-43 -208 15.5 -318t242.5 -110q178 0 273 86.5t124 275.5l96 613q43 274 129 389.5t250 115.5q98 0 156.5 -54t58.5 -126q0 -53 -31.5 -87t-78.5 -34q-46 0 -75.5 30.5t-29.5 74.5q0 36 21.5 63t62.5 39 v4q-37 19 -82 19q-89 0 -151.5 -105.5t-116.5 -365.5l-123 -592q-48 -228 -177 -332t-345 -104q-254 0 -370.5 145.5t-65.5 386.5l172 807h-123q-179 0 -281.5 -73.5t-109.5 -172.5h4q33 33 68.5 40.5t61 -5.5t42 -38.5t16.5 -55.5q0 -44 -32 -76.5t-78 -32.5 q-60 0 -106 44.5t-46 133.5zM825 1540q94 79 161.5 154t91.5 114.5t46 63.5t45 24q34 0 49.5 -22t23.5 -60.5t46 -119t103 -168.5l-37 -33l-211 178l-285 -178z" />
<glyph unicode="&#xdc;" horiz-adv-x="1562" d="M-43 1087q0 152 117 237t338 85h516l-15 -61l-157 -41l-170 -805q-43 -208 15.5 -318t242.5 -110q178 0 273 86.5t124 275.5l96 613q43 274 129 389.5t250 115.5q98 0 156.5 -54t58.5 -126q0 -53 -31.5 -87t-78.5 -34q-46 0 -75.5 30.5t-29.5 74.5q0 36 21.5 63t62.5 39 v4q-37 19 -82 19q-89 0 -151.5 -105.5t-116.5 -365.5l-123 -592q-48 -228 -177 -332t-345 -104q-254 0 -370.5 145.5t-65.5 386.5l172 807h-123q-179 0 -281.5 -73.5t-109.5 -172.5h4q33 33 68.5 40.5t61 -5.5t42 -38.5t16.5 -55.5q0 -44 -32 -76.5t-78 -32.5 q-60 0 -106 44.5t-46 133.5zM760 1665q0 51 40 91t91 40t91 -40t40 -91t-40 -91t-91 -40t-91 40t-40 91zM1182 1665q0 51 40 91t91 40t91 -40t40 -91t-40 -91t-91 -40t-91 40t-40 91z" />
<glyph unicode="&#xdd;" horiz-adv-x="1337" d="M115 1098q0 59 20 116t57.5 105t99 77t136.5 29q164 0 258 -137t94 -409q0 -37 -4 -119q48 133 105.5 248t125.5 211t145.5 151t154.5 55q73 0 115 -42.5t42 -110.5q0 -67 -37.5 -110.5t-89.5 -43.5q-46 0 -77 25.5t-31 68.5q0 39 27 68t77 33v4q-64 18 -129 -25 q-130 -86 -268 -341.5t-195 -532.5l-65 -316l182 -41l-14 -61h-600l14 61l199 41l51 236q76 350 76 575q0 207 -56.5 305.5t-144.5 98.5q-94 0 -141 -63.5t-47 -166.5q0 -80 20 -122h4q19 114 121 114q45 0 74.5 -32.5t29.5 -79.5q0 -52 -35.5 -88.5t-95.5 -36.5 q-87 0 -142.5 70.5t-55.5 185.5zM770 1546l90 60l156 184q51 59 110 59q57 0 80 -41q19 -30 19 -59q0 -76 -101 -117l-225 -86l-92 -59z" />
<glyph unicode="&#xde;" horiz-adv-x="1298" d="M-266 -98q1 60 35.5 96.5t87.5 36.5q50 0 81 -33.5t31 -83.5q0 -71 -73 -100v-4q35 -7 49 -7q100 0 164.5 80.5t101.5 253.5l252 1182h-150q-179 0 -281.5 -73.5t-109.5 -172.5h4q44 43 89.5 43t72.5 -30.5t27 -71.5q0 -44 -32.5 -76.5t-78.5 -32.5q-60 0 -105.5 44.5 t-45.5 133.5q0 152 116.5 237t337.5 85h582l-15 -61l-198 -41l-41 -197h217q175 0 291.5 -106.5t116.5 -272.5q0 -105 -43.5 -195t-114.5 -149.5t-161.5 -93t-186.5 -33.5q-82 0 -152 23l-133 41l-25 -105q-112 -483 -485 -483q-106 0 -166.5 48.5t-58.5 117.5zM481 381 l174 -25q49 -8 101 -8q116 0 172.5 66.5t93.5 238.5q20 98 20 156q0 111 -55 163t-166 52h-205z" />
<glyph unicode="&#xdf;" horiz-adv-x="1161" d="M-311 -236q0 52 31.5 82.5t70.5 30.5q36 0 62 -25t26 -59q0 -41 -28.5 -67t-73.5 -29v-4q23 -10 71 -10q120 0 148 127l301 1323q22 97 58.5 173t79 122.5t93 77t97.5 42t96 11.5q41 0 86 -16.5t88.5 -49t71.5 -91.5t28 -134q0 -151 -92 -248t-241 -137v-2 q70 -35 134.5 -86.5t118.5 -117.5t86.5 -149.5t32.5 -169.5q0 -74 -26 -140.5t-75 -119t-127.5 -83.5t-176.5 -31q-132 0 -206.5 60.5t-74.5 143.5q0 58 39 100t92 42q47 0 82 -32.5t35 -74.5q0 -57 -39 -93t-113 -26v-4q14 -13 52.5 -22.5t83.5 -9.5q89 0 144.5 41.5 t78.5 148.5q20 98 20 174q0 149 -64.5 258t-189.5 162l6 61q117 38 170.5 102t81.5 199q13 63 13 105q0 77 -31.5 117.5t-89.5 40.5q-73 0 -118 -51t-73 -162l-340 -1360q-72 -291 -303 -291q-93 0 -144.5 41.5t-51.5 109.5z" />
<glyph unicode="&#xe0;" horiz-adv-x="1038" d="M27 174q0 125 52 273t132 269.5t184 203t199 81.5q94 0 151 -83l21 71h197l-228 -844l213 230l25 -25q-241 -366 -348 -366q-46 0 -65.5 41.5t-6.5 117.5l14 80l140 346l-5 2q-155 -290 -278.5 -438.5t-243.5 -148.5q-72 0 -112.5 49t-40.5 141zM238 201q0 -68 41 -68 q123 0 370 426l72 268q-22 47 -51.5 70t-79.5 23q-201 0 -326 -545q-26 -118 -26 -174zM403 1356q0 29 19 59q23 41 80 41q59 0 110 -59l156 -185l90 -59l-37 -59l-92 59l-225 86q-101 41 -101 117z" />
<glyph unicode="&#xe1;" horiz-adv-x="1038" d="M27 174q0 125 52 273t132 269.5t184 203t199 81.5q94 0 151 -83l21 71h197l-228 -844l213 230l25 -25q-241 -366 -348 -366q-46 0 -65.5 41.5t-6.5 117.5l14 80l140 346l-5 2q-155 -290 -278.5 -438.5t-243.5 -148.5q-72 0 -112.5 49t-40.5 141zM238 201q0 -68 41 -68 q123 0 370 426l72 268q-22 47 -51.5 70t-79.5 23q-201 0 -326 -545q-26 -118 -26 -174zM461 1153l90 59l156 185q51 59 110 59q57 0 80 -41q18 -29 18 -59q0 -77 -100 -117l-225 -86l-92 -59z" />
<glyph unicode="&#xe2;" horiz-adv-x="1038" d="M27 174q0 125 52 273t132 269.5t184 203t199 81.5q94 0 151 -83l21 71h197l-228 -844l213 230l25 -25q-241 -366 -348 -366q-46 0 -65.5 41.5t-6.5 117.5l14 80l140 346l-5 2q-155 -290 -278.5 -438.5t-243.5 -148.5q-72 0 -112.5 49t-40.5 141zM238 201q0 -68 41 -68 q123 0 370 426l72 268q-22 47 -51.5 70t-79.5 23q-201 0 -326 -545q-26 -118 -26 -174zM391 1147q94 79 161.5 154t91.5 114.5t46 63.5t45 24q28 0 41 -12t23 -42t21.5 -69t47 -106.5t88.5 -140.5l-36 -33l-211 178l-285 -178z" />
<glyph unicode="&#xe3;" horiz-adv-x="1038" d="M27 174q0 125 52 273t132 269.5t184 203t199 81.5q94 0 151 -83l21 71h197l-228 -844l213 230l25 -25q-241 -366 -348 -366q-46 0 -65.5 41.5t-6.5 117.5l14 80l140 346l-5 2q-155 -290 -278.5 -438.5t-243.5 -148.5q-72 0 -112.5 49t-40.5 141zM238 201q0 -68 41 -68 q123 0 370 426l72 268q-22 47 -51.5 70t-79.5 23q-201 0 -326 -545q-26 -118 -26 -174zM317 1188q85 115 148.5 168t134.5 53q62 0 141 -43l109 -59q21 -12 37.5 -15t35.5 4t36.5 20t46.5 38l51 45l39 -31q-85 -115 -148.5 -168t-134.5 -53q-62 0 -141 43l-109 59 q-21 12 -37.5 14.5t-35.5 -5t-37 -20.5t-47 -38l-52 -45z" />
<glyph unicode="&#xe4;" horiz-adv-x="1038" d="M27 174q0 125 52 273t132 269.5t184 203t199 81.5q94 0 151 -83l21 71h197l-228 -844l213 230l25 -25q-241 -366 -348 -366q-46 0 -65.5 41.5t-6.5 117.5l14 80l140 346l-5 2q-155 -290 -278.5 -438.5t-243.5 -148.5q-72 0 -112.5 49t-40.5 141zM238 201q0 -68 41 -68 q123 0 370 426l72 268q-22 47 -51.5 70t-79.5 23q-201 0 -326 -545q-26 -118 -26 -174zM350 1272q0 51 40 91t91 40t91 -40t40 -91t-40 -91t-91 -40t-91 40t-40 91zM772 1272q0 51 40 91t91 40t91 -40t40 -91t-40 -91t-91 -40t-91 40t-40 91z" />
<glyph unicode="&#xe5;" horiz-adv-x="1038" d="M27 174q0 125 52 273t132 269.5t184 203t199 81.5q94 0 151 -83l21 71h197l-228 -844l213 230l25 -25q-241 -366 -348 -366q-46 0 -65.5 41.5t-6.5 117.5l14 80l140 346l-5 2q-155 -290 -278.5 -438.5t-243.5 -148.5q-72 0 -112.5 49t-40.5 141zM238 201q0 -68 41 -68 q123 0 370 426l72 268q-22 47 -51.5 70t-79.5 23q-201 0 -326 -545q-26 -118 -26 -174zM436 1311q0 85 68.5 147t157.5 62q87 0 152 -65t65 -150q0 -84 -68 -147.5t-156 -63.5q-93 0 -156 64t-63 153zM532 1303q0 -67 33.5 -103.5t89.5 -36.5t91.5 42t35.5 112 q0 63 -34.5 98t-88.5 35q-56 0 -91.5 -39.5t-35.5 -107.5z" />
<glyph unicode="&#xe6;" horiz-adv-x="1374" d="M27 174q0 125 52 273t132 269.5t184 203t199 81.5q62 0 120 -42.5t99 -129.5q148 172 317 172q101 0 168.5 -49t67.5 -135q0 -109 -150.5 -201t-396.5 -137q-33 -135 -33 -223q0 -82 32 -117t97 -35q70 0 136.5 54.5t173.5 197.5l32 -16q-45 -82 -88 -143t-95.5 -111 t-114 -76t-130.5 -26q-118 0 -183.5 74t-65.5 194l127 317l-5 2q-155 -290 -278.5 -438.5t-243.5 -148.5q-72 0 -112.5 49t-40.5 141zM238 201q0 -68 41 -68q123 0 364 418q52 122 123 221q-40 84 -82 116t-94 32q-201 0 -326 -545q-26 -118 -26 -174zM831 528 q106 30 177.5 66t110 77.5t54 84.5t15.5 96q0 31 -16.5 48.5t-45.5 17.5t-57 -10t-61 -36.5t-62 -69t-59.5 -112.5t-55.5 -162z" />
<glyph unicode="&#xe7;" horiz-adv-x="823" d="M-59 -371l16 33q97 -29 158 -29q52 0 82 15.5t30 44.5q0 76 -159 94l-9 20l154 183q-89 18 -137.5 89.5t-48.5 174.5q0 70 20 152.5t55 165.5t88 160.5t114.5 137t138.5 95.5t157 36q99 0 163 -45.5t64 -134.5q0 -60 -34.5 -100.5t-85.5 -40.5q-47 0 -79 31t-32 77 q0 43 26.5 72.5t73.5 38.5v4q-35 17 -90 17q-43 0 -84.5 -18t-86.5 -60.5t-86.5 -126t-72.5 -201.5q-43 -171 -43 -260q0 -81 30.5 -115.5t94.5 -34.5q70 0 144 60.5t170 191.5l33 -16q-39 -74 -79.5 -132t-90 -108t-108 -79.5t-122.5 -34.5l-123 -109q183 -43 183 -166 q0 -59 -59.5 -99t-153.5 -40q-63 0 -120.5 17t-90.5 40z" />
<glyph unicode="&#xe8;" horiz-adv-x="823" d="M29 252q0 107 44 236.5t116 244t177.5 191.5t215.5 77q100 0 166.5 -49t66.5 -135q0 -109 -150.5 -201t-396.5 -137q-32 -131 -32 -223q0 -82 32 -117t97 -35q70 0 136 54.5t173 197.5l33 -16q-45 -82 -88 -143t-95.5 -111t-114 -76t-130.5 -26q-119 0 -184.5 74 t-65.5 194zM281 528q105 30 178 67t112 80t55.5 86t16.5 95q0 70 -61 70q-81 0 -161.5 -91t-139.5 -307zM305 1356q0 29 19 59q23 41 79 41q60 0 111 -59l156 -185l90 -59l-37 -59l-92 59l-225 86q-101 41 -101 117z" />
<glyph unicode="&#xe9;" horiz-adv-x="823" d="M29 252q0 107 44 236.5t116 244t177.5 191.5t215.5 77q100 0 166.5 -49t66.5 -135q0 -109 -150.5 -201t-396.5 -137q-32 -131 -32 -223q0 -82 32 -117t97 -35q70 0 136 54.5t173 197.5l33 -16q-45 -82 -88 -143t-95.5 -111t-114 -76t-130.5 -26q-119 0 -184.5 74 t-65.5 194zM281 528q105 30 178 67t112 80t55.5 86t16.5 95q0 70 -61 70q-81 0 -161.5 -91t-139.5 -307zM418 1153l90 59l156 185q51 59 110 59q57 0 80 -41q18 -29 18 -59q0 -77 -100 -117l-225 -86l-92 -59z" />
<glyph unicode="&#xea;" horiz-adv-x="823" d="M29 252q0 107 44 236.5t116 244t177.5 191.5t215.5 77q100 0 166.5 -49t66.5 -135q0 -109 -150.5 -201t-396.5 -137q-32 -131 -32 -223q0 -82 32 -117t97 -35q70 0 136 54.5t173 197.5l33 -16q-45 -82 -88 -143t-95.5 -111t-114 -76t-130.5 -26q-119 0 -184.5 74 t-65.5 194zM281 528q105 30 178 67t112 80t55.5 86t16.5 95q0 70 -61 70q-81 0 -161.5 -91t-139.5 -307zM319 1147q77 65 136.5 127.5t88 101.5t49.5 69.5t36 44t35 13.5q28 0 41 -12t23 -42t21.5 -69t47 -106.5t88.5 -140.5l-37 -33l-211 178l-285 -178z" />
<glyph unicode="&#xeb;" horiz-adv-x="823" d="M29 252q0 107 44 236.5t116 244t177.5 191.5t215.5 77q100 0 166.5 -49t66.5 -135q0 -109 -150.5 -201t-396.5 -137q-32 -131 -32 -223q0 -82 32 -117t97 -35q70 0 136 54.5t173 197.5l33 -16q-45 -82 -88 -143t-95.5 -111t-114 -76t-130.5 -26q-119 0 -184.5 74 t-65.5 194zM281 528q105 30 178 67t112 80t55.5 86t16.5 95q0 70 -61 70q-81 0 -161.5 -91t-139.5 -307zM289 1272q0 51 40 91t91 40t91 -40t40 -91t-40 -91t-91 -40t-91 40t-40 91zM711 1272q0 51 40 91t91 40t91 -40t40 -91t-40 -91t-91 -40t-91 40t-40 91z" />
<glyph unicode="&#xec;" horiz-adv-x="591" d="M39 635q241 366 362 366q36 0 63.5 -25.5t27.5 -74.5q0 -17 -11 -59l-200 -690l200 192l25 -25q-107 -147 -170 -220t-96.5 -94t-69.5 -21q-46 0 -68 17.5t-22 59.5q0 32 12 82l184 697l-210 -230zM152 1356q0 30 18 59q23 41 80 41q59 0 110 -59l156 -185l90 -59 l-37 -59l-92 59l-225 86q-100 40 -100 117z" />
<glyph unicode="&#xed;" horiz-adv-x="591" d="M39 635q241 366 362 366q36 0 63.5 -25.5t27.5 -74.5q0 -17 -11 -59l-200 -690l200 192l25 -25q-107 -147 -170 -220t-96.5 -94t-69.5 -21q-46 0 -68 17.5t-22 59.5q0 32 12 82l184 697l-210 -230zM223 1153l90 59l156 185q51 59 111 59q56 0 79 -41q19 -30 19 -59 q0 -77 -100 -117l-226 -86l-92 -59z" />
<glyph unicode="&#xee;" horiz-adv-x="591" d="M39 635q241 366 362 366q36 0 63.5 -25.5t27.5 -74.5q0 -17 -11 -59l-200 -690l200 192l25 -25q-107 -147 -170 -220t-96.5 -94t-69.5 -21q-46 0 -68 17.5t-22 59.5q0 32 12 82l184 697l-210 -230zM139 1147q94 79 161.5 154t91.5 114.5t46 63.5t45 24q34 0 49.5 -22 t23.5 -60.5t46 -119t103 -168.5l-37 -33l-211 178l-285 -178z" />
<glyph unicode="&#xef;" horiz-adv-x="591" d="M39 635q241 366 362 366q36 0 63.5 -25.5t27.5 -74.5q0 -17 -11 -59l-200 -690l200 192l25 -25q-107 -147 -170 -220t-96.5 -94t-69.5 -21q-46 0 -68 17.5t-22 59.5q0 32 12 82l184 697l-210 -230zM115 1272q0 51 40 91t91 40t91 -40t40 -91t-40 -91t-91 -40t-91 40 t-40 91zM537 1272q0 51 40 91t91 40t91 -40t40 -91t-40 -91t-91 -40t-91 40t-40 91z" />
<glyph unicode="&#xf0;" horiz-adv-x="948" d="M29 322q0 100 31.5 201.5t86 185.5t122.5 150.5t146 104t152 37.5q61 0 103 -22q-38 134 -115 238l-233 -152l-48 68l228 147q-53 58 -160 150l45 59q104 -58 211 -148l236 152l45 -68l-220 -141q234 -241 234 -573q0 -143 -49.5 -279t-128 -233t-177 -156t-194.5 -59 q-145 0 -230 95t-85 243zM215 195q0 -75 31 -105.5t96 -30.5q71 0 118 34t92.5 131t96.5 284q51 185 51 283q0 75 -31 105t-96 30q-71 0 -118 -34t-92.5 -131t-96.5 -284q-51 -185 -51 -282z" />
<glyph unicode="&#xf1;" horiz-adv-x="1079" d="M29 635q241 366 350 366q47 0 67 -42t5 -117l-17 -80l-137 -346l4 -2q152 287 275 437t237 150q67 0 104 -40.5t37 -124.5q0 -62 -28 -168l-156 -539l219 215l25 -25q-107 -147 -170 -220t-96.5 -94t-69.5 -21q-46 0 -68 17t-22 60q0 32 12 82l143 580q20 73 16.5 101 t-36.5 28q-124 0 -371 -426l-114 -426h-197l225 840l-211 -230zM276 1188q85 115 148.5 168t134.5 53q62 0 141 -43l109 -59q21 -12 37.5 -15t35.5 4t36.5 20t46.5 38l51 45l39 -31q-85 -115 -148.5 -168t-134.5 -53q-62 0 -141 43l-109 59q-21 12 -37.5 14.5t-35.5 -5 t-37 -20.5t-47 -38l-52 -45z" />
<glyph unicode="&#xf2;" horiz-adv-x="952" d="M29 322q0 100 31.5 201.5t85.5 186t122.5 150.5t147.5 103.5t155 37.5q145 0 230.5 -94.5t85.5 -242.5q0 -125 -49 -250t-125.5 -218.5t-175 -152.5t-193.5 -59q-145 0 -230 95t-85 243zM215 195q0 -75 31 -105.5t96 -30.5q71 0 118 34t92.5 131t96.5 284q51 185 51 283 q0 75 -31 105t-96 30q-71 0 -118 -34t-92.5 -131t-96.5 -284q-51 -185 -51 -282zM408 1356q0 30 18 59q23 41 80 41q59 0 110 -59l156 -185l90 -59l-37 -59l-92 59l-225 86q-100 40 -100 117z" />
<glyph unicode="&#xf3;" horiz-adv-x="952" d="M29 322q0 100 31.5 201.5t85.5 186t122.5 150.5t147.5 103.5t155 37.5q145 0 230.5 -94.5t85.5 -242.5q0 -125 -49 -250t-125.5 -218.5t-175 -152.5t-193.5 -59q-145 0 -230 95t-85 243zM215 195q0 -75 31 -105.5t96 -30.5q71 0 118 34t92.5 131t96.5 284q51 185 51 283 q0 75 -31 105t-96 30q-71 0 -118 -34t-92.5 -131t-96.5 -284q-51 -185 -51 -282zM479 1153l90 59l156 185q51 59 111 59q56 0 79 -41q19 -30 19 -59q0 -77 -100 -117l-226 -86l-92 -59z" />
<glyph unicode="&#xf4;" horiz-adv-x="952" d="M29 322q0 100 31.5 201.5t85.5 186t122.5 150.5t147.5 103.5t155 37.5q145 0 230.5 -94.5t85.5 -242.5q0 -125 -49 -250t-125.5 -218.5t-175 -152.5t-193.5 -59q-145 0 -230 95t-85 243zM215 195q0 -75 31 -105.5t96 -30.5q71 0 118 34t92.5 131t96.5 284q51 185 51 283 q0 75 -31 105t-96 30q-71 0 -118 -34t-92.5 -131t-96.5 -284q-51 -185 -51 -282zM356 1147q94 79 161.5 154t91.5 114.5t46 63.5t45 24q34 0 49.5 -22t23.5 -60.5t46 -119t103 -168.5l-37 -33l-211 178l-285 -178z" />
<glyph unicode="&#xf5;" horiz-adv-x="952" d="M29 322q0 100 31.5 201.5t85.5 186t122.5 150.5t147.5 103.5t155 37.5q145 0 230.5 -94.5t85.5 -242.5q0 -125 -49 -250t-125.5 -218.5t-175 -152.5t-193.5 -59q-145 0 -230 95t-85 243zM215 195q0 -75 31 -105.5t96 -30.5q71 0 118 34t92.5 131t96.5 284q51 185 51 283 q0 75 -31 105t-96 30q-71 0 -118 -34t-92.5 -131t-96.5 -284q-51 -185 -51 -282zM272 1188q85 115 148.5 168t134.5 53q62 0 141 -43l109 -59q21 -12 37.5 -15t35.5 4t36.5 20t46.5 38l51 45l39 -31q-85 -115 -148.5 -168t-134.5 -53q-62 0 -141 43l-109 59q-21 12 -38 14.5 t-36 -5t-37 -20.5t-47 -38l-51 -45z" />
<glyph unicode="&#xf6;" horiz-adv-x="952" d="M29 322q0 100 31.5 201.5t85.5 186t122.5 150.5t147.5 103.5t155 37.5q145 0 230.5 -94.5t85.5 -242.5q0 -125 -49 -250t-125.5 -218.5t-175 -152.5t-193.5 -59q-145 0 -230 95t-85 243zM215 195q0 -75 31 -105.5t96 -30.5q71 0 118 34t92.5 131t96.5 284q51 185 51 283 q0 75 -31 105t-96 30q-71 0 -118 -34t-92.5 -131t-96.5 -284q-51 -185 -51 -282zM315 1272q0 51 40 91t91 40t91.5 -40t40.5 -91t-40.5 -91t-91.5 -40t-91 40t-40 91zM737 1272q0 51 40 91t91 40t91 -40t40 -91t-40 -91t-91 -40t-91 40t-40 91z" />
<glyph unicode="&#xf7;" horiz-adv-x="1005" d="M104 543l21 96h780l-20 -96h-781zM297 250q0 52 40.5 92.5t92.5 40.5t92.5 -40.5t40.5 -92.5t-39.5 -91.5t-91.5 -39.5q-53 0 -94 39.5t-41 91.5zM442 928q2 53 40.5 93t90.5 40q53 0 94.5 -40.5t41.5 -92.5t-40.5 -91.5t-93.5 -39.5t-93.5 39.5t-39.5 91.5z" />
<glyph unicode="&#xf8;" horiz-adv-x="952" d="M-84 -84l172 201q-59 86 -59 205q0 100 31.5 201.5t85.5 186t122.5 150.5t147.5 103.5t155 37.5q118 0 203 -75l123 143h102l-174 -203q62 -91 62 -202q0 -125 -49 -250t-125.5 -218.5t-175 -152.5t-193.5 -59q-120 0 -205 75l-121 -143h-102zM217 150q9 -50 39.5 -70.5 t85.5 -20.5q71 0 118 34t92.5 131t96.5 284q27 98 43 201zM221 274l475 560q-9 50 -39 71t-84 21q-71 0 -118 -34t-92.5 -131t-96.5 -284q-32 -115 -45 -203z" />
<glyph unicode="&#xf9;" horiz-adv-x="1069" d="M29 635q241 366 350 366q80 0 80 -92q0 -49 -19 -116l-143 -531q-14 -61 -14 -80q0 -27 11.5 -38t35.5 -11q52 0 135.5 91.5t224.5 334.5l107 410h196l-233 -840l219 215l25 -25q-107 -147 -170 -220t-96.5 -94t-69.5 -21q-46 0 -68 18t-22 61q0 30 12 80l18 80l140 346 l-5 2q-77 -144 -135.5 -240.5t-122.5 -181t-124 -125t-119 -40.5q-67 0 -104.5 41.5t-37.5 126.5q0 66 27 165l139 523l-211 -230zM403 1356q0 29 19 59q23 41 80 41q59 0 110 -59l156 -185l90 -59l-37 -59l-92 59l-225 86q-101 41 -101 117z" />
<glyph unicode="&#xfa;" horiz-adv-x="1069" d="M29 635q241 366 350 366q80 0 80 -92q0 -49 -19 -116l-143 -531q-14 -61 -14 -80q0 -27 11.5 -38t35.5 -11q52 0 135.5 91.5t224.5 334.5l107 410h196l-233 -840l219 215l25 -25q-107 -147 -170 -220t-96.5 -94t-69.5 -21q-46 0 -68 18t-22 61q0 30 12 80l18 80l140 346 l-5 2q-77 -144 -135.5 -240.5t-122.5 -181t-124 -125t-119 -40.5q-67 0 -104.5 41.5t-37.5 126.5q0 66 27 165l139 523l-211 -230zM557 1153l90 59l156 185q51 59 110 59q57 0 80 -41q19 -30 19 -59q0 -76 -101 -117l-225 -86l-92 -59z" />
<glyph unicode="&#xfb;" horiz-adv-x="1069" d="M29 635q241 366 350 366q80 0 80 -92q0 -49 -19 -116l-143 -531q-14 -61 -14 -80q0 -27 11.5 -38t35.5 -11q52 0 135.5 91.5t224.5 334.5l107 410h196l-233 -840l219 215l25 -25q-107 -147 -170 -220t-96.5 -94t-69.5 -21q-46 0 -68 18t-22 61q0 30 12 80l18 80l140 346 l-5 2q-77 -144 -135.5 -240.5t-122.5 -181t-124 -125t-119 -40.5q-67 0 -104.5 41.5t-37.5 126.5q0 66 27 165l139 523l-211 -230zM389 1147q94 79 161.5 154t91.5 114.5t46 63.5t45 24q28 0 41 -12t23 -42t21.5 -69t47 -106.5t88.5 -140.5l-36 -33l-211 178l-285 -178z" />
<glyph unicode="&#xfc;" horiz-adv-x="1069" d="M29 635q241 366 350 366q80 0 80 -92q0 -49 -19 -116l-143 -531q-14 -61 -14 -80q0 -27 11.5 -38t35.5 -11q52 0 135.5 91.5t224.5 334.5l107 410h196l-233 -840l219 215l25 -25q-107 -147 -170 -220t-96.5 -94t-69.5 -21q-46 0 -68 18t-22 61q0 30 12 80l18 80l140 346 l-5 2q-77 -144 -135.5 -240.5t-122.5 -181t-124 -125t-119 -40.5q-67 0 -104.5 41.5t-37.5 126.5q0 66 27 165l139 523l-211 -230zM336 1272q0 51 40 91t91 40t91 -40t40 -91t-40 -91t-91 -40t-91 40t-40 91zM758 1272q0 51 40 91t91 40t91 -40t40 -91t-40 -91t-91 -40 t-91 40t-40 91z" />
<glyph unicode="&#xfd;" horiz-adv-x="970" d="M-348 -219q0 64 38.5 99.5t86.5 35.5q44 0 76 -32t32 -74q0 -51 -32 -78.5t-82 -32.5v-4q21 -12 79 -12q123 0 231 35.5t220 117.5q23 152 23 379q0 208 -14.5 378t-35.5 249l-217 -232l-26 25q141 218 209 292t129 74q49 0 76 -45.5t43 -191.5t16 -422q0 -205 -25 -346 q162 174 257.5 394.5t90.5 408.5h-4q-67 -24 -106 9t-39 89q0 47 30.5 75.5t77.5 28.5q64 0 102 -48.5t38 -145.5q0 -146 -61.5 -322t-182.5 -354.5t-276 -302.5q-134 -109 -268.5 -162t-284.5 -53q-95 0 -148 44t-53 124zM498 1153l90 59l155 185q51 59 111 59q57 0 80 -41 q18 -29 18 -59q0 -77 -100 -117l-225 -86l-92 -59z" />
<glyph unicode="&#xfe;" horiz-adv-x="978" d="M-279 -369l19 72h151l422 1583l-147 62l8 26l348 127h41l-135 -514q65 14 119 14q166 0 258 -102.5t84 -267.5q-9 -190 -109.5 -340t-262.5 -227.5t-351 -67.5l-76 -293h176l-18 -72h-527zM182 59q65 6 111.5 15t94.5 27t83 46t68.5 71t59.5 104t48 143q41 158 41 254 q0 99 -43.5 145.5t-136.5 46.5q-56 0 -105 -12z" />
<glyph unicode="&#xff;" horiz-adv-x="970" d="M-348 -219q0 64 38.5 99.5t86.5 35.5q44 0 76 -32t32 -74q0 -51 -32 -78.5t-82 -32.5v-4q21 -12 79 -12q123 0 231 35.5t220 117.5q23 152 23 379q0 208 -14.5 378t-35.5 249l-217 -232l-26 25q141 218 209 292t129 74q49 0 76 -45.5t43 -191.5t16 -422q0 -205 -25 -346 q162 174 257.5 394.5t90.5 408.5h-4q-67 -24 -106 9t-39 89q0 47 30.5 75.5t77.5 28.5q64 0 102 -48.5t38 -145.5q0 -146 -61.5 -322t-182.5 -354.5t-276 -302.5q-134 -109 -268.5 -162t-284.5 -53q-95 0 -148 44t-53 124zM291 1272q0 51 40 91t91 40t91 -40t40 -91t-40 -91 t-91 -40t-91 40t-40 91zM713 1272q0 51 40 91t91 40t91 -40t40 -91t-40 -91t-91 -40t-91 40t-40 91z" />
<glyph unicode="&#x152;" horiz-adv-x="2187" d="M86 598q0 158 63.5 310.5t167 265.5t242.5 182t283 69q166 0 281.5 -84t169 -224t53.5 -324q0 -11 -5 -74q75 33 123 47q-75 112 -75 246q0 117 64 212t173 148t240 53q159 0 248.5 -58t89.5 -165q0 -58 -38 -98.5t-87 -40.5q-50 0 -84.5 34t-34.5 83q0 77 104 114v4 q-78 33 -172 33q-165 0 -246 -121t-81 -346q0 -39 6 -76q55 9 106 9q49 0 79 -19t30 -53q0 -46 -39.5 -68t-79.5 -22q-93 0 -174 94q-79 -53 -135.5 -136t-79.5 -187q-19 -89 -19.5 -160t16.5 -117.5t42.5 -79.5t63 -50t74 -24.5t79.5 -7.5q288 0 494 367l49 -25 q-92 -221 -241.5 -336.5t-344.5 -115.5q-159 0 -278 80t-158 219q-206 -172 -447 -172q-121 0 -221.5 52t-165 138.5t-100 196t-35.5 227.5zM307 432q0 -356 303 -356q89 0 162.5 29.5t140.5 97t119.5 187t89.5 288.5q35 153 35 280q0 195 -84.5 284t-232.5 89 q-95 0 -167 -28.5t-134.5 -97.5t-110.5 -188.5t-86 -297.5q-35 -158 -35 -287z" />
<glyph unicode="&#x153;" horiz-adv-x="1396" d="M29 322q0 100 31.5 201.5t85.5 186t122.5 150.5t147.5 103.5t155 37.5q114 0 178.5 -50t86.5 -152q56 93 136.5 147.5t180.5 54.5q101 0 168.5 -49t67.5 -135q0 -109 -150.5 -201t-396.5 -137q-33 -135 -33 -223q0 -82 32 -117t97 -35q70 0 136 54.5t173 197.5l33 -16 q-45 -82 -88 -143t-95.5 -111t-114 -76t-130.5 -26q-80 0 -133.5 51.5t-50.5 146.5q-49 -98 -134.5 -148t-189.5 -50q-145 0 -230 95t-85 243zM215 195q0 -75 31 -105.5t96 -30.5q71 0 118 34t92.5 131t96.5 284q51 185 51 283q0 75 -31 105t-96 30q-71 0 -118 -34 t-92.5 -131t-96.5 -284q-51 -185 -51 -282zM854 528q105 30 178 67t112.5 80t56 86.5t16.5 94.5q0 34 -16.5 52t-45.5 18q-81 0 -161.5 -91t-139.5 -307z" />
<glyph unicode="&#x178;" horiz-adv-x="1337" d="M115 1098q0 59 20 116t57.5 105t99 77t136.5 29q164 0 258 -137t94 -409q0 -37 -4 -119q48 133 105.5 248t125.5 211t145.5 151t154.5 55q73 0 115 -42.5t42 -110.5q0 -67 -37.5 -110.5t-89.5 -43.5q-46 0 -77 25.5t-31 68.5q0 39 27 68t77 33v4q-64 18 -129 -25 q-130 -86 -268 -341.5t-195 -532.5l-65 -316l182 -41l-14 -61h-600l14 61l199 41l51 236q76 350 76 575q0 207 -56.5 305.5t-144.5 98.5q-94 0 -141 -63.5t-47 -166.5q0 -80 20 -122h4q19 114 121 114q45 0 74.5 -32.5t29.5 -79.5q0 -52 -35.5 -88.5t-95.5 -36.5 q-87 0 -142.5 70.5t-55.5 185.5zM551 1665q0 51 40 91t91 40t91 -40t40 -91t-40 -91t-91 -40t-91 40t-40 91zM973 1665q0 51 40 91t91 40t91 -40t40 -91t-40 -91t-91 -40t-91 40t-40 91z" />
<glyph unicode="&#x2c6;" horiz-adv-x="1024" d="M350 1147q94 79 161.5 154t91.5 114.5t46 63.5t45 24q28 0 41 -12t23 -42t21.5 -69t47 -106.5t88.5 -140.5l-36 -33l-211 178l-285 -178z" />
<glyph unicode="&#x2dc;" horiz-adv-x="1021" d="M270 1188q85 115 148.5 168t134.5 53q62 0 141 -43l109 -59q21 -12 37.5 -15t35 4t36 20t46.5 38l52 45l39 -31q-85 -115 -148.5 -168t-134.5 -53q-62 0 -141 43l-109 59q-21 12 -38 14.5t-36 -5t-37 -20.5t-47 -38l-51 -45z" />
<glyph unicode="&#x2000;" horiz-adv-x="948" />
<glyph unicode="&#x2001;" horiz-adv-x="1896" />
<glyph unicode="&#x2002;" horiz-adv-x="948" />
<glyph unicode="&#x2003;" horiz-adv-x="1896" />
<glyph unicode="&#x2004;" horiz-adv-x="632" />
<glyph unicode="&#x2005;" horiz-adv-x="474" />
<glyph unicode="&#x2006;" horiz-adv-x="316" />
<glyph unicode="&#x2007;" horiz-adv-x="316" />
<glyph unicode="&#x2008;" horiz-adv-x="237" />
<glyph unicode="&#x2009;" horiz-adv-x="379" />
<glyph unicode="&#x200a;" horiz-adv-x="105" />
<glyph unicode="&#x2010;" horiz-adv-x="675" d="M104 489l35 156h428l-35 -156h-428z" />
<glyph unicode="&#x2011;" horiz-adv-x="675" d="M104 489l35 156h428l-35 -156h-428z" />
<glyph unicode="&#x2012;" horiz-adv-x="675" d="M104 489l35 156h428l-35 -156h-428z" />
<glyph unicode="&#x2013;" horiz-adv-x="1148" d="M139 514l23 107h842l-23 -107h-842z" />
<glyph unicode="&#x2014;" horiz-adv-x="1865" d="M139 514l23 107h1558l-22 -107h-1559z" />
<glyph unicode="&#x2018;" horiz-adv-x="471" d="M209 1116q0 94 72.5 185t203.5 133l17 -31q-73 -49 -109.5 -97t-42.5 -102l4 -4q24 1 51.5 -8t52.5 -39.5t25 -77.5q0 -53 -39 -89t-92 -36q-59 0 -101 42.5t-42 123.5z" />
<glyph unicode="&#x2019;" horiz-adv-x="471" d="M227 965q141 95 152 198l-4 4q-24 -1 -51.5 8t-52.5 39.5t-25 77.5q0 53 39 89t92 36q59 0 101 -42.5t42 -123.5q0 -94 -72 -184.5t-204 -132.5z" />
<glyph unicode="&#x201a;" horiz-adv-x="512" d="M2 -188q141 95 152 198l-4 4q-24 -1 -51.5 8t-53 39.5t-25.5 77.5q0 53 39 89t93 36q59 0 101 -42.5t42 -123.5q0 -94 -72.5 -184.5t-204.5 -132.5z" />
<glyph unicode="&#x201c;" horiz-adv-x="860" d="M209 1116q0 94 72.5 185t203.5 133l17 -31q-73 -49 -109.5 -97t-42.5 -102l4 -4q24 1 51.5 -8t52.5 -39.5t25 -77.5q0 -53 -39 -89t-92 -36q-59 0 -101 42.5t-42 123.5zM598 1116q0 94 72.5 185t203.5 133l17 -31q-73 -49 -109.5 -97t-42.5 -102l4 -4q24 1 51.5 -8 t52.5 -39.5t25 -77.5q0 -53 -39 -89t-92 -36q-59 0 -101 42.5t-42 123.5z" />
<glyph unicode="&#x201d;" horiz-adv-x="860" d="M227 965q141 95 152 198l-4 4q-24 -1 -51.5 8t-52.5 39.5t-25 77.5q0 53 39 89t92 36q59 0 101 -42.5t42 -123.5q0 -94 -72 -184.5t-204 -132.5zM616 965q141 95 152 198l-4 4q-24 -1 -51.5 8t-52.5 39.5t-25 77.5q0 53 39 89t92 36q59 0 101 -42.5t42 -123.5 q0 -94 -72 -184.5t-204 -132.5z" />
<glyph unicode="&#x201e;" horiz-adv-x="901" d="M2 -188q141 95 152 198l-4 4q-24 -1 -51.5 8t-53 39.5t-25.5 77.5q0 53 39 89t93 36q59 0 101 -42.5t42 -123.5q0 -94 -72.5 -184.5t-204.5 -132.5zM391 -188q141 95 152 198l-4 4q-24 -1 -51.5 8t-52.5 39.5t-25 77.5q0 53 39 89t92 36q59 0 101 -42.5t42 -123.5 q0 -94 -72 -184.5t-204 -132.5z" />
<glyph unicode="&#x2022;" horiz-adv-x="765" d="M125 606q0 104 80.5 185t183.5 81q104 0 184 -81t80 -185q0 -103 -80 -181.5t-184 -78.5q-103 0 -183.5 79t-80.5 181z" />
<glyph unicode="&#x2026;" horiz-adv-x="1490" d="M33 127q0 57 44 101t101 44t101.5 -44t44.5 -101t-44.5 -100t-101.5 -43t-101 43t-44 100zM504 127q0 57 44 101t101 44t101.5 -44t44.5 -101t-44.5 -100t-101.5 -43t-101 43t-44 100zM975 127q0 57 44 101t101 44t101.5 -44t44.5 -101t-44.5 -100t-101.5 -43t-101 43 t-44 100z" />
<glyph unicode="&#x202f;" horiz-adv-x="379" />
<glyph unicode="&#x2039;" horiz-adv-x="552" d="M29 479l6 60l469 325l41 -45l-316 -364l160 -324l-61 -47z" />
<glyph unicode="&#x203a;" horiz-adv-x="550" d="M-37 129l316 365l-160 323l61 47l299 -395l-6 -59l-469 -326z" />
<glyph unicode="&#x205f;" horiz-adv-x="474" />
<glyph unicode="&#x20ac;" horiz-adv-x="1165" d="M35 412l20 90h135q3 68 19 145h-123l20 90h127q72 221 245.5 350.5t377.5 129.5q134 0 214.5 -66t80.5 -162q0 -70 -38.5 -112.5t-96.5 -42.5q-53 0 -87 31t-34 81q0 58 44.5 91t109.5 22l2 2q-19 32 -67 53t-116 21q-133 0 -240 -94.5t-169 -303.5h370l-20 -90h-373 q0 -2 -1 -6t-1 -6q-17 -85 -22 -133h366l-20 -90h-352q-3 -168 59 -252t170 -84q174 0 328 151l45 -47q-170 -196 -412 -196q-185 0 -289 119.5t-117 308.5h-155z" />
<glyph unicode="&#x2122;" horiz-adv-x="1970" d="M217 1120l16 289h662l16 -289l-34 -8l-115 225l-115 17v-578l113 -24v-47h-389v47l110 24v578l-114 -17l-115 -225zM993 705v47l97 24v561l-97 25v47h297l180 -475l172 475h295v-47l-88 -25v-561l88 -24v-47h-338v47l84 24v543l-221 -590h-65l-242 590l31 -543l84 -24 v-47h-277z" />
<glyph unicode="&#xe000;" horiz-adv-x="1003" d="M0 0v1004h1004v-1004h-1004z" />
<glyph unicode="&#xfb01;" horiz-adv-x="1044" d="M-311 -236q0 52 31.5 82.5t70.5 30.5q36 0 62 -25t26 -59q0 -41 -28.5 -67t-73.5 -29v-4q23 -10 71 -10q120 0 148 127l246 1060h-164l8 37l176 51l27 117q30 134 81 231t116.5 151t134.5 78t149 24q113 0 176.5 -56t63.5 -143q0 -57 -37 -96t-88 -39q-49 0 -80 29 t-31 71q0 56 29.5 88t87.5 35v4q-8 9 -37 17t-59 8q-108 0 -173 -57t-98 -185l-67 -266h315q46 32 82 32q47 0 75 -40t5 -119l-201 -690l201 192l24 -25q-107 -147 -170 -220t-96 -94t-69 -21q-64 0 -82 33.5t4 125.5l192 727h-305l-244 -966q-72 -291 -303 -291 q-93 0 -144.5 41.5t-51.5 109.5z" />
<glyph unicode="&#xfb02;" horiz-adv-x="1046" d="M-311 -236q0 52 31.5 82.5t70.5 30.5q36 0 62 -25t26 -59q0 -41 -28.5 -67t-73.5 -29v-4q23 -10 71 -10q120 0 148 127l246 1060h-164l8 37l176 51l45 199q47 205 159.5 303.5t262.5 98.5q82 0 139.5 -31t81.5 -84l113 57h41l-365 -1349l201 192l25 -25 q-107 -147 -170 -220t-96.5 -94t-69.5 -21q-64 0 -82 33.5t4 125.5l285 1094q-40 4 -65.5 33t-25.5 67q0 52 28 82t83 33v4q-26 21 -102 21q-93 0 -143 -48t-79 -165l-75 -295h202l-22 -99h-205l-244 -966q-72 -291 -303 -291q-93 0 -144.5 41.5t-51.5 109.5z" />
</font>
</defs>
</svg>
