<?xml version="1.0" standalone="no"?>
<!DOCTYPE svg PUBLIC "-//W3C//DTD SVG 1.1//EN" "http://www.w3.org/Graphics/SVG/1.1/DTD/svg11.dtd" >
<svg xmlns="http://www.w3.org/2000/svg">
<metadata></metadata>
<defs>
<font id="farnhamdisplay-lightitalRg" horiz-adv-x="1024" >
<font-face units-per-em="2048" ascent="1638" descent="-410" />
<missing-glyph horiz-adv-x="368" />
<glyph horiz-adv-x="2048" />
<glyph horiz-adv-x="2048" />
<glyph unicode="&#xd;" horiz-adv-x="2048" />
<glyph unicode=" "  horiz-adv-x="368" />
<glyph unicode="&#x09;" horiz-adv-x="368" />
<glyph unicode="&#xa0;" horiz-adv-x="368" />
<glyph unicode="!" horiz-adv-x="581" d="M74 106q0 50 34.5 84.5t79.5 34.5q47 0 82 -34.5t35 -84.5q0 -49 -35 -82.5t-82 -33.5q-45 0 -79.5 34t-34.5 82zM209 395l63 301l58 561q6 83 34 125.5t85 42.5q48 0 71 -30.5t23 -81.5q0 -40 -17 -96l-182 -535l-61 -287h-74z" />
<glyph unicode="&#x22;" horiz-adv-x="792" d="M276 936l25 111l-16 225q-9 153 112 153q41 0 70 -27.5t29 -76.5q0 -43 -29 -100l-96 -187l-21 -98h-74zM602 936l25 111l-17 225q-9 153 113 153q41 0 69.5 -27.5t28.5 -76.5q0 -45 -28 -100l-97 -187l-20 -98h-74z" />
<glyph unicode="#" horiz-adv-x="1060" d="M154 719l41 131l194 -37l66 221l-199 37l41 131l197 -37l69 242h80l-74 -256l201 -37l84 293h80l-90 -307l198 -35l-41 -131l-194 37l-66 -223l199 -35l-41 -131l-194 34l-72 -243h-80l76 258l-201 37l-86 -295h-80l90 309zM467 799l201 -37l63 223l-201 37z" />
<glyph unicode="$" horiz-adv-x="1021" d="M20 303q0 61 37 100t90 39q49 0 84 -32t35 -78q0 -25 -7.5 -46.5t-25.5 -40.5t-47.5 -24t-74.5 4l-2 -4q64 -125 241 -153l131 616q-56 55 -91.5 94.5t-73.5 93t-57 108.5t-19 112q0 144 96.5 238.5t275.5 94.5h25l41 189h72l-43 -197q129 -25 206.5 -108t77.5 -179 q0 -64 -35.5 -100.5t-83.5 -36.5q-45 0 -78.5 30.5t-33.5 74.5q0 53 36.5 85t104.5 13l2 4q-17 43 -69.5 83.5t-143.5 57.5l-112 -530q7 -7 42.5 -40.5t45 -42.5t40.5 -40.5t41.5 -44.5t35 -42t34 -46t25.5 -44.5t22 -49t11.5 -47.5t5.5 -52q0 -185 -113.5 -281.5 t-296.5 -96.5q-22 0 -68 4l-41 -197h-71l43 207q-147 28 -230.5 113.5t-83.5 191.5zM362 1155q0 -72 41.5 -141t116.5 -146l101 482h-25q-111 0 -172.5 -54t-61.5 -141zM420 59h41q142 0 214.5 61t72.5 169q0 44 -16 87.5t-48.5 88t-64 79.5t-80.5 83z" />
<glyph unicode="%" horiz-adv-x="1748" d="M174 985q0 95 33.5 179t87.5 140t119.5 88.5t130.5 32.5q119 0 187.5 -97t68.5 -241q0 -95 -33.5 -179t-87.5 -140t-119.5 -88.5t-130.5 -32.5q-118 0 -187 98.5t-69 239.5zM303 879q0 -166 127 -166q151 0 215 303q23 115 23 174q0 170 -127 170q-74 0 -127 -68.5 t-88 -234.5q-23 -103 -23 -178zM313 0l1071 1407h105l-1071 -1407h-105zM1001 322q0 95 33.5 179t87.5 140t119.5 88.5t130.5 32.5q119 0 187.5 -97t68.5 -241q0 -95 -33.5 -179t-87.5 -140t-119.5 -88.5t-130.5 -32.5q-118 0 -187 98.5t-69 239.5zM1130 215 q0 -166 127 -166q152 0 216 303q22 110 22 174q0 170 -127 170q-74 0 -127 -68.5t-88 -234.5q-23 -104 -23 -178z" />
<glyph unicode="&#x26;" horiz-adv-x="1548" d="M63 465q0 175 101.5 291t249.5 153q-72 91 -72 201q0 67 21.5 122t56 90t79 59t89 34t88.5 10q132 0 210.5 -68.5t78.5 -158.5q0 -51 -34.5 -85t-80.5 -34q-43 0 -72.5 30t-29.5 69q0 47 37.5 80t101.5 20v4q-21 30 -68.5 54t-116.5 24q-126 0 -198 -73t-72 -204 q0 -97 49 -161q66 9 135 -4q33 -6 51 -30.5t9 -51.5q-14 -45 -82 -37q-80 9 -145 71q-104 -42 -162 -132.5t-58 -219.5q0 -92 26 -167t81.5 -135t152.5 -93t230 -33q120 0 214 41.5t148.5 109.5t82.5 147.5t28 164.5q0 117 -47 217q-85 -17 -144.5 -35.5t-113.5 -47 t-81.5 -70t-27.5 -95.5q0 -57 23 -86h4q0 47 22 69.5t58 22.5q30 0 51.5 -21.5t21.5 -53.5q0 -34 -25 -60t-69 -26q-58 0 -102.5 45.5t-44.5 119.5q0 32 8 61.5t20 53.5t33.5 46.5t41 39t50.5 34t55 29t60 26t60 23t62 22t58 20.5q60 22 103.5 41t94 51.5t82.5 69t53.5 90.5 t21.5 118q0 57 -18 98t-45 60.5t-60 28.5t-60 8t-47 -8v-4q94 -12 94 -101q0 -35 -26.5 -60.5t-67.5 -25.5q-44 0 -75 32t-31 81q0 64 48.5 99.5t117.5 35.5q53 0 100.5 -16.5t87.5 -50.5t64 -92.5t24 -135.5q0 -97 -33.5 -171.5t-94 -123t-130 -78.5t-156.5 -49 q64 -109 64 -245q1 -82 -20.5 -159.5t-71 -150t-121 -126.5t-180 -86.5t-240.5 -32.5q-159 0 -289 55.5t-210.5 166.5t-80.5 259z" />
<glyph unicode="'" horiz-adv-x="466" d="M276 936l25 111l-16 225q-9 153 112 153q41 0 70 -27.5t29 -76.5q0 -43 -29 -100l-96 -187l-21 -98h-74z" />
<glyph unicode="(" horiz-adv-x="677" d="M104 473q-1 152 37.5 294t97.5 250.5t146.5 211t168.5 174t179 141.5l41 -53q-102 -86 -168.5 -156t-126.5 -164t-103 -212t-79 -281q-41 -180 -41 -359q0 -311 137 -585l-57 -31q-232 385 -232 770z" />
<glyph unicode=")" horiz-adv-x="677" d="M-74 -244q102 86 168.5 156t126.5 164t103 212t79 281q41 180 41 359q0 311 -137 585l58 31q231 -384 231 -770q1 -152 -37.5 -294t-97.5 -250.5t-146.5 -211t-168.5 -174t-179 -141.5z" />
<glyph unicode="*" horiz-adv-x="833" d="M241 1166.5q-27 41.5 1 82.5q24 41 67 41q49 0 94 -59l50 -68l39 -22l-31 -51l-39 20l-86 8q-68 7 -95 48.5zM262 895q0 29 22 54.5t66 39.5l84 29l31 26l41 -45l-31 -30l-35 -78q-38 -80 -96 -80q-33 0 -59 29q-23 26 -23 55zM522 1284q-17 69 15 106.5t84 26.5 q29 -6 46 -27.5t17 -50.5q0 -40 -31 -82l-53 -69l-8 -41l-57 12l8 43zM551 989l55 25l17 -37l65 -59q49 -46 49 -91q0 -50 -51 -73q-44 -22 -82 9.5t-39 100.5v84zM623 1114l43 4l73 41q43 21 76 21q34 0 54.5 -19t23.5 -51q5 -50 -34.5 -76.5t-104.5 -5.5l-84 29l-41 -4z " />
<glyph unicode="+" horiz-adv-x="1015" d="M129 596l14 72h342l78 364h82l-78 -364h342l-14 -72h-342l-78 -367h-82l78 367h-342z" />
<glyph unicode="," horiz-adv-x="563" d="M18 -188q82 51 122 95.5t46 92.5l-4 4q-21 -2 -46 5t-47.5 33.5t-22.5 68.5q0 47 34 80.5t80 33.5q50 0 86.5 -39t36.5 -110q0 -85 -70.5 -173t-193.5 -128z" />
<glyph unicode="-" horiz-adv-x="690" d="M129 502l25 116h399l-25 -116h-399z" />
<glyph unicode="." horiz-adv-x="563" d="M66 106q0 50 34.5 84.5t79.5 34.5q47 0 82 -34.5t35 -84.5q0 -49 -35 -82.5t-82 -33.5q-45 0 -79.5 34t-34.5 82z" />
<glyph unicode="/" horiz-adv-x="765" d="M-98 -270l880 1771h101l-881 -1771h-100z" />
<glyph unicode="0" horiz-adv-x="1212" d="M88 557q0 173 55.5 335t145.5 278t208.5 185.5t241.5 69.5q91 0 164.5 -30.5t124 -84t84 -128.5t49 -162t15.5 -186q0 -175 -58.5 -335t-153 -271.5t-216.5 -177.5t-246 -66q-87 0 -157 30.5t-117.5 83t-79 125.5t-46 156.5t-14.5 177.5zM238 399q0 -338 262 -338 q357 0 493 652q33 149 33 272q0 183 -75 272t-212 89q-175 0 -283 -151t-184 -511q-34 -151 -34 -285z" />
<glyph unicode="1" horiz-adv-x="796" d="M-18 0l12 57l250 35l237 1118l-237 66l12 51q46 -4 66 -4q183 0 315 102h49l-283 -1333l240 -35l-12 -57h-649z" />
<glyph unicode="2" horiz-adv-x="1060" d="M-47 0v61q160 120 259 196.5t198.5 159t155.5 140t105.5 121.5t75 122t39.5 124q13 67 13 118q0 135 -70.5 216t-212.5 81q-140 0 -203 -92v-4q68 7 108 -30t40 -93q0 -52 -36 -84t-91 -32q-56 0 -91.5 41t-35.5 90q0 124 113 207t270 83q186 0 289.5 -104.5 t103.5 -278.5q0 -72 -25 -144.5t-65.5 -138t-106 -136t-133.5 -130t-162 -129.5t-176.5 -125.5t-191.5 -125.5l614 53l142 203h45l-84 -369h-887z" />
<glyph unicode="3" horiz-adv-x="950" d="M-6 242q0 57 36.5 94t84.5 37q46 0 77 -33t31 -74q0 -51 -31.5 -82.5t-95.5 -27.5l-2 -4q27 -36 90.5 -64.5t161.5 -28.5q175 0 267 85.5t92 232.5q0 83 -28 146.5t-76.5 100.5t-107 55.5t-124.5 18.5q-58 0 -115 -14l-12 45q77 23 138.5 46.5t125.5 58t106.5 72.5 t69.5 90.5t27 111.5q0 98 -52 157.5t-149 59.5q-96 0 -155.5 -52t-59.5 -155q0 -28 6 -63l-25 -8q-38 62 -38 129q0 116 91.5 182.5t223.5 66.5q143 0 226 -80.5t83 -209.5q0 -64 -27 -120t-73 -96t-100.5 -68.5t-116.5 -45.5v-6q49 -10 95 -29.5t89 -52t75 -74t51 -99.5 t19 -124q0 -86 -35 -164.5t-99 -139t-162 -96.5t-216 -36q-167 0 -266.5 76.5t-99.5 181.5z" />
<glyph unicode="4" horiz-adv-x="1153" d="M41 332l2 90l860 987h141l-206 -973h186l-23 -104h-186l-70 -332h-159l69 332h-614zM139 436h539l164 770z" />
<glyph unicode="5" horiz-adv-x="933" d="M6 233q0 60 35 99t84 39q44 0 77.5 -30t33.5 -75q0 -55 -35.5 -85.5t-102.5 -24.5v-4q29 -37 91.5 -67t166.5 -30q156 0 250 90t94 224q0 159 -133.5 266t-369.5 127l-23 33l199 614h499l115 145h45l-119 -301l-520 21l-82 -342q158 -27 275.5 -90.5t187.5 -169.5 t70 -244q0 -193 -130 -318.5t-345 -125.5q-159 0 -261 71.5t-102 177.5z" />
<glyph unicode="6" horiz-adv-x="1052" d="M70 420q0 268 136.5 478t383.5 346t594 202l8 -45q-254 -82 -419.5 -171t-264.5 -188.5t-180 -244.5q113 110 276 110q170 0 260 -112.5t90 -288.5q0 -136 -63.5 -254.5t-183.5 -193t-269 -74.5q-90 0 -162 37t-116 99t-67 139t-23 161zM211 313q0 -138 62.5 -201 t166.5 -63q252 0 334 391q17 90 17 142q0 126 -58 193t-155 67q-128 0 -215 -84t-125 -246q-27 -117 -27 -199z" />
<glyph unicode="7" horiz-adv-x="1005" d="M205 1032l76 377h847l-4 -84q-303 -382 -401 -522q-167 -238 -213 -410q-29 -106 -25 -221q3 -95 -20.5 -141.5t-81.5 -46.5q-46 0 -77.5 35t-31.5 96q0 374 734 1157l-648 -23l-110 -217h-45z" />
<glyph unicode="8" horiz-adv-x="1110" d="M66 395q0 114 58 207t148.5 146.5t198.5 70.5q-69 39 -109 110t-40 161q0 143 105.5 239t262.5 96q151 0 233.5 -85t82.5 -220q0 -119 -77 -206.5t-190 -120.5q113 -42 174.5 -133.5t61.5 -204.5q0 -134 -69 -243t-182 -168.5t-245 -59.5q-100 0 -180.5 33.5t-130 91.5 t-76 131t-26.5 155zM217 315q0 -131 69.5 -197.5t190.5 -66.5q53 0 96.5 12.5t90 45.5t82.5 101t57 169q16 78 16 133q0 133 -70.5 195.5t-185.5 62.5q-54 0 -97.5 -11.5t-91 -44t-84.5 -101t-59 -171.5q-14 -66 -14 -127zM463 1018q0 -96 48.5 -141.5t123.5 -45.5 q165 0 215 238q12 56 12 100q0 95 -47.5 140t-124.5 45q-168 0 -217 -242q-10 -44 -10 -94z" />
<glyph unicode="9" horiz-adv-x="1048" d="M-23 8q338 111 519.5 251.5t289.5 361.5q-113 -119 -282 -119t-257.5 112t-88.5 289q0 136 62 254.5t180.5 193t267.5 74.5q180 0 274 -118t94 -308q0 -394 -272.5 -663t-775.5 -373zM317 825q0 -124 57 -190t152 -66q130 0 217 81.5t125 242.5q27 114 27 199 q0 137 -61 202.5t-168 65.5q-127 0 -209 -97t-123 -294q-17 -75 -17 -144z" />
<glyph unicode=":" horiz-adv-x="579" d="M74 106q0 50 34.5 84.5t79.5 34.5q47 0 82 -34.5t35 -84.5q0 -49 -35 -82.5t-82 -33.5q-45 0 -79.5 34t-34.5 82zM195 672q0 50 34.5 84.5t79.5 34.5q47 0 82 -34.5t35 -84.5q0 -49 -35 -83t-82 -34q-45 0 -79.5 34t-34.5 83z" />
<glyph unicode=";" horiz-adv-x="579" d="M27 -188q82 51 122 95.5t46 92.5l-5 4q-21 -2 -46 5t-47.5 33.5t-22.5 68.5q0 47 34 80.5t80 33.5q50 0 86.5 -39t36.5 -110q0 -85 -70.5 -173t-193.5 -128zM195 672q0 50 34.5 84.5t79.5 34.5q47 0 82 -34.5t35 -84.5q0 -49 -35 -83t-82 -34q-45 0 -79.5 34t-34.5 83z " />
<glyph unicode="&#x3c;" horiz-adv-x="808" d="M86 678l16 72q348 11 633 272l43 -57q-97 -102 -241 -179t-291 -100q244 -141 389 -428l-66 -39q-92 165 -205.5 275.5t-277.5 183.5z" />
<glyph unicode="=" horiz-adv-x="1005" d="M98 446l17 72h753l-16 -72h-754zM160 745l16 72h754l-17 -72h-753z" />
<glyph unicode="&#x3e;" horiz-adv-x="808" d="M49 276q97 101 241.5 178.5t291.5 100.5q-244 141 -389 428l65 39q92 -165 205.5 -275.5t277.5 -183.5l-16 -71q-347 -11 -633 -273z" />
<glyph unicode="?" horiz-adv-x="847" d="M147 111q0 50 38 88.5t89 38.5q49 0 87 -38.5t38 -88.5q0 -51 -37.5 -89t-87.5 -38q-51 0 -89 38t-38 89zM195 1180q0 42 22 85t61.5 79t103 58.5t138.5 22.5q153 0 246.5 -88.5t93.5 -222.5q0 -132 -80.5 -218.5t-290.5 -178.5q-93 -41 -130 -81t-37 -89t36 -78.5 t127 -36.5v-45q-40 -10 -63 -10q-75 0 -132 46t-57 122q0 21 4.5 41.5t9.5 37t19 35.5t21.5 31t29.5 31t30.5 27t37 27.5t36.5 25t41 27t40 26.5q57 37 88.5 60.5t64 58.5t46.5 75t14 91q0 96 -59.5 148t-161.5 52q-65 0 -117.5 -18t-88 -59t-38.5 -101h4q24 49 76 49 q40 0 67 -27t27 -71q0 -37 -26 -64.5t-66 -27.5q-65 0 -101 46t-36 114z" />
<glyph unicode="@" horiz-adv-x="1675" d="M63 311q0 116 33 235t92 228t145.5 204.5t188 166t224.5 111t251 40.5q256 0 426 -159t170 -408q0 -192 -64 -368t-172.5 -285t-230.5 -109q-102 0 -159.5 62t-40.5 174l4 28l135 361l-6 2q-60 -120 -109.5 -208t-103 -167t-101 -128.5t-98.5 -78t-102 -28.5 q-133 0 -133 174q0 96 27.5 207.5t79 217t116.5 192t147.5 139.5t165.5 53q92 0 150 -86l20 75h150l-199 -774q-14 -61 -14 -86q0 -35 16.5 -50t50.5 -15q99 0 178 95.5t121.5 252t42.5 340.5q0 242 -121.5 374t-347.5 132q-162 0 -308.5 -75t-249.5 -199t-163.5 -289 t-60.5 -340q0 -295 129 -437.5t397 -142.5q243 0 496 100l18 -51q-244 -127 -528 -127q-200 0 -352 86t-231 232t-79 329zM561 160q0 -80 45 -80q24 0 57.5 22.5t83.5 75t120 157t151 249.5l63 239q-46 82 -145 82q-106 0 -189.5 -127.5t-152.5 -415.5q-33 -135 -33 -202z " />
<glyph unicode="A" horiz-adv-x="1452" d="M-72 0l13 57l186 35l1204 1338h64l-283 -1338l150 -35l-13 -57h-506l13 57l194 35l109 492h-389l-430 -494l170 -33l-13 -57h-469zM733 655h342l119 527z" />
<glyph unicode="B" horiz-adv-x="1175" d="M-35 0l12 57l201 35l258 1225l-186 35l12 57h494q174 0 274 -85t100 -230q0 -151 -93 -234.5t-257 -118.5v-8q143 -21 227.5 -106.5t84.5 -220.5q0 -101 -46.5 -180.5t-124 -127.5t-171.5 -73t-197 -25h-588zM336 72h223q163 0 242.5 65t111.5 225q13 63 13 111 q0 229 -277 229h-180zM481 766h113q122 0 192.5 27t110.5 86.5t64 171.5q12 59 12 102q0 95 -56.5 139.5t-168.5 44.5h-146z" />
<glyph unicode="C" horiz-adv-x="1241" d="M98 584q0 124 37.5 249t105.5 230t156 187t196 128.5t218 46.5q98 0 168 -28.5t127 -91.5l49 104h41l6 -477l-39 -8q-53 143 -87.5 219.5t-75 126t-81.5 64t-106 14.5q-68 0 -128 -18t-120.5 -63t-110.5 -116.5t-94 -183.5t-75 -258q-31 -152 -31 -260q0 -192 88.5 -290 t263.5 -98q265 0 471 265l51 -39q-103 -147 -239 -225t-297 -78q-120 0 -215 44.5t-155.5 125t-92 189.5t-31.5 241z" />
<glyph unicode="D" horiz-adv-x="1400" d="M-35 0l12 57l201 35l258 1225l-186 35l12 57h572q113 0 203 -33t148.5 -88.5t97 -133.5t55 -163.5t16.5 -183.5q0 -158 -55.5 -303.5t-155 -257.5t-250.5 -179t-330 -67h-598zM334 70h211q114 0 203 25.5t154.5 72.5t115.5 124t84.5 171t62.5 221q35 158 35 272 q0 195 -95 288t-284 93h-219z" />
<glyph unicode="E" horiz-adv-x="1259" d="M-35 0l12 57l201 35l258 1225l-186 35l12 57h891l43 -362l-29 -11l-176 291l-385 33l-129 -615l258 17l131 194h35l-100 -469h-35l-43 195l-256 16l-135 -643l569 39l283 357l33 -13l-154 -438h-1098z" />
<glyph unicode="F" horiz-adv-x="1144" d="M-35 0l12 57l201 35l258 1225l-186 35l12 57h912l63 -416l-33 -14l-192 350l-404 31l-131 -617l268 19l125 199h33l-94 -484h-33l-41 205l-268 16l-127 -606l192 -35l-14 -57h-553z" />
<glyph unicode="G" horiz-adv-x="1318" d="M98 584q0 153 60 307t157 271t226.5 190t261.5 73q173 0 289 -125l59 109h39l16 -451l-37 -8q-55 127 -93 199.5t-80 120t-84.5 63t-104.5 15.5q-383 0 -520 -639q-31 -149 -31 -254q0 -198 91 -296t257 -98q165 0 293 107l78 369l-178 34l12 56h496l-13 -56l-157 -34 l-113 -537h-45l-21 143q-153 -159 -372 -159q-152 0 -264 82t-167 216.5t-55 301.5z" />
<glyph unicode="H" horiz-adv-x="1542" d="M-35 0l12 57l201 35l258 1225l-186 35l12 57h535l-13 -57l-186 -35l-119 -565h672l119 565l-191 35l13 57h536l-12 -57l-184 -35l-258 -1225l172 -35l-13 -57h-536l12 57l203 35l123 588h-672l-123 -588l174 -35l-12 -57h-537z" />
<glyph unicode="I" horiz-adv-x="729" d="M-35 0l12 57l205 35l256 1225l-188 35l12 57h553l-12 -57l-203 -35l-258 -1225l190 -35l-12 -57h-555z" />
<glyph unicode="J" horiz-adv-x="1013" d="M76 -233q0 41 26.5 68.5t67.5 27.5q42 0 67 -26.5t25 -65.5q0 -59 -74 -86v-4q35 -7 60 -7q72 0 117.5 45.5t74.5 171.5l166 732h-274l12 63h277l22 96q58 260 162 412q-74 10 -139 37t-102 53t-83.5 47t-91.5 21q-50 0 -76.5 -13.5t-46.5 -40.5l2 -4q28 12 52 12 q27 0 50 -16q42 -28 42 -80q0 -36 -26.5 -61t-68.5 -25q-43 0 -73.5 33t-30.5 82q0 81 63 141t168 60q57 0 105 -17t83 -43.5t65 -54t66 -53t73 -35.5q101 127 202 127q29 0 45.5 -17t16.5 -40q0 -31 -24.5 -55t-60.5 -36.5t-68 -19t-54 -6.5h-23l-102 -504h209l-12 -63 h-209l-121 -609q-20 -100 -53 -175t-69 -117t-81 -67.5t-82.5 -33.5t-79.5 -8q-90 0 -142 45.5t-52 108.5z" />
<glyph unicode="K" horiz-adv-x="1357" d="M-35 0l12 57l201 35l258 1225l-186 35l12 57h506l-12 -57l-158 -35l-125 -590h156l497 588l-145 37l12 57h428l-12 -57l-147 -31l-531 -573l342 -660l131 -31l-12 -57h-453l13 57l129 37l-273 561h-149l-119 -563l143 -35l-12 -57h-506z" />
<glyph unicode="L" horiz-adv-x="1165" d="M-35 0l12 57l201 35l258 1225l-186 35l12 57h551l-12 -57l-203 -35l-266 -1260l487 35l256 369l43 -17l-147 -444h-1006z" />
<glyph unicode="M" horiz-adv-x="1757" d="M-35 0l12 57l201 35l258 1225l-186 35l12 57h387l174 -1137l609 1137h411l-12 -57l-184 -35l-258 -1225l172 -35l-13 -57h-518l12 57l185 35l260 1235l-717 -1290h-59l-209 1290l-205 -1235l170 -35l-12 -57h-490z" />
<glyph unicode="N" horiz-adv-x="1486" d="M-35 0l12 57l205 35l260 1225l-190 35l12 57h377l457 -1128l170 1036l-205 35l12 57h512l-12 -57l-189 -35l-282 -1329h-51l-545 1329l-207 -1225l205 -35l-12 -57h-529z" />
<glyph unicode="O" horiz-adv-x="1382" d="M98 584q0 122 37 244.5t106 229t159 189.5t204 130.5t234 47.5t216.5 -51.5t156.5 -138t92 -196t32 -230.5q0 -154 -60.5 -304t-161 -264.5t-241 -185.5t-290.5 -71q-117 0 -211.5 51.5t-152.5 137t-89 191t-31 220.5zM256 451q0 -198 88 -294t240 -96q196 0 345 153 t218 472q31 149 31 252q0 207 -94 308.5t-248 101.5q-206 0 -342 -151t-207 -490q-31 -152 -31 -256z" />
<glyph unicode="P" horiz-adv-x="1208" d="M-35 0l12 57l201 35l258 1225l-186 35l12 57h584q151 0 251.5 -102.5t100.5 -264.5q0 -132 -57.5 -239.5t-164.5 -170.5t-243 -63q-85 0 -176 27l-106 29l-111 -533l190 -35l-12 -57h-553zM463 680l137 -21q72 -10 117 -10q135 0 204 72.5t107 239.5q19 84 19 143 q0 116 -57.5 175.5t-164.5 59.5h-223z" />
<glyph unicode="Q" horiz-adv-x="1376" d="M63 -229q0 31 13 54.5t38.5 43t80.5 40.5t121 40.5t178 48.5q-126 19 -218 108t-135 212.5t-43 265.5q0 121 37.5 244.5t106 229.5t158.5 189t203 130.5t231 47.5q98 0 181 -33.5t141 -92t99 -137t60.5 -168t19.5 -185.5q0 -174 -75.5 -342.5t-216 -295.5t-316.5 -171 l-408 -102h21q60 0 124 -14q76 -17 141.5 -44t129 -54.5t130.5 -47t124 -19.5q59 0 96.5 26t44.5 60l-4 2q-17 -5 -32 -5q-23 0 -42 13q-30 21 -30 64q0 34 23 56t61 22q37 0 64.5 -29.5t27.5 -72.5q0 -29 -9 -59t-31.5 -61t-55 -54.5t-84.5 -38.5t-115 -15q-96 0 -183 23.5 t-149.5 57t-118.5 67t-114.5 57t-114.5 23.5q-55 0 -84 -29v-4q33 -4 49.5 -23.5t16.5 -46.5q0 -29 -18 -48t-48 -19t-53 23t-23 63zM256 451q0 -198 88 -294t240 -96q196 0 345 153t218 472q31 149 31 252q0 207 -94 308.5t-248 101.5q-206 0 -342 -151t-207 -490 q-31 -152 -31 -256z" />
<glyph unicode="R" horiz-adv-x="1341" d="M-35 0l12 57l201 35l258 1225l-186 35l12 57h518q173 0 281 -90t108 -246q0 -92 -35.5 -165.5t-96.5 -119.5t-131.5 -73.5t-151.5 -38.5v-4q91 -14 149.5 -73.5t93.5 -180.5l95 -326l120 -35l-12 -57h-205q-42 0 -56 11t-19 38q-25 118 -40.5 189t-35 142t-31 106.5 t-31 70.5t-33 47t-40 23t-48.5 12.5t-61 1.5h-145l-115 -549l190 -35l-12 -57h-553zM471 719h182q150 0 227 64t109 216q15 64 15 121q0 106 -57.5 162.5t-172.5 56.5h-172z" />
<glyph unicode="S" d="M37 0l16 492l45 8q62 -182 116 -274t121 -128.5t175 -36.5q113 0 189.5 63t76.5 169q0 48 -19 95.5t-61.5 99t-77.5 86.5t-98 94q-12 11 -49.5 45.5t-49 46t-42.5 41.5t-42 43t-34.5 40.5t-32 44t-23 42.5t-20 47.5t-10 48t-4.5 53.5q0 132 97.5 218.5t246.5 86.5 q172 0 295 -120l68 104h34l4 -430l-38 -8q-63 151 -116.5 231.5t-110 113t-136.5 32.5q-99 0 -155 -47.5t-56 -133.5q0 -45 18.5 -90t55 -89t73 -80t87.5 -83q12 -11 18 -16q135 -124 178 -170q133 -151 135 -285q0 -110 -57 -196t-146.5 -130t-193.5 -44 q-137 0 -222.5 38.5t-152.5 100.5l-65 -123h-37z" />
<glyph unicode="T" horiz-adv-x="1241" d="M137 967l117 442h1051l-25 -451l-41 -6l-119 377l-258 31l-264 -1268l211 -35l-12 -57h-598l12 57l223 35l266 1268l-284 -27l-240 -383z" />
<glyph unicode="U" horiz-adv-x="1443" d="M219 371q0 65 14 125l177 821l-177 35l13 57h510l-13 -57l-172 -35l-174 -821q-18 -82 -18 -154q0 -274 307 -274q170 0 265 88.5t130 255.5l193 905l-158 35l12 57h431l-13 -57l-153 -35l-228 -924q-100 -409 -487 -409q-218 0 -338.5 104.5t-120.5 282.5z" />
<glyph unicode="V" horiz-adv-x="1355" d="M227 1352l13 57h512l-13 -57l-198 -35l-92 -1067l741 1069l-168 33l12 57h465l-14 -57l-170 -35l-977 -1329h-59l98 1329z" />
<glyph unicode="W" horiz-adv-x="1888" d="M227 1352l13 57h487l-12 -57l-178 -35l-95 -1071l529 764l22 307l-131 35l12 57h480l-13 -57l-192 -35l-88 -1069l684 1071l-152 33l13 57h426l-13 -57l-149 -35l-916 -1329h-59l63 876l-620 -876h-59l98 1329z" />
<glyph unicode="X" horiz-adv-x="1417" d="M-37 0l12 57l168 37l516 641l-249 586l-129 31l12 57h504l-13 -57l-196 -37l207 -518l360 524l-154 31l13 57h438l-12 -57l-156 -35l-461 -588l267 -637l131 -35l-13 -57h-491l12 57l184 35l-227 580l-414 -584l154 -31l-12 -57h-451z" />
<glyph unicode="Y" horiz-adv-x="1277" d="M147 1133q0 126 72.5 209t202.5 83q150 0 235.5 -136.5t85.5 -383.5q0 -61 -6 -125q92 283 233.5 464t268.5 181q82 0 124 -46t42 -115q0 -50 -29 -83.5t-71 -33.5q-39 0 -67 25.5t-28 64.5t24.5 65t76.5 27v4q-11 10 -41 12h-10q-26 0 -60 -8q-87 -24 -185 -155 t-183 -334t-132 -426l-69 -330l184 -35l-12 -57h-545l12 57l197 35l57 270q68 323 68 549q0 210 -54.5 317t-146.5 107q-88 0 -133 -62t-45 -163q0 -50 20 -104h5q6 48 31.5 75t64.5 27q40 0 66 -27.5t26 -66.5q0 -44 -31.5 -76.5t-77.5 -32.5q-73 0 -121.5 62t-48.5 166z " />
<glyph unicode="Z" horiz-adv-x="1110" d="M-41 0v45l1034 1309l-528 -33l-217 -303l-33 12l82 379h897v-37l-1047 -1317l598 31l244 358l39 -14l-113 -430h-956z" />
<glyph unicode="[" horiz-adv-x="741" d="M29 -270l377 1771h430l-13 -57l-286 -27l-340 -1603l274 -27l-12 -57h-430z" />
<glyph unicode="\" horiz-adv-x="733" d="M231 1501h93l194 -1771h-92z" />
<glyph unicode="]" horiz-adv-x="741" d="M-78 -270l12 57l287 27l340 1603l-274 27l12 57h430l-377 -1771h-430z" />
<glyph unicode="^" horiz-adv-x="890" d="M147 885q126 108 213.5 207t121.5 156.5t56 101.5t37.5 60.5t45.5 14.5q28 -2 35.5 -24.5t10.5 -73.5t13 -115.5t56 -167.5t126 -213l-39 -32l-264 336l-381 -289z" />
<glyph unicode="_" horiz-adv-x="716" d="M-184 -266l14 67h725l-14 -67h-725z" />
<glyph unicode="`" d="M351 1317.5q2 25.5 14 46.5q26 33 65 33q48 0 90 -47l125 -140l94 -63l-32 -49l-97 63l-176 60q-41 15 -63 43t-20 53.5z" />
<glyph unicode="a" horiz-adv-x="978" d="M18 158q0 122 52 269.5t131.5 271t182.5 207t196 83.5q98 0 149 -90l21 78h153l-221 -854l221 248l23 -21q-130 -206 -203 -286t-133 -80t-60 73q0 21 5 49l26 132l137 366l-4 2q-164 -308 -290 -465t-238 -157q-69 0 -108.5 47t-39.5 127zM176 162q0 -74 45 -74 q129 0 426 512l62 227q-42 99 -138 99q-106 0 -200.5 -136.5t-161.5 -420.5q-33 -141 -33 -207z" />
<glyph unicode="b" horiz-adv-x="966" d="M94 270l279 1047l-150 51l6 18l306 115h30l-211 -801l-114 -315l2 -2q305 606 532 606q58 0 97.5 -51t39.5 -141q0 -161 -55 -314t-141 -260.5t-192 -173t-206 -65.5q-69 0 -128 46q-59 44 -85 112q-16 41 -17 80q0 25 7 48zM225 207q6 -71 47 -110.5t117 -39.5 q50 0 96 24t93 80t88 165.5t69 263.5q27 150 27 209q0 47 -12 62.5t-35 15.5q-27 0 -63.5 -20t-90 -68.5t-128.5 -151.5t-159 -250z" />
<glyph unicode="c" horiz-adv-x="796" d="M33 256q0 120 42 248.5t113.5 236.5t179 178t226.5 70q86 0 146.5 -44.5t60.5 -127.5q0 -50 -33 -86.5t-80 -36.5q-44 0 -73 29t-29 72q0 40 23.5 71.5t60.5 42.5v4q-29 11 -68 11q-54 0 -104 -21t-100 -68.5t-93 -133.5t-74 -205q-38 -144 -38 -248q0 -172 120 -172 q77 0 159 67.5t179 204.5l35 -20q-30 -53 -58.5 -97t-69.5 -92t-82.5 -80.5t-94.5 -53.5t-109 -21q-111 0 -175 74.5t-64 197.5z" />
<glyph unicode="d" horiz-adv-x="1011" d="M18 170q0 176 86.5 368.5t220.5 321.5t261 129q109 0 174 -98l117 426l-150 51l6 18l305 115h31l-354 -1378l221 248l22 -21q-130 -206 -203 -286t-132 -80q-37 0 -53 30q-9 17 -8 45q0 21 5 47l27 132l139 360l-6 2q-169 -321 -293.5 -468.5t-253.5 -147.5 q-80 0 -121 52.5t-41 133.5zM174 174q0 -47 15 -66.5t44 -19.5q34 0 71 20.5t89.5 73.5t124 157.5t162.5 260.5l59 219q-46 103 -157 103q-110 0 -209.5 -141t-167.5 -421q-31 -130 -31 -186z" />
<glyph unicode="e" horiz-adv-x="806" d="M33 256q0 90 26 191.5t75.5 197t114.5 173t150 124.5t174 47q88 0 143.5 -44t55.5 -122q0 -116 -153 -212t-394 -136q-37 -145 -37 -237q0 -162 125 -162q77 0 159 67.5t179 204.5l35 -20q-30 -53 -58.5 -97t-69.5 -92t-82.5 -80.5t-94.5 -53.5t-109 -21 q-118 0 -178.5 73t-60.5 199zM238 518q119 29 197 62t120.5 74t59 84t16.5 102q0 86 -64 86q-28 0 -55.5 -7.5t-66 -33t-72.5 -68t-70.5 -119.5t-64.5 -180z" />
<glyph unicode="f" horiz-adv-x="540" d="M-295 -240q0 48 28 75.5t62 27.5q36 0 59 -24t23 -58t-21.5 -58t-60.5 -30v-4q28 -17 72 -17q104 0 131 121l246 1096h-164l6 31l172 30l51 226q45 200 143 291.5t230 91.5q97 0 151 -52t54 -123q0 -56 -29 -86t-72 -30q-40 0 -67 26t-27 66q0 41 28 69q28 27 76 27h3v2 q-8 13 -32 24t-62 11q-90 0 -143.5 -56t-84.5 -184l-69 -297h196l-14 -67h-199l-241 -1020q-33 -142 -99 -199t-162 -57q-77 0 -130.5 43t-53.5 104z" />
<glyph unicode="g" horiz-adv-x="923" d="M-109 -172q0 38 27.5 76t76 70.5t102.5 59.5t118 52q-104 36 -143 70t-39 82q0 54 63.5 99.5t145.5 68.5q-84 78 -84 202q0 95 51.5 183t140 143t189.5 55q57 0 107.5 -21.5t80.5 -47.5t65 -48q34 -20 63 -20h3v4q-33 14 -33 62q0 29 22.5 52t61.5 23q36 0 60 -27t24 -63 q0 -51 -30.5 -80.5t-75.5 -29.5q-79 0 -146 67l-4 -4q39 -61 39 -137q0 -95 -48.5 -180.5t-135.5 -139t-189 -53.5q-73 0 -129 35q-66 -29 -95 -53.5t-29 -51.5q0 -24 20 -39.5t80.5 -32t185.5 -40.5q184 -36 255 -95t71 -163q0 -77 -42 -136.5t-109.5 -92t-140 -48.5 t-144.5 -16q-89 0 -164 11.5t-137.5 35.5t-98 67t-35.5 101zM45 -180q0 -139 268 -139q154 0 240 54.5t86 135.5q0 56 -41 89t-158 63q-80 19 -166 45q-125 -66 -177 -125.5t-52 -122.5zM301 518q0 -61 26 -84.5t76 -23.5q37 0 62 7.5t50.5 31t47 71t43.5 123.5 q31 102 31 174q0 60 -25.5 84.5t-74.5 24.5q-37 0 -62 -7.5t-50.5 -31t-47 -70t-43.5 -121.5q-33 -112 -33 -178z" />
<glyph unicode="h" horiz-adv-x="993" d="M23 0l352 1317l-150 51l6 18l306 115h30l-211 -801l-114 -315l2 -2q305 606 532 606q63 0 99 -52t36 -151q0 -97 -32 -217q-45 -166 -101 -285.5t-114.5 -182t-112 -90t-107.5 -27.5q-49 0 -77.5 25.5t-28.5 68.5q0 36 25 60t59 24q43 0 70 -29.5t28 -85.5l4 -2 q19 10 31 19t37 45t45 88.5t47.5 154.5t52.5 238q27 150 27 209q0 47 -12 62.5t-35 15.5q-27 0 -63.5 -20t-90 -68.5t-128.5 -151.5t-159 -250l-102 -387h-151z" />
<glyph unicode="i" horiz-adv-x="577" d="M53 637q129 192 209 272t137 80q68 0 68 -74q0 -27 -12 -67l-209 -729l209 213l22 -21q-137 -199 -201.5 -263t-128.5 -64q-49 0 -49 67q0 37 15 96l188 715l-223 -246zM358 1315q0 46 34.5 81.5t78.5 35.5t77.5 -35.5t33.5 -81.5t-34.5 -81.5t-78.5 -35.5t-77.5 35.5 t-33.5 81.5z" />
<glyph unicode="j" horiz-adv-x="542" d="M-236 -242q0 49 28 76t63 27q33 0 56 -23t23 -53q0 -82 -94 -88v-4q25 -25 66 -25q42 0 69 25.5t45 91.5l281 1077l-223 -246l-25 21q131 194 207.5 273t132.5 79q39 0 63 -37q12 -19 12 -48q0 -25 -9 -56l-297 -1000q-69 -235 -230 -235q-85 0 -126.5 42t-41.5 103z M358 1315q0 46 34.5 81.5t78.5 35.5t77.5 -35.5t33.5 -81.5t-34.5 -81.5t-78.5 -35.5t-77.5 35.5t-33.5 81.5z" />
<glyph unicode="k" horiz-adv-x="946" d="M23 0l352 1317l-152 51l8 18l304 115h32l-250 -948q66 6 116.5 33t81 66t55 84.5t46 90t45.5 81t62 59t88 22.5q55 0 85 -31t30 -73q0 -40 -25.5 -65t-60.5 -25q-50 1 -74 35q-16 23 -17 53q0 16 5 35l-4 2q-27 -19 -50 -59t-43 -84.5t-44.5 -89.5t-66 -85t-95.5 -61 q78 -23 120.5 -112.5t79.5 -305.5l201 203l22 -21q-125 -185 -187 -253t-114 -68q-28 0 -45.5 25t-24 56t-11.5 80q-28 243 -58 307q-24 53 -97 52q-15 0 -32 -2l-131 -502h-151z" />
<glyph unicode="l" horiz-adv-x="522" d="M55 53q0 28 17 94l317 1170l-149 51l6 18l311 115h33l-387 -1386l211 217l22 -21q-139 -205 -199.5 -266t-123.5 -61q-58 0 -58 69z" />
<glyph unicode="m" horiz-adv-x="1507" d="M41 637q236 352 332 352q67 0 67 -90q0 -34 -8 -70l-20 -86l-129 -323l4 -2q146 279 262 425t221 146q127 0 127 -149q0 -37 -10 -99l-113 -303l4 -2q59 107 98.5 175.5t92 148t94 124t89.5 75t93 30.5q131 0 131 -145q0 -67 -26 -158l-170 -588l231 234l23 -21 q-103 -148 -166 -220.5t-93.5 -89.5t-68.5 -17q-33 0 -48.5 11.5t-15.5 43.5t15 88l162 633q14 52 14 84q0 45 -43 45q-36 0 -81 -38t-125 -153.5t-191 -312.5l-105 -385h-139l186 741q17 76 17 99q0 49 -39 49q-57 0 -148.5 -106t-249.5 -390l-106 -393h-150l230 862 l-223 -246z" />
<glyph unicode="n" horiz-adv-x="1048" d="M41 637q236 352 332 352q67 0 67 -90q0 -34 -8 -70l-20 -86l-129 -323l4 -2q299 571 499 571q132 0 132 -147q0 -62 -27 -156l-170 -588l231 234l23 -21q-103 -148 -166 -220.5t-93.5 -89.5t-68.5 -17q-33 0 -48 12.5t-15 44.5q0 21 14 86l162 633q14 52 14 84 q0 45 -43 45q-25 0 -59.5 -21.5t-84.5 -72.5t-120.5 -154.5t-151.5 -247.5l-106 -393h-150l230 862l-223 -246z" />
<glyph unicode="o" horiz-adv-x="931" d="M43 317q0 160 75.5 317t196 256t244.5 99q137 0 214 -93.5t77 -242.5q0 -161 -74.5 -317t-194.5 -254t-245 -98q-141 0 -217 91.5t-76 241.5zM186 219q0 -90 38 -130t110 -40t126 38t105.5 139t98.5 276q43 162 43 254q0 90 -36.5 129t-109.5 39q-72 0 -126 -37.5 t-106 -138.5t-100 -277q-43 -157 -43 -252z" />
<glyph unicode="p" horiz-adv-x="970" d="M-201 -369l17 54h157l291 1110q-61 -46 -201 -179l-24 21q136 167 250 248l76 289h139l-51 -203q61 18 118 18q146 0 231 -90.5t85 -251.5q0 -189 -93 -343.5t-250 -237.5q-140 -73 -300 -73q-19 0 -39 1l-78 -309h174l-14 -54h-488zM217 45q97 7 167.5 28t132.5 66.5 t106.5 123t74.5 192.5q43 157 43 262q0 101 -45 147.5t-139 46.5q-67 0 -125 -18z" />
<glyph unicode="q" horiz-adv-x="944" d="M18 170q0 176 86.5 368.5t220.5 321.5t261 129q107 0 172 -98l24 86h146l-338 -1292h162l-13 -54h-487l14 54h172l154 567l141 346l-6 2q-169 -321 -293.5 -468.5t-253.5 -147.5q-80 0 -121 52.5t-41 133.5zM174 174q0 -47 15 -66.5t44 -19.5q34 0 71 20.5t89.5 73.5 t124 157.5t162.5 260.5l59 219q-46 103 -157 103q-110 0 -209.5 -141t-167.5 -421q-31 -130 -31 -186z" />
<glyph unicode="r" horiz-adv-x="790" d="M41 637q236 352 332 352q67 0 67 -90q0 -34 -8 -70l-20 -90l-152 -374l6 -3q116 248 196 382.5t140 187.5t125 53q59 0 94 -32.5t35 -84.5q0 -50 -29.5 -83t-72.5 -33q-49 0 -73 26.5t-24 69.5l5 29l-3 2q-52 -23 -158 -180t-202 -365l-90 -334h-150l230 862l-223 -246z " />
<glyph unicode="s" horiz-adv-x="716" d="M-31 188q0 53 30.5 88t76.5 35q40 0 68 -27t28 -65q0 -42 -26 -71.5t-76 -36.5v-5q59 -55 180 -55q94 0 142 39t48 107q0 51 -31 101.5t-75 94t-87.5 90t-74.5 109t-31 131.5q0 111 79.5 188.5t209.5 77.5q98 0 167 -45t69 -127q0 -52 -29 -86.5t-72 -34.5q-38 0 -64 26 t-26 66q0 37 22.5 64.5t71.5 34.5v4q-46 33 -137 33q-77 0 -122.5 -40.5t-45.5 -109.5q0 -49 31.5 -99t76 -95t89.5 -92.5t76.5 -109t31.5 -126.5q0 -128 -84.5 -198t-230.5 -70q-121 0 -203 58t-82 146z" />
<glyph unicode="t" horiz-adv-x="587" d="M68 61q0 48 16 105l184 721h-159l8 28l168 35l71 277h148l-72 -271h213l-20 -69h-211l-211 -811l252 256l22 -21q-134 -195 -206 -261t-140 -66q-63 0 -63 77z" />
<glyph unicode="u" horiz-adv-x="1042" d="M41 637q236 352 340 352q57 0 57 -76q0 -51 -22 -127l-154 -555q-14 -49 -14 -84q0 -63 51 -63q25 0 58.5 22t82 74.5t117.5 157t150 252.5l102 366h149l-239 -854l225 230l23 -21q-79 -113 -131 -179.5t-89 -98.5t-59.5 -40.5t-54.5 -8.5q-55 0 -55 69q0 35 12 90l20 88 l135 336l-6 2q-74 -144 -130 -240.5t-118 -180t-120.5 -124t-116.5 -40.5q-65 0 -102 41.5t-37 128.5q0 69 22 153l152 559l-223 -250z" />
<glyph unicode="v" horiz-adv-x="985" d="M47 748q0 78 65.5 143t180.5 65h295l8 -18q-169 -227 -238 -394t-69 -315q0 -62 29.5 -97.5t89.5 -35.5q92 0 180.5 68.5t148.5 172t93 229.5q26 99 26 190q0 25 -2 49l-4 2q-21 -6 -39 -6q-31 -1 -55 17q-38 28 -37 75q0 41 28 64.5t62 23.5q60 0 93.5 -45.5 t33.5 -124.5q0 -162 -54 -316.5t-138.5 -265t-191.5 -178t-210 -67.5q-105 0 -158 63.5t-53 163.5q0 150 103.5 317.5t259.5 315.5h-226q-97 0 -136.5 -36t-39.5 -106l4 -2q22 62 74 62q25 0 41 -18.5t16 -47.5t-23 -51t-57 -22q-46 0 -73 31.5t-27 93.5z" />
<glyph unicode="w" horiz-adv-x="1318" d="M47 748q0 78 65.5 143t180.5 65h295l8 -18q-169 -227 -238 -394t-69 -315q0 -131 98 -131q72 0 135 48t107.5 129.5t76.5 173.5t52 196q-35 54 -35 117q0 38 23.5 64t56.5 26q30 0 48.5 -24.5t18.5 -69.5q0 -31 -17 -64.5t-42 -58.5q-35 -186 -111 -338v-8 q0 -174 129 -174q93 0 178 95t134 240.5t49 294.5q0 42 -2 60l-4 2q-21 -6 -39 -6q-31 -1 -55 17q-38 28 -37 75q0 41 28 64.5t62 23.5q60 0 93.5 -45.5t33.5 -124.5q0 -152 -45.5 -304.5t-117.5 -266.5t-165.5 -185t-183.5 -71q-77 0 -124.5 39.5t-58.5 99.5 q-132 -139 -247 -139q-97 0 -147 63.5t-50 163.5q0 150 103.5 317.5t259.5 315.5h-226q-97 0 -136.5 -36t-39.5 -106l4 -2q22 62 74 62q25 0 41 -18.5t16 -47.5t-23 -51t-57 -22q-46 0 -73 31.5t-27 93.5z" />
<glyph unicode="x" horiz-adv-x="946" d="M-57 96q0 43 28 74t68 31q38 0 62 -27t24 -63l-4 -31l2 -2q44 25 122 147.5t136 290.5q-17 133 -30 206.5t-21.5 96.5t-18.5 23q-12 0 -42 -31.5t-105 -116.5q-42 -49 -68 -78l-24 21q126 193 198 272.5t113 79.5q43 0 64 -49.5t40 -189.5l9 -62l-9 -162h7 q89 235 174.5 349t177.5 114q46 0 75 -32.5t29 -79.5q0 -41 -28 -70t-66 -29q-45 0 -65.5 25.5t-20.5 60.5l4 23l-2 2q-47 -27 -119.5 -137t-122.5 -265q51 -385 84 -385q10 0 63.5 57.5t101.5 114.5l48 58l23 -21q-99 -147 -148.5 -213t-80 -90t-62.5 -24q-38 0 -60.5 22.5 t-39.5 78.5t-37 173l-12 72l6 137h-6q-70 -223 -168 -353t-187 -130q-51 0 -81.5 32.5t-30.5 79.5z" />
<glyph unicode="y" horiz-adv-x="944" d="M-121 -248q0 52 31.5 84.5t73.5 32.5q36 0 62 -26t26 -62q0 -45 -30 -68.5t-77 -25.5v-4q20 -13 62 -13q66 0 126.5 31t143.5 111q33 223 33 565q0 149 -13.5 284.5t-29.5 194.5l-221 -240l-25 21q138 205 205 278.5t125 73.5q54 0 78 -134t24 -423q0 -266 -33 -457 q153 197 258 440q103 236 103 384v8l-4 2q-23 -9 -43 -9q-27 0 -49 16q-39 27 -39 75q0 41 27 65.5t65 24.5q56 0 90.5 -42t34.5 -130q0 -110 -66.5 -292.5t-186.5 -383.5t-253 -334q-97 -97 -179.5 -141.5t-166.5 -44.5q-69 0 -110.5 39.5t-41.5 99.5z" />
<glyph unicode="z" horiz-adv-x="763" d="M-63 25q0 39 38 84l504 579l101 76l-2 2q-32 -18 -74 -18q-39 0 -70.5 17t-53 41t-42 48.5t-46.5 41.5t-56 17q-54 0 -86 -43l2 -2h4q47 0 73 -24q27 -24 27 -62t-23.5 -62t-60.5 -24q-38 0 -63 28t-25 69q0 66 58.5 125t131.5 59q47 0 87.5 -16.5t65 -36t60 -36 t72.5 -16.5q65 0 115 21q-3 14 -3 27q1 22 9 40q14 29 45 29q35 0 35 -41q0 -26 -37 -69l-522 -594l-88 -68l2 -2q38 12 59 12q42 0 78.5 -17t64 -41t53 -48t57.5 -41t67 -17q41 0 75.5 24t46.5 65l-4 4q-25 -10 -48 -10q-26 0 -48 14q-41 24 -41 71q0 41 24 68t62 27 q42 0 72.5 -34t30.5 -83q0 -93 -66.5 -159t-169.5 -66q-54 0 -105 20.5t-84 45t-77 45t-86 20.5q-29 0 -64 -17q19 -25 19 -57q0 -25 -14 -41t-40 -16q-18 0 -29 11.5t-11 29.5z" />
<glyph unicode="{" horiz-adv-x="759" d="M90 580l12 57l127 6q104 4 142.5 44.5t38.5 123.5q0 52 -12.5 212t-12.5 228q0 148 100.5 199t368.5 51l-12 -57q-82 -7 -130 -14.5t-85 -17.5t-53.5 -26.5t-24 -37.5t-8.5 -56l-6 -489q-3 -163 -199 -199v-6q119 -41 119 -141q0 -46 -31 -117l-168 -356q-18 -38 -18 -68 q0 -46 56.5 -76t194.5 -53l-12 -57q-196 14 -289.5 63t-93.5 158q0 46 38 123t83 147t83 145.5t38 118.5q0 82 -117 88z" />
<glyph unicode="|" horiz-adv-x="483" d="M205 -270v1771h90v-1771h-90z" />
<glyph unicode="}" horiz-adv-x="761" d="M-78 -270l12 57q132 12 193.5 28.5t84.5 44t24 83.5l6 471q2 87 48.5 136t147.5 62v6q-123 47 -123 146q0 42 31 113l174 370q21 47 21 70q0 45 -57.5 74.5t-196.5 52.5l12 57q196 -14 289.5 -63t93.5 -158q0 -46 -38.5 -125.5t-84.5 -152t-84.5 -150.5t-38.5 -121 q0 -82 119 -88l129 -6l-12 -57l-127 -7q-103 -4 -140.5 -44t-37.5 -123q0 -52 12 -205t12 -221q0 -147 -101 -198.5t-368 -51.5z" />
<glyph unicode="~" horiz-adv-x="937" d="M55 555q77 131 143 190.5t138 59.5q71 0 160 -53l106 -58q5 -3 19 -10.5t20 -10t16 -7t18.5 -6t16.5 -1.5q48 0 121 84l57 68l52 -31q-77 -131 -143 -189.5t-138 -58.5q-67 0 -160 52l-106 57q-64 33 -90 33q-50 0 -121 -82l-58 -68z" />
<glyph unicode="&#xa1;" horiz-adv-x="581" d="M57 -334q0 40 17 96l182 535l61 287h74l-63 -301l-58 -562q-6 -83 -34 -125t-84 -42q-48 0 -71.5 30.5t-23.5 81.5zM295 872q0 49 35 83t82 34q45 0 79.5 -34t34.5 -83q0 -50 -34.5 -84t-79.5 -34q-47 0 -82 34t-35 84z" />
<glyph unicode="&#xa2;" horiz-adv-x="849" d="M-10 -209l147 238q-98 71 -98 256q0 92 25 190t75 189.5t118 164t163 116.5t201 44q50 0 100 -16l149 239h84l-170 -274q60 -53 60 -125q0 -50 -33 -86.5t-80 -36.5q-53 0 -80 35l-393 -635q30 -18 78 -18q94 0 167 57.5t181 204.5l35 -21q-39 -65 -64.5 -104t-67 -87.5 t-80.5 -74.5t-95 -44.5t-121 -18.5q-43 0 -90 14l-127 -207h-84zM197 246q0 -64 14 -99l430 697q31 49 72 61v4q-40 15 -84 15q-146 0 -240 -102t-151 -322q-41 -150 -41 -254z" />
<glyph unicode="&#xa3;" horiz-adv-x="1204" d="M-10 160q0 78 54 131t149 53q76 0 196 -43v2q6 74 6 158q0 56 -4 174h-217l16 76h197q-2 45 -2 131q0 79 4 116q18 247 136.5 357t322.5 110q147 0 240.5 -77.5t93.5 -196.5q0 -64 -34.5 -99.5t-88.5 -35.5q-49 0 -81 29.5t-32 74.5q0 59 44 91t110 14v4q-8 19 -23 37 t-42.5 37t-73 31t-103.5 12q-216 0 -274 -277q-24 -109 -49 -358h399l-16 -76h-392q-32 -305 -43 -371q16 -7 63.5 -27t67.5 -28.5t59 -23t62 -21t51.5 -12t51.5 -5.5q44 0 72.5 8t54.5 34t46 61.5t52 103.5h51q-49 -201 -114 -285.5t-185 -84.5q-38 0 -75 9.5t-77.5 32 t-66.5 39t-73.5 51t-67.5 48.5q-39 -93 -107 -136.5t-149 -43.5q-91 0 -150 47t-59 129zM74 160q0 -52 33.5 -80.5t89.5 -28.5q63 0 108.5 41.5t67.5 120.5q-90 51 -178 51q-58 0 -89.5 -27t-31.5 -77z" />
<glyph unicode="&#xa4;" horiz-adv-x="1247" d="M59 498l17 75h190q3 102 25 201h-172l16 76h176q75 258 250.5 416.5t390.5 158.5q136 0 218.5 -73.5t82.5 -175.5q0 -62 -34 -102t-86 -40q-46 0 -80.5 33t-34.5 78q0 56 39 86.5t108 11.5v4q-16 39 -67.5 70t-136.5 31q-79 0 -142.5 -24t-123 -80t-109 -154t-90.5 -240 h446l-16 -76h-451q-18 -73 -22 -98q-15 -69 -19 -103h449l-17 -75h-442q-4 -58 -4 -84q0 -176 70.5 -263.5t191.5 -87.5q112 0 193 47.5t172 147.5l51 -35q-178 -239 -424 -239q-86 0 -155 26.5t-115.5 73t-78 112.5t-46 140.5t-15.5 161.5h-205z" />
<glyph unicode="&#xa5;" horiz-adv-x="1296" d="M125 403l16 76h404l35 166l-13 35h-385l15 76h346l-181 563l-147 33l12 57h490l-12 -57l-175 -33l179 -627l430 633l-142 27l13 57h417l-12 -57l-153 -27l-428 -569h335l-14 -76h-377l-45 -59l-28 -142h411l-16 -76h-412l-65 -311l196 -35l-12 -57h-567l12 57l211 35 l65 311h-403z" />
<glyph unicode="&#xa6;" horiz-adv-x="483" d="M205 -270v843h90v-843h-90zM205 690v811h90v-811h-90z" />
<glyph unicode="&#xa7;" horiz-adv-x="1114" d="M129 780q0 58 18.5 107t43.5 79t63 56t64.5 37.5t60.5 23.5q-6 27 -6 56q0 136 80.5 211t216.5 75q130 0 207 -69t77 -170q0 -63 -36.5 -103.5t-88.5 -40.5q-46 0 -78 30.5t-32 74.5q0 60 40.5 90t106.5 12l2 2q-23 45 -73 72t-123 27q-78 0 -124 -39t-46 -123 q0 -50 49 -134.5t119 -176.5t140.5 -186t119.5 -186.5t49 -154.5q0 -59 -19 -108t-44.5 -79.5t-64 -56t-65.5 -37t-61 -22.5q8 -27 8 -55q0 -135 -84 -211t-221 -76q-125 0 -210 72t-85 168q0 62 36.5 101.5t88.5 39.5q45 0 77 -29t32 -73q0 -60 -41.5 -89.5t-104.5 -11.5 l-2 -2q19 -42 73 -71t134 -29q82 0 131 40.5t49 121.5q0 50 -49 134.5t-119 176.5t-140.5 186t-119.5 186t-49 154zM258 846q0 -61 55.5 -157.5t126.5 -186.5t149.5 -202t112.5 -189q71 29 109.5 67.5t38.5 106.5q0 50 -36 120.5t-92.5 147.5t-116 154t-117 162t-85.5 149 q-71 -29 -108 -66.5t-37 -105.5z" />
<glyph unicode="&#xa8;" d="M369 1229q0 43 31.5 73.5t70.5 30.5q38 0 70 -30.5t32 -73.5t-32 -74t-70 -31q-39 0 -70.5 31t-31.5 74zM729 1229q0 43 32 73.5t70 30.5q40 0 71.5 -30.5t31.5 -73.5t-32 -74t-71 -31q-38 0 -70 31t-32 74z" />
<glyph unicode="&#xa9;" horiz-adv-x="1568" d="M129 698q0 138 49 268.5t135 232.5t214 164t274 62q117 0 224.5 -40t190.5 -110.5t145 -162t95 -198.5t33 -216q0 -136 -51 -265.5t-139.5 -228.5t-218.5 -159.5t-279 -60.5t-277 60t-213.5 160t-133.5 228.5t-48 265.5zM201 698q0 -130 41.5 -247.5t117 -207.5t190 -143 t251.5 -53q181 0 323.5 91t217.5 238.5t75 321.5q0 130 -45.5 250.5t-125 212t-196 146.5t-249.5 55q-134 0 -248 -55t-190 -146.5t-119 -211.5t-43 -251zM383 700q0 119 53 223.5t152.5 170t222.5 65.5q132 0 233 -86l35 78h39l29 -328l-37 -10q-52 116 -99.5 178t-92 82.5 t-109.5 20.5q-60 0 -104.5 -20.5t-78.5 -66.5t-51.5 -126t-17.5 -193q0 -198 70.5 -287.5t203.5 -89.5q167 0 281 164l47 -31q-54 -93 -141.5 -147.5t-202.5 -54.5q-127 0 -227 65t-152.5 169t-52.5 224z" />
<glyph unicode="&#xaa;" horiz-adv-x="911" d="M104 664q0 150 75.5 328t197.5 305.5t239 127.5q51 0 82.5 -22t53.5 -64l20 70h148l-201 -776l196 225l25 -18q-122 -194 -185.5 -264t-127.5 -70q-33 0 -47.5 30t-4.5 80l25 119l125 326l-4 2q-74 -139 -130 -232t-117 -171.5t-118 -116t-114 -37.5q-63 0 -100.5 43 t-37.5 115zM258 674q0 -68 39 -68q22 0 52.5 21t75.5 69.5t110 143t143 227.5l55 205q-20 46 -47.5 67t-75.5 21q-91 0 -176.5 -124.5t-146.5 -379.5q-29 -125 -29 -182z" />
<glyph unicode="&#xab;" horiz-adv-x="952" d="M55 508l11 49l389 250l32 -35l-272 -293l174 -307l-45 -35zM438 475l11 49l448 336l33 -35l-326 -379l170 -321l-47 -35z" />
<glyph unicode="&#xac;" horiz-adv-x="727" d="M-246 -223q0 46 29.5 75t71.5 29q39 0 64.5 -27t25.5 -67q0 -65 -68 -88v-4q28 -14 72 -14q148 0 186 184l303 1452l-188 35l12 57h553l-12 -57l-203 -35l-287 -1362q-17 -81 -47.5 -143.5t-65 -99.5t-76.5 -60t-78.5 -31t-74.5 -8q-105 0 -161 50.5t-56 113.5z" />
<glyph unicode="&#xae;" horiz-adv-x="1042" d="M156 1014q0 125 61.5 231t166.5 168t228 62q188 0 322.5 -135.5t134.5 -325.5t-134.5 -325.5t-322.5 -135.5q-123 0 -228 62t-166.5 168t-61.5 231zM217 1014q0 -180 109.5 -295t285.5 -115t286 115t110 295q0 177 -110.5 293t-285.5 116t-285 -116t-110 -293zM375 770 v31l74 16v412l-74 16v31h252q82 0 133 -36t51 -103q0 -102 -143 -125v-6q35 -3 57.5 -20t46.5 -60l59 -115l43 -10v-31h-112q-25 0 -33 21q-36 93 -59 134t-43 53.5t-56 12.5h-26v-174l71 -16v-31h-241zM545 1036h53q60 0 88.5 21.5t28.5 77.5t-25 75t-80 19h-65v-193z" />
<glyph unicode="&#xaf;" d="M393 1174l21 98h491l-20 -98h-492z" />
<glyph unicode="&#xb0;" horiz-adv-x="598" d="M190 1186q0 97 70.5 168t167.5 71t167.5 -71t70.5 -168q0 -98 -70.5 -170t-167.5 -72t-167.5 72t-70.5 170zM276 1186q0 -83 43 -128.5t109 -45.5t109 45.5t43 128.5q0 82 -43 127t-109 45t-109 -45t-43 -127z" />
<glyph unicode="&#xb1;" horiz-adv-x="1437" d="M-295 -240q0 48 28 75.5t62 27.5q36 0 59 -24t23 -58t-21.5 -58t-60.5 -30v-4q28 -17 72 -17q104 0 131 121l246 1096h-164l6 31l172 30l45 199q45 200 143 291.5t230 91.5q79 0 132.5 -27t78.5 -71q106 125 270 125q78 0 133 -31t80 -80l88 53h33l-387 -1386l211 217 l22 -21q-139 -205 -199.5 -266t-123.5 -61q-58 0 -58 69q0 28 17 94l303 1123q-35 3 -58.5 29t-23.5 63q0 40 23.5 67.5t70.5 28.5v2q-28 33 -108 33q-96 0 -152.5 -56.5t-87.5 -183.5l-70 -297h197l-14 -67h-199l-238 -1008q-32 -137 -95 -196.5t-156 -59.5 q-74 0 -123 42.5t-49 99.5q0 44 27.5 70t58.5 26q33 0 55 -22.5t22 -53.5q0 -34 -20 -56t-57 -28v-4q24 -18 63 -18q47 0 77.5 29t45.5 95l242 1084h-316l-241 -1020q-33 -142 -99 -199t-162 -57q-77 0 -130.5 43t-53.5 104zM408 956h315l49 220q3 14 10 39t9 32 q-34 5 -56 30.5t-22 61.5q0 42 25.5 69t74.5 26v2q-7 10 -41 20t-74 10q-90 0 -143 -56t-84 -183z" />
<glyph unicode="&#xb2;" horiz-adv-x="681" d="M55 547v63q236 162 353 278.5t137 213.5q10 48 10 82q0 81 -41.5 126.5t-118.5 45.5q-100 0 -139 -64v-4q42 8 76.5 -11.5t34.5 -62.5q0 -36 -23.5 -61t-60.5 -25q-42 0 -69.5 31t-27.5 82q0 79 73 131.5t177 52.5q114 0 187 -68.5t73 -174.5q0 -64 -33.5 -130 t-81 -118.5t-124 -112t-135 -97.5t-142.5 -89l336 29l90 133h41l-61 -250h-531z" />
<glyph unicode="&#xb3;" horiz-adv-x="696" d="M96 707q0 39 22 63.5t54 24.5q31 0 52.5 -20t21.5 -50q0 -68 -82 -74v-4q16 -22 59 -39.5t105 -17.5q103 0 157 50t54 140q0 98 -63.5 144.5t-162.5 46.5q-11 0 -25.5 -2t-23.5 -4l-8 -2l-10 36q291 101 291 232q0 53 -32 82.5t-87 29.5q-57 0 -94 -30.5t-37 -89.5 q0 -24 10 -62l-29 -12q-35 38 -35 100q0 76 59 126t152 50q100 0 151.5 -52.5t51.5 -121.5q0 -68 -58 -120t-140 -74v-4q85 -8 153 -75t68 -167q0 -122 -84.5 -200.5t-220.5 -78.5q-122 0 -195.5 52t-73.5 123z" />
<glyph unicode="&#xb4;" d="M465 1147l94 63l125 140q42 47 90 47q40 0 66 -33q12 -21 13.5 -46.5t-20.5 -53.5t-63 -43l-176 -60l-96 -63z" />
<glyph unicode="&#xb5;" horiz-adv-x="980" d="M-88 -295q0 43 27 105l90 194l258 952h149l-200 -725q-15 -53 -15 -84q0 -63 51 -63q25 0 58.5 22t82 74.5t117.5 157t150 252.5l102 366h150l-240 -854l226 230l22 -21q-79 -113 -131 -179.5t-89 -98.5t-59.5 -40.5t-54.5 -8.5q-55 0 -55 69q0 35 12 90l21 88l135 336 l-6 2q-73 -143 -130 -240t-118.5 -180.5t-120.5 -124t-117 -40.5q-56 0 -86 34l-26 101h-4l-25 -375q-7 -131 -92 -131q-34 0 -58 24t-24 68z" />
<glyph unicode="&#xb6;" horiz-adv-x="1277" d="M236 63q0 60 33.5 97t86.5 37q43 0 75 -30.5t32 -68.5q0 -56 -38 -84t-108 -18v-2q41 -57 148 -57q90 0 138.5 52t72.5 163l108 516l-59 -13q-61 -12 -117 -12q-162 0 -258 99t-96 251q0 86 28 156.5t75.5 118t113.5 80t139.5 47t155.5 14.5h598l-12 -57l-170 -35 l-232 -1084q-83 -370 -452 -370q-119 0 -190.5 55.5t-71.5 144.5zM455 901q0 -105 60.5 -150t203.5 -36l76 4l131 618h-119q-45 0 -75.5 -2.5t-67 -11.5t-62 -27.5t-51 -48t-44.5 -76.5t-32 -110q-20 -102 -20 -160zM647 -47l4 -6q85 25 139 95.5t84 203.5l236 1091h-106 l-252 -1194q-26 -131 -105 -190z" />
<glyph unicode="&#xb7;" horiz-adv-x="563" d="M166 578q0 50 34.5 84t80.5 34q47 0 81.5 -34t34.5 -84q0 -49 -34.5 -83t-81.5 -34q-45 0 -80 34.5t-35 82.5z" />
<glyph unicode="&#xb8;" d="M84 -352l12 33q111 -31 162 -31q109 0 109 57q0 32 -36.5 54t-133.5 32l-9 19l170 188h88l-143 -125q170 -42 170 -151q0 -56 -53.5 -93t-138.5 -37q-56 0 -112 18t-85 36z" />
<glyph unicode="&#xb9;" horiz-adv-x="587" d="M72 547l10 51l172 31l135 635l-162 51l13 41q80 -11 148.5 11t103.5 58h59l-172 -796l158 -31l-11 -51h-454z" />
<glyph unicode="&#xba;" horiz-adv-x="845" d="M139 813q0 146 66.5 288.5t177.5 233t229 90.5q126 0 197.5 -86t71.5 -221q0 -147 -67 -289t-177 -231.5t-227 -89.5q-129 0 -200 84.5t-71 220.5zM274 727q0 -80 34 -116t100 -36q49 0 87.5 18.5t75.5 63.5t70 124.5t64 197.5q38 141 38 233q0 77 -32 111.5t-97 34.5 q-66 0 -115 -33.5t-96 -124t-90 -248.5q-39 -139 -39 -225z" />
<glyph unicode="&#xbb;" horiz-adv-x="952" d="M-20 125l325 379l-170 321l47 35l289 -385l-10 -49l-449 -336zM422 178l272 293l-174 307l45 35l289 -371l-10 -49l-389 -250z" />
<glyph unicode="&#xbc;" horiz-adv-x="1652" d="M92 547l10 51l172 31l136 635l-162 51l12 41q80 -11 148.5 11t103.5 58h59l-172 -796l158 -31l-10 -51h-455zM301 0l1071 1407h105l-1071 -1407h-105zM883 215v74l520 573h113l-121 -567h143l-16 -80h-144l-45 -215h-121l45 215h-374zM963 295h313l90 434z" />
<glyph unicode="&#xbd;" horiz-adv-x="1720" d="M92 547l10 51l172 31l136 635l-162 51l12 41q80 -11 148.5 11t103.5 58h59l-172 -796l158 -31l-10 -51h-455zM281 0l1071 1407h104l-1071 -1407h-104zM987 0v63q236 162 353 278.5t137 213.5q10 48 10 82q0 81 -41.5 126.5t-118.5 45.5q-100 0 -139 -64v-4q42 8 76 -11 t34 -62q0 -36 -23.5 -61t-60.5 -25q-42 0 -69 30.5t-27 81.5q0 79 73 132t177 53q114 0 187 -69t73 -175q0 -64 -33.5 -130t-81 -118.5t-124 -112t-135 -97.5t-142.5 -89l336 29l90 133h41l-61 -250h-531z" />
<glyph unicode="&#xbe;" horiz-adv-x="1761" d="M96 707q0 39 22 63.5t54 24.5q31 0 52.5 -20t21.5 -50q0 -68 -82 -74v-4q16 -22 59 -39.5t105 -17.5q103 0 157 50t54 140q0 98 -63.5 144.5t-162.5 46.5q-11 0 -25.5 -2t-23.5 -4l-8 -2l-10 36q291 101 291 232q0 53 -32 82.5t-87 29.5q-57 0 -94 -30.5t-37 -89.5 q0 -24 10 -62l-29 -12q-35 38 -35 100q0 76 59 126t152 50q100 0 151.5 -52.5t51.5 -121.5q0 -68 -58 -120t-140 -74v-4q85 -8 153 -75t68 -167q0 -122 -84.5 -200.5t-220.5 -78.5q-122 0 -195.5 52t-73.5 123zM369 0l1071 1407h104l-1071 -1407h-104zM991 215v74l520 573 h113l-121 -567h144l-17 -80h-143l-45 -215h-121l45 215h-375zM1071 295h313l91 434z" />
<glyph unicode="&#xbf;" horiz-adv-x="847" d="M-51 -141q0 133 80 219t290 178q94 41 131 81t37 89t-36 78.5t-127 36.5v45q40 10 63 10q75 0 131.5 -46t56.5 -122q0 -28 -7.5 -54.5t-16.5 -46.5t-31 -44t-36 -38t-46.5 -37.5t-47.5 -34t-54 -35.5q-19 -13 -29 -19q-57 -37 -88.5 -60.5t-64 -58.5t-46.5 -75t-14 -91 q0 -96 59.5 -148.5t161.5 -52.5q101 0 170.5 45t73.5 134h-4q-24 -50 -76 -50q-40 0 -67 27.5t-27 71.5q0 37 26 64.5t66 27.5q65 0 101 -46t36 -114q0 -43 -22 -85.5t-61.5 -79t-103 -59t-138.5 -22.5q-153 0 -246.5 89t-93.5 223zM410 862q0 51 37.5 89t87.5 38 q51 0 89 -38t38 -89q0 -50 -38 -88.5t-89 -38.5q-49 0 -87 38.5t-38 88.5z" />
<glyph unicode="&#xc0;" horiz-adv-x="1452" d="M-72 0l13 57l186 35l1204 1338h64l-283 -1338l150 -35l-13 -57h-506l13 57l194 35l109 492h-389l-430 -494l170 -33l-13 -57h-469zM733 655h342l119 527zM1071.5 1718.5q1.5 25.5 13.5 46.5q26 33 66 33q48 0 90 -47l125 -139l94 -64l-33 -49l-96 64l-176 59 q-41 15 -63 43t-20.5 53.5z" />
<glyph unicode="&#xc1;" horiz-adv-x="1452" d="M-72 0l13 57l186 35l1204 1338h64l-283 -1338l150 -35l-13 -57h-506l13 57l194 35l109 492h-389l-430 -494l170 -33l-13 -57h-469zM733 655h342l119 527zM1174 1548l94 64l125 139q42 47 90 47q39 0 65 -33q12 -21 14 -46.5t-20 -53.5t-63 -43l-176 -59l-97 -64z" />
<glyph unicode="&#xc2;" horiz-adv-x="1452" d="M-72 0l13 57l186 35l1204 1338h64l-283 -1338l150 -35l-13 -57h-506l13 57l194 35l109 492h-389l-430 -494l170 -33l-13 -57h-469zM733 655h342l119 527zM1077 1520q95 81 162 154t90 109.5t41.5 57.5t38.5 21q31 0 43.5 -16.5t18.5 -48t41.5 -111t97.5 -173.5l-35 -28 l-184 192l-285 -192z" />
<glyph unicode="&#xc3;" horiz-adv-x="1452" d="M-72 0l13 57l186 35l1204 1338h64l-283 -1338l150 -35l-13 -57h-506l13 57l194 35l109 492h-389l-430 -494l170 -33l-13 -57h-469zM733 655h342l119 527zM1069 1538q74 104 130.5 150.5t109.5 46.5q43 0 94 -31l96 -59q32 -20 67.5 -6.5t92.5 67.5l45 41l31 -29 q-72 -104 -130 -151t-112 -47q-43 0 -92 30l-96 60q-34 18 -67.5 4.5t-92.5 -66.5l-45 -39z" />
<glyph unicode="&#xc4;" horiz-adv-x="1452" d="M-72 0l13 57l186 35l1204 1338h64l-283 -1338l150 -35l-13 -57h-506l13 57l194 35l109 492h-389l-430 -494l170 -33l-13 -57h-469zM733 655h342l119 527zM1081 1630q0 43 32 74t71 31q38 0 70 -31t32 -74t-32 -73.5t-70 -30.5q-40 0 -71.5 30.5t-31.5 73.5zM1442 1630 q0 43 32 74t70 31q39 0 71 -31t32 -74t-31.5 -73.5t-71.5 -30.5q-38 0 -70 30.5t-32 73.5z" />
<glyph unicode="&#xc5;" horiz-adv-x="1452" d="M-72 0l13 57l186 35l1194 1325q-54 22 -86.5 71t-32.5 114q0 78 58 132t133 54q78 0 134 -56.5t56 -142.5q0 -80 -57 -133t-133 -53h-4l-277 -1311l150 -35l-13 -57h-506l13 57l194 35l109 492h-389l-430 -494l170 -33l-13 -57h-469zM733 655h342l119 527zM1276 1595 q0 -59 32.5 -95t84.5 -36q49 0 82.5 35t33.5 96q0 59 -32 95t-84 36q-49 0 -83 -35t-34 -96z" />
<glyph unicode="&#xc6;" horiz-adv-x="2043" d="M-72 0l13 57l186 35l1061 1229l-170 31l12 57h907l43 -362l-28 -11l-176 291l-385 33l-129 -615l258 17l131 194h35l-101 -469h-35l-43 195l-256 16l-135 -643l570 39l282 357l33 -13l-154 -438h-1097l12 57l201 35l102 492h-412l-413 -494l170 -33l-13 -57h-469z M713 655h368l123 588z" />
<glyph unicode="&#xc7;" horiz-adv-x="1241" d="M98 584q0 124 37.5 249t105.5 230t156 187t196 128.5t218 46.5q98 0 168 -28.5t127 -91.5l49 104h41l6 -477l-39 -8q-53 143 -87.5 219.5t-75 126t-81.5 64t-106 14.5q-68 0 -128 -18t-120.5 -63t-110.5 -116.5t-94 -183.5t-75 -258q-31 -152 -31 -260q0 -192 88.5 -290 t263.5 -98q265 0 471 265l51 -39q-103 -147 -239 -225t-297 -78h-21l-125 -109q170 -42 170 -151q0 -56 -53.5 -93t-138.5 -37q-56 0 -112 18t-85 36l13 33q3 -1 26 -7.5t32.5 -9t29.5 -7t37.5 -6t35.5 -1.5q109 0 109 57q0 32 -36.5 54t-133.5 32l-8 19l162 180 q-192 33 -294 192.5t-102 399.5z" />
<glyph unicode="&#xc8;" horiz-adv-x="1259" d="M-35 0l12 57l201 35l258 1225l-186 35l12 57h891l43 -362l-29 -11l-176 291l-385 33l-129 -615l258 17l131 194h35l-100 -469h-35l-43 195l-256 16l-135 -643l569 39l283 357l33 -13l-154 -438h-1098zM557.5 1718.5q1.5 25.5 13.5 46.5q26 33 66 33q48 0 90 -47l125 -139 l94 -64l-33 -49l-96 64l-176 59q-41 15 -63 43t-20.5 53.5z" />
<glyph unicode="&#xc9;" horiz-adv-x="1259" d="M-35 0l12 57l201 35l258 1225l-186 35l12 57h891l43 -362l-29 -11l-176 291l-385 33l-129 -615l258 17l131 194h35l-100 -469h-35l-43 195l-256 16l-135 -643l569 39l283 357l33 -13l-154 -438h-1098zM688 1548l94 64l125 139q42 47 90 47q40 0 66 -33q12 -21 13.5 -46.5 t-20.5 -53.5t-63 -43l-176 -59l-96 -64z" />
<glyph unicode="&#xca;" horiz-adv-x="1259" d="M-35 0l12 57l201 35l258 1225l-186 35l12 57h891l43 -362l-29 -11l-176 291l-385 33l-129 -615l258 17l131 194h35l-100 -469h-35l-43 195l-256 16l-135 -643l569 39l283 357l33 -13l-154 -438h-1098zM557 1520q95 81 162 154t90 109.5t41.5 57.5t38.5 21 q31 0 43.5 -16.5t18.5 -48t41.5 -111t97.5 -173.5l-35 -28l-185 192l-284 -192z" />
<glyph unicode="&#xcb;" horiz-adv-x="1259" d="M-35 0l12 57l201 35l258 1225l-186 35l12 57h891l43 -362l-29 -11l-176 291l-385 33l-129 -615l258 17l131 194h35l-100 -469h-35l-43 195l-256 16l-135 -643l569 39l283 357l33 -13l-154 -438h-1098zM547 1630q0 43 31.5 74t70.5 31q38 0 70.5 -31t32.5 -74t-32.5 -73.5 t-70.5 -30.5q-39 0 -70.5 30.5t-31.5 73.5zM907 1630q0 43 32.5 74t70.5 31q39 0 70.5 -31t31.5 -74t-31.5 -73.5t-70.5 -30.5q-38 0 -70.5 30.5t-32.5 73.5z" />
<glyph unicode="&#xcc;" horiz-adv-x="729" d="M-35 0l12 57l205 35l256 1225l-188 35l12 57h553l-12 -57l-203 -35l-258 -1225l190 -35l-12 -57h-555zM312 1718.5q2 25.5 14 46.5q26 33 65 33q48 0 90 -47l125 -139l94 -64l-32 -49l-97 64l-176 59q-41 15 -63 43t-20 53.5z" />
<glyph unicode="&#xcd;" horiz-adv-x="729" d="M-35 0l12 57l205 35l256 1225l-188 35l12 57h553l-12 -57l-203 -35l-258 -1225l190 -35l-12 -57h-555zM397 1548l95 64l124 139q42 47 91 47q39 0 65 -33q12 -21 13.5 -46.5t-20.5 -53.5t-63 -43l-176 -59l-96 -64z" />
<glyph unicode="&#xce;" horiz-adv-x="729" d="M-35 0l12 57l205 35l256 1225l-188 35l12 57h553l-12 -57l-203 -35l-258 -1225l190 -35l-12 -57h-555zM289 1520q95 81 162 154t90 109.5t41.5 57.5t38.5 21q31 0 43.5 -16.5t18 -48.5t41 -111t97.5 -173l-35 -28l-184 192l-285 -192z" />
<glyph unicode="&#xcf;" horiz-adv-x="729" d="M-35 0l12 57l205 35l256 1225l-188 35l12 57h553l-12 -57l-203 -35l-258 -1225l190 -35l-12 -57h-555zM281 1630q0 43 31.5 74t70.5 31q38 0 70 -31t32 -74t-32 -73.5t-70 -30.5q-39 0 -70.5 30.5t-31.5 73.5zM641 1630q0 43 32 74t70 31q39 0 71 -31t32 -74t-31.5 -73.5 t-71.5 -30.5q-38 0 -70 30.5t-32 73.5z" />
<glyph unicode="&#xd0;" horiz-adv-x="1400" d="M-35 0l12 57l201 35l113 537h-217l18 82h215l129 606l-186 35l12 57h572q113 0 203 -33t148.5 -88.5t97 -133.5t55 -163.5t16.5 -183.5q0 -158 -55.5 -303.5t-155 -257.5t-250.5 -179t-330 -67h-598zM334 70h211q114 0 203 25.5t154.5 72.5t115.5 124t84.5 171t62.5 221 q35 158 35 272q0 195 -95 288t-284 93h-219l-133 -626h299l-18 -82h-297z" />
<glyph unicode="&#xd1;" horiz-adv-x="1486" d="M-35 0l12 57l205 35l260 1225l-190 35l12 57h377l457 -1128l170 1036l-205 35l12 57h512l-12 -57l-189 -35l-282 -1329h-51l-545 1329l-207 -1225l205 -35l-12 -57h-529zM627 1538q75 104 130.5 150.5t108.5 46.5q44 0 95 -31l96 -59q32 -20 67.5 -6.5t92.5 67.5l45 41 l30 -29q-72 -104 -129.5 -151t-111.5 -47q-43 0 -93 30l-96 60q-34 18 -67.5 4.5t-92.5 -66.5l-45 -39z" />
<glyph unicode="&#xd2;" horiz-adv-x="1382" d="M98 584q0 122 37 244.5t106 229t159 189.5t204 130.5t234 47.5t216.5 -51.5t156.5 -138t92 -196t32 -230.5q0 -154 -60.5 -304t-161 -264.5t-241 -185.5t-290.5 -71q-117 0 -211.5 51.5t-152.5 137t-89 191t-31 220.5zM256 451q0 -198 88 -294t240 -96q196 0 345 153 t218 472q31 149 31 252q0 207 -94 308.5t-248 101.5q-206 0 -342 -151t-207 -490q-31 -152 -31 -256zM660 1718.5q2 25.5 14 46.5q26 33 65 33q48 0 90 -47l125 -139l95 -64l-33 -49l-96 64l-177 59q-41 15 -63 43t-20 53.5z" />
<glyph unicode="&#xd3;" horiz-adv-x="1382" d="M98 584q0 122 37 244.5t106 229t159 189.5t204 130.5t234 47.5t216.5 -51.5t156.5 -138t92 -196t32 -230.5q0 -154 -60.5 -304t-161 -264.5t-241 -185.5t-290.5 -71q-117 0 -211.5 51.5t-152.5 137t-89 191t-31 220.5zM256 451q0 -198 88 -294t240 -96q196 0 345 153 t218 472q31 149 31 252q0 207 -94 308.5t-248 101.5q-206 0 -342 -151t-207 -490q-31 -152 -31 -256zM725 1548l94 64l125 139q42 47 90 47q40 0 66 -33q12 -21 13.5 -46.5t-20.5 -53.5t-63 -43l-176 -59l-96 -64z" />
<glyph unicode="&#xd4;" horiz-adv-x="1382" d="M98 584q0 122 37 244.5t106 229t159 189.5t204 130.5t234 47.5t216.5 -51.5t156.5 -138t92 -196t32 -230.5q0 -154 -60.5 -304t-161 -264.5t-241 -185.5t-290.5 -71q-117 0 -211.5 51.5t-152.5 137t-89 191t-31 220.5zM256 451q0 -198 88 -294t240 -96q196 0 345 153 t218 472q31 149 31 252q0 207 -94 308.5t-248 101.5q-206 0 -342 -151t-207 -490q-31 -152 -31 -256zM592 1520q95 81 162 154t90 109.5t41.5 57.5t38.5 21q31 0 43.5 -16.5t18 -48.5t41 -111t97.5 -173l-34 -28l-185 192l-284 -192z" />
<glyph unicode="&#xd5;" horiz-adv-x="1382" d="M98 584q0 122 37 244.5t106 229t159 189.5t204 130.5t234 47.5t216.5 -51.5t156.5 -138t92 -196t32 -230.5q0 -154 -60.5 -304t-161 -264.5t-241 -185.5t-290.5 -71q-117 0 -211.5 51.5t-152.5 137t-89 191t-31 220.5zM256 451q0 -198 88 -294t240 -96q196 0 345 153 t218 472q31 149 31 252q0 207 -94 308.5t-248 101.5q-206 0 -342 -151t-207 -490q-31 -152 -31 -256zM563 1538q74 104 130.5 150.5t109.5 46.5q43 0 94 -31l96 -59q32 -20 67.5 -6.5t92.5 67.5l45 41l31 -29q-72 -104 -130 -151t-112 -47q-42 0 -92 30l-96 60 q-34 18 -67.5 4.5t-92.5 -66.5l-45 -39z" />
<glyph unicode="&#xd6;" horiz-adv-x="1382" d="M98 584q0 122 37 244.5t106 229t159 189.5t204 130.5t234 47.5t216.5 -51.5t156.5 -138t92 -196t32 -230.5q0 -154 -60.5 -304t-161 -264.5t-241 -185.5t-290.5 -71q-117 0 -211.5 51.5t-152.5 137t-89 191t-31 220.5zM256 451q0 -198 88 -294t240 -96q196 0 345 153 t218 472q31 149 31 252q0 207 -94 308.5t-248 101.5q-206 0 -342 -151t-207 -490q-31 -152 -31 -256zM594 1630q0 43 31.5 74t70.5 31q38 0 70.5 -31t32.5 -74t-32.5 -73.5t-70.5 -30.5q-39 0 -70.5 30.5t-31.5 73.5zM954 1630q0 43 32.5 74t70.5 31q39 0 70.5 -31t31.5 -74 t-31.5 -73.5t-70.5 -30.5q-38 0 -70.5 30.5t-32.5 73.5z" />
<glyph unicode="&#xd7;" horiz-adv-x="1030" d="M102 336l379 328l-256 331l60 45l254 -327l376 327l48 -53l-381 -330l258 -329l-60 -47l-254 327l-376 -325z" />
<glyph unicode="&#xd8;" horiz-adv-x="1382" d="M-2 -78l217 254q-57 82 -87 188.5t-30 219.5q0 122 37 244.5t106 229t159 189.5t204 130.5t234 47.5q197 0 327 -137l162 189h100l-213 -248q121 -174 121 -420q0 -154 -60.5 -304t-161 -264.5t-241 -185.5t-290.5 -71q-190 0 -318 131l-166 -193h-100zM256 449 q0 -109 29 -191l821 959q-89 131 -270 131q-206 0 -342 -151t-207 -490q-31 -152 -31 -258zM322 184q84 -123 262 -123q196 0 345 153t218 472q29 136 29 252q0 125 -33 207z" />
<glyph unicode="&#xd9;" horiz-adv-x="1443" d="M219 371q0 65 14 125l177 821l-177 35l13 57h510l-13 -57l-172 -35l-174 -821q-18 -82 -18 -154q0 -274 307 -274q170 0 265 88.5t130 255.5l193 905l-158 35l12 57h431l-13 -57l-153 -35l-228 -924q-100 -409 -487 -409q-218 0 -338.5 104.5t-120.5 282.5zM613 1718.5 q2 25.5 14 46.5q26 33 65 33q48 0 90 -47l125 -139l94 -64l-32 -49l-97 64l-176 59q-41 15 -63 43t-20 53.5z" />
<glyph unicode="&#xda;" horiz-adv-x="1443" d="M219 371q0 65 14 125l177 821l-177 35l13 57h510l-13 -57l-172 -35l-174 -821q-18 -82 -18 -154q0 -274 307 -274q170 0 265 88.5t130 255.5l193 905l-158 35l12 57h431l-13 -57l-153 -35l-228 -924q-100 -409 -487 -409q-218 0 -338.5 104.5t-120.5 282.5zM834 1548 l94 64l125 139q42 47 90 47q39 0 65 -33q12 -21 14 -46.5t-20 -53.5t-63 -43l-176 -59l-97 -64z" />
<glyph unicode="&#xdb;" horiz-adv-x="1443" d="M219 371q0 65 14 125l177 821l-177 35l13 57h510l-13 -57l-172 -35l-174 -821q-18 -82 -18 -154q0 -274 307 -274q170 0 265 88.5t130 255.5l193 905l-158 35l12 57h431l-13 -57l-153 -35l-228 -924q-100 -409 -487 -409q-218 0 -338.5 104.5t-120.5 282.5zM684 1520 q95 81 162 154t90 109.5t41.5 57.5t38.5 21q31 0 43.5 -16.5t18.5 -48t41.5 -111t97.5 -173.5l-35 -28l-185 192l-284 -192z" />
<glyph unicode="&#xdc;" horiz-adv-x="1443" d="M219 371q0 65 14 125l177 821l-177 35l13 57h510l-13 -57l-172 -35l-174 -821q-18 -82 -18 -154q0 -274 307 -274q170 0 265 88.5t130 255.5l193 905l-158 35l12 57h431l-13 -57l-153 -35l-228 -924q-100 -409 -487 -409q-218 0 -338.5 104.5t-120.5 282.5zM668 1630 q0 43 31.5 74t70.5 31q38 0 70 -31t32 -74t-32 -73.5t-70 -30.5q-39 0 -70.5 30.5t-31.5 73.5zM1028 1630q0 43 32 74t70 31q39 0 71 -31t32 -74t-31.5 -73.5t-71.5 -30.5q-38 0 -70 30.5t-32 73.5z" />
<glyph unicode="&#xdd;" horiz-adv-x="1277" d="M117 1133q0 126 72 209t202 83q150 0 236 -136.5t86 -383.5q0 -61 -6 -125q92 283 233 464t268 181q82 0 124 -46t42 -115q0 -50 -29 -83.5t-71 -33.5q-39 0 -66.5 25.5t-27.5 64.5t24 65t76 27v4q-11 10 -40.5 12t-70.5 -8q-87 -24 -185 -155t-182.5 -334t-131.5 -426 l-70 -330l184 -35l-12 -57h-545l13 57l196 35l58 270q67 318 67 549q0 210 -54.5 317t-146.5 107q-88 0 -133 -62t-45 -163q0 -47 21 -104h4q6 48 31.5 75t64.5 27q40 0 66 -27.5t26 -66.5q0 -44 -31 -76.5t-77 -32.5q-73 0 -121.5 62t-48.5 166zM723 1548l94 64l125 139 q42 47 90 47q40 0 66 -33q12 -21 13.5 -46.5t-20.5 -53.5t-63 -43l-176 -59l-96 -64z" />
<glyph unicode="&#xde;" horiz-adv-x="1208" d="M-35 0l12 57l201 35l258 1225l-186 35l12 57h535l-13 -57l-186 -35l-39 -182h229q151 0 252 -102.5t101 -264.5q0 -132 -57.5 -239.5t-164.5 -170.5t-243 -63q-84 0 -176 27l-107 28l-53 -258l174 -35l-12 -57h-537zM406 406l137 -21q72 -10 116 -10q135 0 204.5 72 t107.5 239q18 80 18 143q0 116 -57 176t-164 60h-223z" />
<glyph unicode="&#xdf;" horiz-adv-x="1091" d="M-303 -240q0 48 28 75.5t62 27.5q36 0 59 -24t23 -58t-21.5 -58t-60.5 -30v-4q28 -17 72 -17q48 0 80.5 27.5t50.5 93.5l354 1362q32 121 76.5 204.5t96.5 125t101 58t105 16.5q101 0 176.5 -78.5t75.5 -200.5q0 -76 -29 -143t-78 -115.5t-108 -82.5t-125 -54v-4 q153 -82 247.5 -210.5t94.5 -297.5q0 -102 -40 -189t-125 -143.5t-200 -56.5q-126 0 -200 60t-74 134q0 51 33 87t78 36q42 0 71 -29t29 -67q0 -48 -29.5 -78t-85.5 -27v-4q51 -45 144 -45q39 0 70 9t60.5 30t51.5 60t35 96q18 86 18 172q0 158 -66 278t-194 168l10 49 q44 14 74 27t64.5 37t58 54t44.5 77.5t34 108.5q12 65 12 112q0 164 -127 164q-76 0 -123 -56t-82 -180l-383 -1388q-41 -147 -100.5 -201.5t-153.5 -54.5q-77 0 -130.5 43t-53.5 104z" />
<glyph unicode="&#xe0;" horiz-adv-x="978" d="M18 158q0 122 52 269.5t131.5 271t182.5 207t196 83.5q98 0 149 -90l21 78h153l-221 -854l221 248l23 -21q-130 -206 -203 -286t-133 -80q-78 0 -55 122l26 132l137 366l-4 2q-164 -308 -290 -465t-238 -157q-69 0 -108.5 47t-39.5 127zM176 162q0 -74 45 -74 q129 0 426 512l62 227q-42 99 -138 99q-106 0 -200.5 -136.5t-161.5 -420.5q-33 -141 -33 -207zM418.5 1317.5q1.5 25.5 13.5 46.5q26 33 66 33q48 0 90 -47l125 -140l94 -63l-33 -49l-96 63l-176 60q-41 15 -63 43t-20.5 53.5z" />
<glyph unicode="&#xe1;" horiz-adv-x="978" d="M18 158q0 122 52 269.5t131.5 271t182.5 207t196 83.5q98 0 149 -90l21 78h153l-221 -854l221 248l23 -21q-130 -206 -203 -286t-133 -80q-78 0 -55 122l26 132l137 366l-4 2q-164 -308 -290 -465t-238 -157q-69 0 -108.5 47t-39.5 127zM176 162q0 -74 45 -74 q129 0 426 512l62 227q-42 99 -138 99q-106 0 -200.5 -136.5t-161.5 -420.5q-33 -141 -33 -207zM504 1147l94 63l125 140q42 47 90 47q40 0 66 -33q12 -21 13.5 -46.5t-20.5 -53.5t-63 -43l-176 -60l-96 -63z" />
<glyph unicode="&#xe2;" horiz-adv-x="978" d="M18 158q0 122 52 269.5t131.5 271t182.5 207t196 83.5q98 0 149 -90l21 78h153l-221 -854l221 248l23 -21q-130 -206 -203 -286t-133 -80q-78 0 -55 122l26 132l137 366l-4 2q-164 -308 -290 -465t-238 -157q-69 0 -108.5 47t-39.5 127zM176 162q0 -74 45 -74 q129 0 426 512l62 227q-42 99 -138 99q-106 0 -200.5 -136.5t-161.5 -420.5q-33 -141 -33 -207zM373 1118q95 81 162 154t90 109.5t41.5 57.5t38.5 21q31 0 43.5 -16t18 -48t41 -111t97.5 -173l-35 -29l-184 193l-285 -193z" />
<glyph unicode="&#xe3;" horiz-adv-x="978" d="M18 158q0 122 52 269.5t131.5 271t182.5 207t196 83.5q98 0 149 -90l21 78h153l-221 -854l221 248l23 -21q-130 -206 -203 -286t-133 -80q-78 0 -55 122l26 132l137 366l-4 2q-164 -308 -290 -465t-238 -157q-69 0 -108.5 47t-39.5 127zM176 162q0 -74 45 -74 q129 0 426 512l62 227q-42 99 -138 99q-106 0 -200.5 -136.5t-161.5 -420.5q-33 -141 -33 -207zM334 1137q74 104 130 150t109 46q45 0 95 -30l96 -60q33 -20 68 -6t92 68l45 41l30 -29q-72 -104 -129.5 -151.5t-111.5 -47.5q-41 0 -92 31l-97 59q-34 19 -67 5.5t-92 -66.5 l-45 -39z" />
<glyph unicode="&#xe4;" horiz-adv-x="978" d="M18 158q0 122 52 269.5t131.5 271t182.5 207t196 83.5q98 0 149 -90l21 78h153l-221 -854l221 248l23 -21q-130 -206 -203 -286t-133 -80q-78 0 -55 122l26 132l137 366l-4 2q-164 -308 -290 -465t-238 -157q-69 0 -108.5 47t-39.5 127zM176 162q0 -74 45 -74 q129 0 426 512l62 227q-42 99 -138 99q-106 0 -200.5 -136.5t-161.5 -420.5q-33 -141 -33 -207zM371 1229q0 43 31.5 73.5t70.5 30.5q38 0 70 -30.5t32 -73.5t-32 -74t-70 -31q-39 0 -70.5 31t-31.5 74zM731 1229q0 43 32.5 73.5t70.5 30.5q39 0 70.5 -30.5t31.5 -73.5 t-31.5 -74t-70.5 -31q-38 0 -70.5 31t-32.5 74z" />
<glyph unicode="&#xe5;" horiz-adv-x="978" d="M18 158q0 122 52 269.5t131.5 271t182.5 207t196 83.5q98 0 149 -90l21 78h153l-221 -854l221 248l23 -21q-130 -206 -203 -286t-133 -80q-78 0 -55 122l26 132l137 366l-4 2q-164 -308 -290 -465t-238 -157q-69 0 -108.5 47t-39.5 127zM176 162q0 -74 45 -74 q129 0 426 512l62 227q-42 99 -138 99q-106 0 -200.5 -136.5t-161.5 -420.5q-33 -141 -33 -207zM467 1282q0 78 57.5 132t132.5 54q78 0 134.5 -56t56.5 -142q0 -80 -57.5 -133.5t-133.5 -53.5q-78 0 -134 56.5t-56 142.5zM541 1276q0 -59 32 -95t84 -36q49 0 83 35t34 96 q0 59 -32.5 95t-84.5 36q-49 0 -82.5 -35t-33.5 -96z" />
<glyph unicode="&#xe6;" horiz-adv-x="1349" d="M18 158q0 122 52 269.5t131.5 271t182.5 207t196 83.5q71 0 123 -44t92 -144q79 86 164 137t165 51q82 0 136.5 -44.5t54.5 -121.5q0 -116 -153 -212t-394 -136q-33 -132 -33 -225q0 -174 121 -174q77 0 159 67.5t179 204.5l35 -20q-30 -53 -58.5 -97t-69.5 -92 t-82.5 -80.5t-94.5 -53.5t-109 -21q-114 0 -179 78.5t-61 213.5l123 328l-4 2q-164 -308 -290 -465t-238 -157q-69 0 -108.5 47t-39.5 127zM176 162q0 -74 45 -74q129 0 426 512q55 94 111 158q-42 93 -85 130.5t-102 37.5q-106 0 -200.5 -136.5t-161.5 -420.5 q-33 -141 -33 -207zM780 518q119 29 197 62t121 74.5t59.5 86.5t16.5 107q0 34 -13.5 56t-40.5 22q-37 0 -80 -21.5t-91 -66.5t-93 -128t-76 -192z" />
<glyph unicode="&#xe7;" horiz-adv-x="796" d="M-76 -352l13 33q3 -1 26 -7.5t32.5 -9t29.5 -7t37.5 -6t35.5 -1.5q109 0 109 57q0 32 -36.5 54t-133.5 32l-8 19l166 184q-76 23 -119 92t-43 168q0 120 42 248.5t113.5 236.5t179 178t226.5 70q86 0 146.5 -44.5t60.5 -127.5q0 -50 -33 -86.5t-80 -36.5q-44 0 -73 29 t-29 72q0 40 23.5 71.5t60.5 42.5v4q-29 11 -68 11q-54 0 -104 -21t-100 -68.5t-93 -133.5t-74 -205q-38 -144 -38 -248q0 -172 120 -172q77 0 159 67.5t179 204.5l35 -20q-30 -53 -58.5 -97t-69.5 -92t-82.5 -80.5t-94.5 -53.5t-109 -21h-4l-125 -109q170 -42 170 -151 q0 -56 -53.5 -93t-138.5 -37q-56 0 -112 18t-85 36z" />
<glyph unicode="&#xe8;" horiz-adv-x="806" d="M33 256q0 90 26 191.5t75.5 197t114.5 173t150 124.5t174 47q88 0 143.5 -44t55.5 -122q0 -116 -153 -212t-394 -136q-37 -145 -37 -237q0 -162 125 -162q77 0 159 67.5t179 204.5l35 -20q-30 -53 -58.5 -97t-69.5 -92t-82.5 -80.5t-94.5 -53.5t-109 -21 q-118 0 -178.5 73t-60.5 199zM238 518q119 29 197 62t120.5 74t59 84t16.5 102q0 86 -64 86q-28 0 -55.5 -7.5t-66 -33t-72.5 -68t-70.5 -119.5t-64.5 -180zM332.5 1317.5q1.5 25.5 13.5 46.5q26 33 66 33q48 0 90 -47l125 -140l94 -63l-33 -49l-96 63l-176 60 q-41 15 -63 43t-20.5 53.5z" />
<glyph unicode="&#xe9;" horiz-adv-x="806" d="M33 256q0 90 26 191.5t75.5 197t114.5 173t150 124.5t174 47q88 0 143.5 -44t55.5 -122q0 -116 -153 -212t-394 -136q-37 -145 -37 -237q0 -162 125 -162q77 0 159 67.5t179 204.5l35 -20q-30 -53 -58.5 -97t-69.5 -92t-82.5 -80.5t-94.5 -53.5t-109 -21 q-118 0 -178.5 73t-60.5 199zM238 518q119 29 197 62t120.5 74t59 84t16.5 102q0 86 -64 86q-28 0 -55.5 -7.5t-66 -33t-72.5 -68t-70.5 -119.5t-64.5 -180zM418 1147l94 63l125 140q42 47 90 47q40 0 66 -33q12 -21 13.5 -46.5t-20.5 -53.5t-63 -43l-176 -60l-96 -63z" />
<glyph unicode="&#xea;" horiz-adv-x="806" d="M33 256q0 90 26 191.5t75.5 197t114.5 173t150 124.5t174 47q88 0 143.5 -44t55.5 -122q0 -116 -153 -212t-394 -136q-37 -145 -37 -237q0 -162 125 -162q77 0 159 67.5t179 204.5l35 -20q-30 -53 -58.5 -97t-69.5 -92t-82.5 -80.5t-94.5 -53.5t-109 -21 q-118 0 -178.5 73t-60.5 199zM238 518q119 29 197 62t120.5 74t59 84t16.5 102q0 86 -64 86q-28 0 -55.5 -7.5t-66 -33t-72.5 -68t-70.5 -119.5t-64.5 -180zM291 1118q95 81 162 154t90 109.5t41.5 57.5t38.5 21q31 0 43.5 -16t18 -48t41 -111t97.5 -173l-35 -29l-184 193 l-285 -193z" />
<glyph unicode="&#xeb;" horiz-adv-x="806" d="M33 256q0 90 26 191.5t75.5 197t114.5 173t150 124.5t174 47q88 0 143.5 -44t55.5 -122q0 -116 -153 -212t-394 -136q-37 -145 -37 -237q0 -162 125 -162q77 0 159 67.5t179 204.5l35 -20q-30 -53 -58.5 -97t-69.5 -92t-82.5 -80.5t-94.5 -53.5t-109 -21 q-118 0 -178.5 73t-60.5 199zM238 518q119 29 197 62t120.5 74t59 84t16.5 102q0 86 -64 86q-28 0 -55.5 -7.5t-66 -33t-72.5 -68t-70.5 -119.5t-64.5 -180zM295 1229q0 43 31.5 73.5t70.5 30.5q38 0 70.5 -30.5t32.5 -73.5t-32.5 -74t-70.5 -31q-39 0 -70.5 31t-31.5 74z M655 1229q0 43 32.5 73.5t70.5 30.5q39 0 70.5 -30.5t31.5 -73.5t-31.5 -74t-70.5 -31q-38 0 -70.5 31t-32.5 74z" />
<glyph unicode="&#xec;" horiz-adv-x="577" d="M53 637q129 192 209 272t137 80q68 0 68 -74q0 -27 -12 -67l-209 -729l209 213l22 -21q-137 -199 -201.5 -263t-128.5 -64q-49 0 -49 67q0 37 15 96l188 715l-223 -246zM142 1317.5q2 25.5 14 46.5q26 33 65 33q48 0 90 -47l125 -140l94 -63l-32 -49l-97 63l-176 60 q-41 15 -63 43t-20 53.5z" />
<glyph unicode="&#xed;" horiz-adv-x="577" d="M53 637q129 192 209 272t137 80q68 0 68 -74q0 -27 -12 -67l-209 -729l209 213l22 -21q-137 -199 -201.5 -263t-128.5 -64q-49 0 -49 67q0 37 15 96l188 715l-223 -246zM283 1147l94 63l125 140q42 47 90 47q39 0 65 -33q12 -21 14 -46.5t-20 -53.5t-63 -43l-176 -60 l-97 -63z" />
<glyph unicode="&#xee;" horiz-adv-x="577" d="M53 637q129 192 209 272t137 80q68 0 68 -74q0 -27 -12 -67l-209 -729l209 213l22 -21q-137 -199 -201.5 -263t-128.5 -64q-49 0 -49 67q0 37 15 96l188 715l-223 -246zM135 1118q95 81 162 154t90 109.5t41.5 57.5t38.5 21q31 0 43.5 -16t18.5 -48t41.5 -111t97.5 -173 l-35 -29l-184 193l-285 -193z" />
<glyph unicode="&#xef;" horiz-adv-x="577" d="M53 637q129 192 209 272t137 80q68 0 68 -74q0 -27 -12 -67l-209 -729l209 213l22 -21q-137 -199 -201.5 -263t-128.5 -64q-49 0 -49 67q0 37 15 96l188 715l-223 -246zM145 1229q0 43 31.5 73.5t71.5 30.5q38 0 70 -30.5t32 -73.5t-32 -74t-70 -31q-39 0 -71 31t-32 74z M506 1229q0 43 32 73.5t70 30.5q40 0 71.5 -30.5t31.5 -73.5t-32 -74t-71 -31q-38 0 -70 31t-32 74z" />
<glyph unicode="&#xf0;" horiz-adv-x="927" d="M43 317q0 120 45.5 243t116.5 216.5t164 153t182 59.5q82 0 131 -43q-44 168 -135 287l-197 -139l-37 47l195 137q-61 69 -156 152l35 47q113 -68 197 -144l192 135l37 -47l-186 -131q225 -235 225 -588q0 -143 -45 -277t-117 -230t-165.5 -153.5t-188.5 -57.5 q-141 0 -217 91.5t-76 241.5zM186 219q0 -90 38 -130t110 -40t126 38t105.5 139t98.5 276q43 162 43 254q0 90 -36.5 129t-109.5 39q-72 0 -126 -37.5t-106 -138.5t-100 -277q-43 -157 -43 -252z" />
<glyph unicode="&#xf1;" horiz-adv-x="1048" d="M41 637q236 352 332 352q67 0 67 -90q0 -34 -8 -70l-20 -86l-129 -323l4 -2q299 571 499 571q132 0 132 -147q0 -62 -27 -156l-170 -588l231 234l23 -21q-103 -148 -166 -220.5t-93.5 -89.5t-68.5 -17q-33 0 -48 12.5t-15 44.5q0 21 14 86l162 633q14 52 14 84 q0 45 -43 45q-25 0 -59.5 -21.5t-84.5 -72.5t-120.5 -154.5t-151.5 -247.5l-106 -393h-150l230 862l-223 -246zM315 1137q74 104 130 150t110 46q45 0 94 -30l96 -60q33 -20 68 -6t92 68l45 41l31 -29q-72 -104 -130 -151.5t-112 -47.5q-41 0 -92 31l-96 59 q-34 19 -67.5 5.5t-92.5 -66.5l-45 -39z" />
<glyph unicode="&#xf2;" horiz-adv-x="931" d="M43 317q0 160 75.5 317t196 256t244.5 99q137 0 214 -93.5t77 -242.5q0 -161 -74.5 -317t-194.5 -254t-245 -98q-141 0 -217 91.5t-76 241.5zM186 219q0 -90 38 -130t110 -40t126 38t105.5 139t98.5 276q43 162 43 254q0 90 -36.5 129t-109.5 39q-72 0 -126 -37.5 t-106 -138.5t-100 -277q-43 -157 -43 -252zM414.5 1317.5q1.5 25.5 13.5 46.5q26 33 66 33q48 0 90 -47l125 -140l94 -63l-33 -49l-96 63l-176 60q-41 15 -63 43t-20.5 53.5z" />
<glyph unicode="&#xf3;" horiz-adv-x="931" d="M43 317q0 160 75.5 317t196 256t244.5 99q137 0 214 -93.5t77 -242.5q0 -161 -74.5 -317t-194.5 -254t-245 -98q-141 0 -217 91.5t-76 241.5zM186 219q0 -90 38 -130t110 -40t126 38t105.5 139t98.5 276q43 162 43 254q0 90 -36.5 129t-109.5 39q-72 0 -126 -37.5 t-106 -138.5t-100 -277q-43 -157 -43 -252zM500 1147l94 63l125 140q42 47 90 47q39 0 65 -33q12 -21 14 -46.5t-20 -53.5t-63 -43l-176 -60l-97 -63z" />
<glyph unicode="&#xf4;" horiz-adv-x="931" d="M43 317q0 160 75.5 317t196 256t244.5 99q137 0 214 -93.5t77 -242.5q0 -161 -74.5 -317t-194.5 -254t-245 -98q-141 0 -217 91.5t-76 241.5zM186 219q0 -90 38 -130t110 -40t126 38t105.5 139t98.5 276q43 162 43 254q0 90 -36.5 129t-109.5 39q-72 0 -126 -37.5 t-106 -138.5t-100 -277q-43 -157 -43 -252zM330 1118q95 81 162 154t90 109.5t41.5 57.5t38.5 21q31 0 43.5 -16t18 -48t41 -111t97.5 -173l-35 -29l-184 193l-285 -193z" />
<glyph unicode="&#xf5;" horiz-adv-x="931" d="M43 317q0 160 75.5 317t196 256t244.5 99q137 0 214 -93.5t77 -242.5q0 -161 -74.5 -317t-194.5 -254t-245 -98q-141 0 -217 91.5t-76 241.5zM186 219q0 -90 38 -130t110 -40t126 38t105.5 139t98.5 276q43 162 43 254q0 90 -36.5 129t-109.5 39q-72 0 -126 -37.5 t-106 -138.5t-100 -277q-43 -157 -43 -252zM293 1137q74 104 130 150t109 46q46 0 95 -30l96 -60q33 -20 68 -6t92 68l45 41l30 -29q-72 -104 -129.5 -151.5t-111.5 -47.5q-41 0 -92 31l-97 59q-34 19 -67 5.5t-92 -66.5l-45 -39z" />
<glyph unicode="&#xf6;" horiz-adv-x="931" d="M43 317q0 160 75.5 317t196 256t244.5 99q137 0 214 -93.5t77 -242.5q0 -161 -74.5 -317t-194.5 -254t-245 -98q-141 0 -217 91.5t-76 241.5zM186 219q0 -90 38 -130t110 -40t126 38t105.5 139t98.5 276q43 162 43 254q0 90 -36.5 129t-109.5 39q-72 0 -126 -37.5 t-106 -138.5t-100 -277q-43 -157 -43 -252zM328 1229q0 43 31.5 73.5t70.5 30.5q38 0 70 -30.5t32 -73.5t-32 -74t-70 -31q-39 0 -70.5 31t-31.5 74zM688 1229q0 43 32.5 73.5t70.5 30.5q39 0 70.5 -30.5t31.5 -73.5t-31.5 -74t-70.5 -31q-38 0 -70.5 31t-32.5 74z" />
<glyph unicode="&#xf7;" horiz-adv-x="1015" d="M129 596l14 72h766l-14 -72h-766zM336 297q0 48 33 81.5t77 33.5q45 0 79 -33.5t34 -81.5q0 -47 -34 -80t-79 -33q-44 0 -77 33t-33 80zM477 963q0 48 33.5 81t77.5 33q45 0 78.5 -33t33.5 -81q0 -47 -33.5 -80t-78.5 -33q-44 0 -77.5 33.5t-33.5 79.5z" />
<glyph unicode="&#xf8;" horiz-adv-x="931" d="M-86 -88l174 207q-45 77 -45 198q0 160 75.5 317t196 256t244.5 99t201 -80l129 152h90l-176 -209q47 -83 47 -199q0 -161 -74.5 -317t-194.5 -254t-245 -98q-128 0 -205 77l-127 -149h-90zM184 229l516 611q-25 84 -139 84q-72 0 -126 -37.5t-106 -138.5t-100 -277 q-42 -147 -45 -242zM193 133q25 -84 141 -84q72 0 126 38t105.5 139t98.5 276q38 142 45 239z" />
<glyph unicode="&#xf9;" horiz-adv-x="1042" d="M41 637q236 352 340 352q57 0 57 -76q0 -51 -22 -127l-154 -555q-14 -49 -14 -84q0 -63 51 -63q25 0 58.5 22t82 74.5t117.5 157t150 252.5l102 366h149l-239 -854l225 230l23 -21q-79 -113 -131 -179.5t-89 -98.5t-59.5 -40.5t-54.5 -8.5q-55 0 -55 69q0 35 12 90l20 88 l135 336l-6 2q-74 -144 -130 -240.5t-118 -180t-120.5 -124t-116.5 -40.5q-65 0 -102 41.5t-37 128.5q0 69 22 153l152 559l-223 -250zM408.5 1317.5q1.5 25.5 13.5 46.5q26 33 65 33q49 0 91 -47l124 -140l95 -63l-33 -49l-96 63l-176 60q-41 15 -63 43t-20.5 53.5z" />
<glyph unicode="&#xfa;" horiz-adv-x="1042" d="M41 637q236 352 340 352q57 0 57 -76q0 -51 -22 -127l-154 -555q-14 -49 -14 -84q0 -63 51 -63q25 0 58.5 22t82 74.5t117.5 157t150 252.5l102 366h149l-239 -854l225 230l23 -21q-79 -113 -131 -179.5t-89 -98.5t-59.5 -40.5t-54.5 -8.5q-55 0 -55 69q0 35 12 90l20 88 l135 336l-6 2q-74 -144 -130 -240.5t-118 -180t-120.5 -124t-116.5 -40.5q-65 0 -102 41.5t-37 128.5q0 69 22 153l152 559l-223 -250zM545 1147l94 63l125 140q42 47 90 47q40 0 66 -33q12 -21 13.5 -46.5t-20.5 -53.5t-63 -43l-176 -60l-96 -63z" />
<glyph unicode="&#xfb;" horiz-adv-x="1042" d="M41 637q236 352 340 352q57 0 57 -76q0 -51 -22 -127l-154 -555q-14 -49 -14 -84q0 -63 51 -63q25 0 58.5 22t82 74.5t117.5 157t150 252.5l102 366h149l-239 -854l225 230l23 -21q-79 -113 -131 -179.5t-89 -98.5t-59.5 -40.5t-54.5 -8.5q-55 0 -55 69q0 35 12 90l20 88 l135 336l-6 2q-74 -144 -130 -240.5t-118 -180t-120.5 -124t-116.5 -40.5q-65 0 -102 41.5t-37 128.5q0 69 22 153l152 559l-223 -250zM389 1118q95 81 162 154t90 109.5t41.5 57.5t38.5 21q31 0 43.5 -16t18.5 -48t41.5 -111t97.5 -173l-35 -29l-185 193l-284 -193z" />
<glyph unicode="&#xfc;" horiz-adv-x="1042" d="M41 637q236 352 340 352q57 0 57 -76q0 -51 -22 -127l-154 -555q-14 -49 -14 -84q0 -63 51 -63q25 0 58.5 22t82 74.5t117.5 157t150 252.5l102 366h149l-239 -854l225 230l23 -21q-79 -113 -131 -179.5t-89 -98.5t-59.5 -40.5t-54.5 -8.5q-55 0 -55 69q0 35 12 90l20 88 l135 336l-6 2q-74 -144 -130 -240.5t-118 -180t-120.5 -124t-116.5 -40.5q-65 0 -102 41.5t-37 128.5q0 69 22 153l152 559l-223 -250zM389 1229q0 43 31.5 73.5t71.5 30.5q38 0 70 -30.5t32 -73.5t-32 -74t-70 -31q-39 0 -71 31t-32 74zM750 1229q0 43 32 73.5t70 30.5 q39 0 70.5 -30.5t31.5 -73.5t-31.5 -74t-70.5 -31q-38 0 -70 31t-32 74z" />
<glyph unicode="&#xfd;" horiz-adv-x="944" d="M-121 -248q0 52 31.5 84.5t73.5 32.5q36 0 62 -26t26 -62q0 -45 -30 -68.5t-77 -25.5v-4q20 -13 62 -13q66 0 126.5 31t143.5 111q33 223 33 565q0 149 -13.5 284.5t-29.5 194.5l-221 -240l-25 21q138 205 205 278.5t125 73.5q54 0 78 -134t24 -423q0 -266 -33 -457 q153 197 258.5 440t102.5 392l-4 2q-53 -20 -92 7t-39 75q0 41 27 65.5t65 24.5q56 0 90.5 -42t34.5 -130q0 -110 -66.5 -292.5t-186.5 -383.5t-253 -334q-97 -97 -179.5 -141.5t-166.5 -44.5q-69 0 -110.5 39.5t-41.5 99.5zM494 1147l94 63l125 140q42 47 90 47 q39 0 65 -33q12 -21 14 -46.5t-20 -53.5t-63 -43l-176 -60l-97 -63z" />
<glyph unicode="&#xfe;" horiz-adv-x="942" d="M-229 -369l16 54h158l424 1632l-150 51l6 18l305 115h31l-139 -540q67 28 137 28q132 0 215.5 -91.5t83.5 -250.5q0 -142 -54.5 -267.5t-147 -212t-218 -133.5t-262.5 -40l-78 -309h174l-14 -54h-487zM190 45q96 7 166.5 28.5t132.5 66.5t106.5 122.5t74.5 192.5 q41 150 41 260q0 101 -41 148.5t-125 47.5q-78 0 -144 -32z" />
<glyph unicode="&#xff;" horiz-adv-x="944" d="M-121 -248q0 52 31.5 84.5t73.5 32.5q36 0 62 -26t26 -62q0 -45 -30 -68.5t-77 -25.5v-4q20 -13 62 -13q66 0 126.5 31t143.5 111q33 223 33 565q0 149 -13.5 284.5t-29.5 194.5l-221 -240l-25 21q138 205 205 278.5t125 73.5q54 0 78 -134t24 -423q0 -266 -33 -457 q153 197 258.5 440t102.5 392l-4 2q-53 -20 -92 7t-39 75q0 41 27 65.5t65 24.5q56 0 90.5 -42t34.5 -130q0 -110 -66.5 -292.5t-186.5 -383.5t-253 -334q-97 -97 -179.5 -141.5t-166.5 -44.5q-69 0 -110.5 39.5t-41.5 99.5zM315 1229q0 43 31.5 73.5t71.5 30.5 q38 0 70 -30.5t32 -73.5t-32 -74t-70 -31q-39 0 -71 31t-32 74zM676 1229q0 43 32 73.5t70 30.5q40 0 71.5 -30.5t31.5 -73.5t-32 -74t-71 -31q-38 0 -70 31t-32 74z" />
<glyph unicode="&#x152;" horiz-adv-x="2068" d="M98 584q0 122 37 244.5t106 229t159 189.5t204 130.5t234 47.5q65 0 127 -16h997l43 -362l-29 -11l-176 289l-721 35q124 -77 190 -226t66 -325q0 -44 -2 -64l217 17l131 194h35l-100 -469h-35l-43 195l-211 14q-29 -200 -149 -372t-293 -263l825 35l283 355l32 -13 l-153 -438h-1151q-72 -16 -139 -16q-117 0 -211.5 51.5t-152.5 137t-89 191t-31 220.5zM256 451q0 -198 88 -294t240 -96q196 0 345 153t218 472q31 149 31 252q0 207 -94 308.5t-248 101.5q-206 0 -342 -151t-207 -490q-31 -152 -31 -256z" />
<glyph unicode="&#x153;" horiz-adv-x="1400" d="M43 317q0 160 75.5 317t196 256t244.5 99q107 0 172 -61t84 -170q75 109 168 170t193 61q82 0 136 -44.5t54 -121.5q0 -116 -153 -212t-394 -136q-33 -132 -33 -225q0 -174 121 -174q77 0 159 67.5t179 204.5l35 -20q-30 -53 -58.5 -97t-69.5 -92t-82.5 -80.5 t-94.5 -53.5t-109 -21q-86 0 -144 48.5t-71 135.5q-63 -88 -145 -136t-170 -48q-141 0 -217 91.5t-76 241.5zM186 219q0 -90 38 -130t110 -40t126 38t105.5 139t98.5 276q43 162 43 254q0 90 -36.5 129t-109.5 39q-72 0 -126 -37.5t-106 -138.5t-100 -277q-43 -157 -43 -252 zM831 518q119 29 197 62t121 74.5t59.5 86.5t16.5 107q0 34 -13.5 56t-40.5 22q-37 0 -80 -21.5t-91 -66.5t-93 -128t-76 -192z" />
<glyph unicode="&#x178;" horiz-adv-x="1277" d="M117 1133q0 126 72 209t202 83q150 0 236 -136.5t86 -383.5q0 -61 -6 -125q92 283 233 464t268 181q82 0 124 -46t42 -115q0 -50 -29 -83.5t-71 -33.5q-39 0 -66.5 25.5t-27.5 64.5t24 65t76 27v4q-11 10 -40.5 12t-70.5 -8q-87 -24 -185 -155t-182.5 -334t-131.5 -426 l-70 -330l184 -35l-12 -57h-545l13 57l196 35l58 270q67 318 67 549q0 210 -54.5 317t-146.5 107q-88 0 -133 -62t-45 -163q0 -47 21 -104h4q6 48 31.5 75t64.5 27q40 0 66 -27.5t26 -66.5q0 -44 -31 -76.5t-77 -32.5q-73 0 -121.5 62t-48.5 166zM530 1630q0 43 32 74t71 31 q38 0 70 -31t32 -74t-32 -73.5t-70 -30.5q-40 0 -71.5 30.5t-31.5 73.5zM891 1630q0 43 32 74t70 31q39 0 71 -31t32 -74t-31.5 -73.5t-71.5 -30.5q-38 0 -70 30.5t-32 73.5z" />
<glyph unicode="&#x2c6;" d="M358 1118q95 81 162 154t90 109.5t41.5 57.5t38.5 21q31 0 43.5 -16t18.5 -48t41.5 -111t97.5 -173l-35 -29l-184 193l-285 -193z" />
<glyph unicode="&#x2dc;" d="M311 1137q74 104 130 150t110 46q45 0 94 -30l96 -60q33 -20 68 -6t92 68l45 41l31 -29q-72 -104 -130 -151.5t-112 -47.5q-41 0 -92 31l-96 59q-34 19 -67.5 5.5t-92.5 -66.5l-45 -39z" />
<glyph unicode="&#x2013;" horiz-adv-x="1173" d="M174 526l14 76h805l-14 -76h-805z" />
<glyph unicode="&#x2014;" horiz-adv-x="1888" d="M174 526l14 76h1520l-14 -76h-1520z" />
<glyph unicode="&#x2018;" horiz-adv-x="464" d="M227 1112q0 101 71 197.5t194 138.5l18 -39q-77 -50 -119.5 -101.5t-50.5 -119.5l4 -4q37 4 76 -20.5t39 -82.5q0 -46 -32.5 -79t-78.5 -33q-48 0 -84.5 37.5t-36.5 105.5z" />
<glyph unicode="&#x2019;" horiz-adv-x="464" d="M217 981q77 50 119.5 101.5t50.5 119.5l-4 4q-37 -4 -76 20.5t-39 82.5q0 46 32.5 79t78.5 33q48 0 84.5 -37.5t36.5 -105.5q0 -101 -70.5 -197.5t-193.5 -138.5z" />
<glyph unicode="&#x201a;" horiz-adv-x="505" d="M-16 -209q77 50 119.5 101.5t50.5 119.5l-4 4q-37 -4 -76 20.5t-39 82.5q0 46 32 79t78 33q48 0 84.5 -37.5t36.5 -105.5q0 -101 -70.5 -197.5t-193.5 -138.5z" />
<glyph unicode="&#x201c;" horiz-adv-x="821" d="M227 1112q0 101 71 197.5t194 138.5l18 -39q-77 -50 -119.5 -101.5t-50.5 -119.5l4 -4q37 4 76 -20.5t39 -82.5q0 -46 -32.5 -79t-78.5 -33q-48 0 -84.5 37.5t-36.5 105.5zM584 1112q0 101 70.5 197.5t193.5 138.5l18 -39q-77 -50 -119.5 -101.5t-50.5 -119.5l4 -4 q37 4 76 -20.5t39 -82.5q0 -46 -32 -79t-78 -33q-48 0 -84.5 37.5t-36.5 105.5z" />
<glyph unicode="&#x201d;" horiz-adv-x="821" d="M217 983q77 50 119.5 101.5t50.5 119.5l-4 4q-37 -4 -76 20.5t-39 82.5q0 46 32.5 79t78.5 33q48 0 84.5 -37.5t36.5 -105.5q0 -101 -70.5 -197.5t-193.5 -138.5zM573 983q77 50 119.5 101.5t50.5 119.5l-4 4q-37 -4 -75.5 20.5t-38.5 82.5q0 46 32 79t78 33 q48 0 84.5 -37.5t36.5 -105.5q0 -101 -70.5 -197.5t-193.5 -138.5z" />
<glyph unicode="&#x201e;" horiz-adv-x="862" d="M-16 -209q77 50 119.5 101.5t50.5 119.5l-4 4q-37 -4 -76 20.5t-39 82.5q0 46 32 79t78 33q48 0 84.5 -37.5t36.5 -105.5q0 -101 -70.5 -197.5t-193.5 -138.5zM340 -209q77 50 119.5 101.5t50.5 119.5l-4 4q-37 -4 -76 20.5t-39 82.5q0 46 32.5 79t78.5 33 q48 0 84.5 -37.5t36.5 -105.5q0 -101 -71 -197.5t-194 -138.5z" />
<glyph unicode="&#x2022;" horiz-adv-x="712" d="M152 614q0 87 64.5 151t148.5 64q85 0 149 -64t64 -151q0 -85 -63.5 -146.5t-149.5 -61.5q-84 0 -148.5 61.5t-64.5 146.5z" />
<glyph unicode="&#x2026;" horiz-adv-x="1425" d="M66 106q0 50 34.5 84.5t79.5 34.5q47 0 82 -34.5t35 -84.5q0 -49 -35 -82.5t-82 -33.5q-45 0 -79.5 34t-34.5 82zM496 106q0 50 34.5 84.5t79.5 34.5q47 0 82 -34.5t35 -84.5q0 -49 -35 -82.5t-82 -33.5q-45 0 -79.5 34t-34.5 82zM928 106q0 50 34.5 84.5t79.5 34.5 q47 0 82 -34.5t35 -84.5q0 -49 -35 -82.5t-82 -33.5q-45 0 -79.5 34t-34.5 82z" />
<glyph unicode="&#x2039;" horiz-adv-x="577" d="M49 485l12 56l453 319l37 -41l-338 -356l176 -340l-51 -33z" />
<glyph unicode="&#x203a;" horiz-adv-x="577" d="M-18 131l337 356l-176 340l52 33l288 -395l-12 -55l-453 -320z" />
<glyph unicode="&#x20ac;" horiz-adv-x="1247" d="M59 498l17 75h190q3 102 25 201h-172l16 76h176q75 258 250.5 416.5t390.5 158.5q136 0 218.5 -73.5t82.5 -175.5q0 -62 -34 -102t-86 -40q-46 0 -80.5 33t-34.5 78q0 56 39 86.5t108 11.5v4q-16 39 -67.5 70t-136.5 31q-79 0 -142.5 -24t-123 -80t-109 -154t-90.5 -240 h446l-16 -76h-451q-18 -73 -22 -98q-15 -69 -19 -103h449l-17 -75h-442q-4 -58 -4 -84q0 -176 70.5 -263.5t191.5 -87.5q112 0 193 47.5t172 147.5l51 -35q-178 -239 -424 -239q-86 0 -155 26.5t-115.5 73t-78 112.5t-46 140.5t-15.5 161.5h-205z" />
<glyph unicode="&#x2122;" horiz-adv-x="1855" d="M186 1128l15 281h622l17 -281l-31 -8l-104 228l-127 20v-594l112 -22v-39h-352v39l108 22v594l-127 -20l-102 -228zM922 713v39l96 22v574l-96 22v39h262l190 -502l185 502h258v-39l-88 -22v-574l88 -22v-39h-306v39l86 22v578l-229 -617h-45l-252 617l29 -578l86 -22 v-39h-264z" />
<glyph unicode="&#xe000;" horiz-adv-x="993" d="M0 0v993h993v-993h-993z" />
<glyph unicode="&#xfb01;" horiz-adv-x="974" d="M-295 -240q0 48 28 75.5t62 27.5q36 0 59 -24t23 -58t-21.5 -58t-60.5 -30v-4q28 -17 72 -17q104 0 131 121l246 1096h-164l6 31l172 30l51 226q24 105 64.5 181t92 119t108 63t120.5 20q101 0 160 -51t59 -122q0 -57 -29 -88.5t-73 -31.5q-41 0 -68.5 27.5t-27.5 68.5 t28.5 70t79.5 28v2q-7 12 -36.5 21.5t-69.5 9.5q-96 0 -153.5 -56.5t-86.5 -183.5l-69 -297h311q38 33 78 33q30 0 50.5 -17t20.5 -57q0 -27 -12 -67l-213 -729l209 213l22 -21q-137 -200 -201.5 -263.5t-127.5 -63.5q-49 0 -49 65q0 36 16 98l195 742h-316l-241 -1020 q-33 -142 -99 -199t-162 -57q-77 0 -130.5 43t-53.5 104z" />
<glyph unicode="&#xfb02;" horiz-adv-x="976" d="M-295 -240q0 48 28 75.5t62 27.5q36 0 59 -24t23 -58t-21.5 -58t-60.5 -30v-4q28 -17 72 -17q104 0 131 121l246 1096h-164l6 31l172 30l51 226q24 105 64.5 181t92 119t108 63t120.5 20q78 0 133 -31t80 -80l88 53h33l-387 -1386l211 217l22 -21q-139 -205 -199.5 -266 t-123.5 -61q-57 0 -57 69q0 32 16 94l303 1123q-35 3 -58.5 29t-23.5 63q0 40 23.5 67.5t70.5 28.5v2q-27 33 -108 33q-96 0 -152.5 -56t-87.5 -184l-69 -297h196l-14 -67h-199l-241 -1020q-33 -142 -99 -199t-162 -57q-77 0 -130.5 43t-53.5 104z" />
</font>
</defs>
</svg>
